SplineFontDB: 3.0
FontName: RiseStarHandThin
FullName: RiseStarHand
FamilyName: RiseStarHand
Weight: Thin
Copyright: Created by Tharique Azeez -- http://niram.org (c) 2014 twitter @enathu
Version: 1.0
ItalicAngle: 0
UnderlinePosition: -100
UnderlineWidth: 50
Ascent: 800
Descent: 200
sfntRevision: 0x00010000
LayerCount: 2
Layer: 0 1 "Back"  1
Layer: 1 1 "Fore"  0
XUID: [1021 819 7990 21559]
UniqueID: 2147483647
UseUniqueID: 1
FSType: 0
OS2Version: 4
OS2_WeightWidthSlopeOnly: 0
OS2_UseTypoMetrics: 1
CreationTime: 1392083202
ModificationTime: 1392219521
PfmFamily: 17
TTFWeight: 500
TTFWidth: 5
LineGap: 90
VLineGap: 0
Panose: 2 0 6 3 0 0 0 0 0 0
OS2TypoAscent: 0
OS2TypoAOffset: 1
OS2TypoDescent: 0
OS2TypoDOffset: 1
OS2TypoLinegap: 90
OS2WinAscent: 0
OS2WinAOffset: 1
OS2WinDescent: 0
OS2WinDOffset: 1
HheadAscent: 0
HheadAOffset: 1
HheadDescent: 0
HheadDOffset: 1
OS2SubXSize: 650
OS2SubYSize: 700
OS2SubXOff: 0
OS2SubYOff: 140
OS2SupXSize: 650
OS2SupYSize: 700
OS2SupXOff: 0
OS2SupYOff: 480
OS2StrikeYSize: 49
OS2StrikeYPos: 258
OS2Vendor: 'PfEd'
OS2CodePages: 00000001.00000000
OS2UnicodeRanges: 80000083.00000000.00000000.00000000
MarkAttachClasses: 1
DEI: 91125
ShortTable: cvt  2
  33
  633
EndShort
ShortTable: maxp 16
  1
  0
  120
  238
  5
  0
  0
  2
  0
  1
  1
  0
  64
  46
  0
  0
EndShort

StartChar: .notdef
Encoding: 65536 -1 0
Width: 364
Flags: W
LayerCount: 2
Fore
SplineSet
33 0 m 1,0,-1
 33 666 l 1,1,-1
 298 666 l 1,2,-1
 298 0 l 1,3,-1
 33 0 l 1,0,-1
66 33 m 1,4,-1
 265 33 l 1,5,-1
 265 633 l 1,6,-1
 66 633 l 1,7,-1
 66 33 l 1,4,-1
EndSplineSet
EndChar

StartChar: exclam
Encoding: 33 33 4
Width: 156
Flags: W
LayerCount: 2
Fore
SplineSet
85 74 m 1,0,1
 81 56 81 56 84 44 c 0,2,3
 85 43 85 43 85 41 c 1,4,5
 93 45 93 45 97 53 c 0,6,7
 100 59 100 59 97 62 c 0,8,9
 93 67 93 67 85 74 c 1,0,1
66 88 m 1,10,-1
 62 92 l 1,11,12
 54 98 54 98 60 107 c 0,13,14
 65 113 65 113 73 110 c 1,15,16
 74 113 74 113 75 115 c 2,17,-1
 81 127 l 2,18,19
 85 137 85 137 94.5 133 c 128,-1,20
 104 129 104 129 100 119 c 2,21,-1
 94 106 l 2,22,23
 92 102 92 102 90 96 c 1,24,25
 106 84 106 84 114 75 c 0,26,27
 124 62 124 62 116 44 c 0,28,29
 108 28 108 28 93 22 c 0,30,31
 83 18 83 18 75 23 c 128,-1,32
 67 28 67 28 64 39 c 0,33,34
 59 55 59 55 64 79 c 0,35,36
 65 84 65 84 66 88 c 1,10,-1
78 294 m 1,37,38
 80 304 80 304 83 316 c 0,39,40
 93 361 93 361 102 414 c 0,41,42
 110 466 110 466 109 505 c 1,43,44
 107 543 107 543 89 577 c 0,45,46
 80 595 80 595 74 602 c 1,47,48
 68 592 68 592 61 567 c 1,49,50
 48 527 48 527 48 468 c 0,51,52
 48 408 48 408 66 339 c 0,53,54
 72 315 72 315 78 294 c 1,37,38
112.5 182.5 m 128,-1,56
 103 178 103 178 98 187 c 2,57,-1
 81 225 l 2,58,59
 79 228 79 228 77 233 c 1,60,61
 75 233 75 233 74 233 c 0,62,63
 64 236 64 236 67 246 c 2,64,-1
 69 255 l 1,65,66
 67 261 67 261 65 267 c 0,67,68
 55 296 55 296 45 334 c 0,69,70
 27 406 27 406 27 468 c 0,71,72
 27 531 27 531 41 574 c 0,73,74
 41 576 41 576 42 579 c 0,75,76
 47 594 47 594 49.5 601.5 c 128,-1,77
 52 609 52 609 57 616 c 128,-1,78
 62 623 62 623 68 625 c 0,79,80
 76 628 76 628 83.5 622.5 c 128,-1,81
 91 617 91 617 95 611 c 128,-1,82
 99 605 99 605 105 592 c 0,83,84
 107 589 107 589 108 587 c 0,85,86
 127 549 127 549 130 506 c 0,87,88
 132 465 132 465 123 410 c 0,89,90
 114 357 114 357 104 311 c 0,91,92
 97 281 97 281 93 265 c 0,93,94
 92 260 92 260 91 256 c 1,95,96
 92 253 92 253 93 251 c 0,97,98
 96 241 96 241 100 234 c 2,99,-1
 117 196 l 2,100,55
 122 187 122 187 112.5 182.5 c 128,-1,56
EndSplineSet
EndChar

StartChar: quotedbl
Encoding: 34 34 5
Width: 192
Flags: W
LayerCount: 2
Fore
SplineSet
122.5 591.5 m 128,-1,1
 129 600 129 600 137 594 c 2,2,-1
 150 585 l 1,3,4
 167 572 167 572 165 528 c 2,5,-1
 163 490 l 2,6,7
 163 486 163 486 160 483 c 128,-1,8
 157 480 157 480 152.5 480 c 128,-1,9
 148 480 148 480 145 483 c 128,-1,10
 142 486 142 486 142 491 c 2,11,-1
 144 529 l 2,12,13
 146 562 146 562 138 568 c 2,14,-1
 125 577 l 2,15,0
 116 583 116 583 122.5 591.5 c 128,-1,1
69.5 600.5 m 128,-1,17
 80 600 80 600 79 589 c 2,18,-1
 76 556 l 2,19,20
 73 520 73 520 59 499 c 2,21,-1
 46 480 l 2,22,23
 40 471 40 471 31.5 476.5 c 128,-1,24
 23 482 23 482 29 491 c 2,25,-1
 41 510 l 2,26,27
 52 527 52 527 55 558 c 2,28,-1
 58 591 l 2,29,16
 59 601 59 601 69.5 600.5 c 128,-1,17
EndSplineSet
EndChar

StartChar: numbersign
Encoding: 35 35 6
Width: 591
Flags: W
LayerCount: 2
Fore
SplineSet
27 173.5 m 128,-1,1
 24 184 24 184 35 186 c 1,2,-1
 56 193 l 1,3,4
 78 199 78 199 149 219 c 0,5,6
 184 228 184 228 224 237 c 1,7,8
 233 297 233 297 245 368 c 1,9,10
 232 366 232 366 218 364 c 0,11,12
 120 350 120 350 108 353 c 2,13,-1
 99 356 l 1,14,15
 89 358 89 358 91.5 368.5 c 128,-1,16
 94 379 94 379 104 376 c 2,17,-1
 114 374 l 2,18,19
 126 372 126 372 215 385 c 0,20,21
 232 387 232 387 249 389 c 1,22,23
 269 505 269 505 277 541 c 2,24,-1
 286 579 l 2,25,26
 289 590 289 590 299 587.5 c 128,-1,27
 309 585 309 585 307 575 c 2,28,-1
 298 536 l 2,29,30
 290 502 290 502 271 392 c 1,31,32
 320 399 320 399 367 404 c 1,33,34
 374 440 374 440 381 473 c 0,35,36
 396 546 396 546 407 576 c 2,37,-1
 417 604 l 2,38,39
 421 614 421 614 431 610.5 c 128,-1,40
 441 607 441 607 437 597 c 2,41,-1
 426 569 l 2,42,43
 416 541 416 541 402 469 c 1,44,45
 395 439 395 439 389 407 c 1,46,47
 392 407 392 407 395 407 c 0,48,49
 479 417 479 417 488 416 c 2,50,-1
 496 415 l 2,51,52
 506 414 506 414 505 403.5 c 128,-1,53
 504 393 504 393 493 394 c 2,54,-1
 486 395 l 1,55,56
 476 395 476 395 397 386 c 0,57,58
 391 386 391 386 384 385 c 1,59,60
 377 350 377 350 369 311 c 0,61,62
 365 287 365 287 359 263 c 1,63,64
 418 273 418 273 462 279 c 1,65,66
 524 286 524 286 539 288 c 2,67,-1
 553 289 l 2,68,69
 564 290 564 290 565 279.5 c 128,-1,70
 566 269 566 269 555 268 c 2,71,-1
 541 267 l 2,72,73
 526 265 526 265 465 258 c 0,74,75
 418 252 418 252 355 241 c 1,76,77
 344 192 344 192 332 146 c 0,78,79
 313 67 313 67 305 41 c 2,80,-1
 297 15 l 2,81,82
 294 5 294 5 284 8.5 c 128,-1,83
 274 12 274 12 277 22 c 2,84,-1
 285 47 l 2,85,86
 293 72 293 72 312 151 c 0,87,88
 323 193 323 193 332 237 c 1,89,90
 324 236 324 236 314 234 c 0,91,92
 277 227 277 227 242 220 c 1,93,94
 236 176 236 176 230 138 c 0,95,96
 217 46 217 46 216 11 c 2,97,-1
 214 -24 l 2,98,99
 214 -29 214 -29 210.5 -32 c 128,-1,100
 207 -35 207 -35 203 -34.5 c 128,-1,101
 199 -34 199 -34 196 -31 c 128,-1,102
 193 -28 193 -28 193 -23 c 2,103,-1
 195 12 l 2,104,105
 197 48 197 48 210 141 c 0,106,107
 214 175 214 175 220 215 c 1,108,109
 186 207 186 207 155 198 c 0,110,111
 84 179 84 179 62 173 c 2,112,-1
 40 166 l 2,113,0
 30 163 30 163 27 173.5 c 128,-1,1
362 382 m 1,114,115
 317 377 317 377 267 370 c 1,116,117
 267 368 267 368 266 365 c 0,118,119
 255 298 255 298 246 242 c 1,120,121
 277 249 277 249 311 255 c 0,122,123
 324 257 324 257 337 259 c 1,124,125
 343 287 343 287 349 315 c 0,126,127
 356 350 356 350 362 382 c 1,114,115
EndSplineSet
EndChar

StartChar: dollar
Encoding: 36 36 7
Width: 354
Flags: W
LayerCount: 2
Fore
SplineSet
198.5 674 m 128,-1,1
 203 674 203 674 206 671 c 128,-1,2
 209 668 209 668 209 664 c 2,3,-1
 208 615 l 2,4,5
 208 613 208 613 208 611 c 1,6,7
 209 611 209 611 209 610 c 0,8,9
 245 599 245 599 277 562 c 0,10,11
 308 527 308 527 315 513 c 2,12,-1
 321 501 l 2,13,14
 326 491 326 491 316.5 486.5 c 128,-1,15
 307 482 307 482 302 491 c 2,16,-1
 296 504 l 2,17,18
 290 515 290 515 261 548 c 0,19,20
 235 578 235 578 208 588 c 1,21,22
 208 546 208 546 210 484 c 0,23,24
 211 446 211 446 212 408 c 1,25,26
 248 389 248 389 277 363 c 0,27,28
 321 324 321 324 326 271 c 1,29,30
 332 219 332 219 301 181 c 0,31,32
 278 152 278 152 234 136 c 1,33,-1
 242 82 l 2,34,35
 244 71 244 71 233.5 69.5 c 128,-1,36
 223 68 223 68 221 79 c 2,37,-1
 213 129 l 1,38,39
 209 128 209 128 204 126 c 0,40,41
 181 120 181 120 161 118 c 1,42,43
 161 90 161 90 162 74 c 2,44,-1
 163 41 l 2,45,46
 164 37 164 37 161 33.5 c 128,-1,47
 158 30 158 30 153.5 30 c 128,-1,48
 149 30 149 30 146 33 c 128,-1,49
 143 36 143 36 143 40 c 2,50,-1
 141 74 l 2,51,52
 140 89 140 89 140 116 c 1,53,54
 115 115 115 115 95 121 c 0,55,56
 49 133 49 133 37 172 c 2,57,-1
 27 204 l 2,58,59
 24 214 24 214 34.5 217.5 c 128,-1,60
 45 221 45 221 48 210 c 2,61,-1
 57 178 l 1,62,63
 66 150 66 150 101 141 c 0,64,65
 118 136 118 136 140 137 c 1,66,67
 140 161 140 161 140 191 c 0,68,69
 140 275 140 275 136 375 c 0,70,71
 135 399 135 399 134 422 c 1,72,73
 102 438 102 438 79 454 c 0,74,75
 42 481 42 481 40 513.5 c 128,-1,76
 38 546 38 546 73 576 c 0,77,78
 99 599 99 599 126 609 c 1,79,80
 126 637 126 637 126 658 c 2,81,-1
 128 702 l 2,82,83
 128 706 128 706 131.5 709 c 128,-1,84
 135 712 135 712 139 712 c 128,-1,85
 143 712 143 712 146 708.5 c 128,-1,86
 149 705 149 705 149 701 c 2,87,-1
 147 657 l 2,88,89
 147 639 147 639 147 615 c 1,90,91
 167 619 167 619 187 616 c 1,92,-1
 188 664 l 2,93,94
 188 668 188 668 191 671 c 128,-1,0
 194 674 194 674 198.5 674 c 128,-1,1
156 412 m 1,95,96
 157 395 157 395 157 376 c 0,97,98
 161 275 161 275 161 191 c 0,99,100
 161 162 161 162 161 139 c 1,101,102
 179 141 179 141 199 147 c 0,103,104
 205 148 205 148 210 150 c 1,105,-1
 209 156 l 2,106,107
 197 234 197 234 194 318 c 0,108,109
 193 358 193 358 192 395 c 1,110,111
 181 401 181 401 169 406 c 0,112,113
 162 409 162 409 156 412 c 1,95,96
213 383 m 1,114,115
 214 351 214 351 215 319 c 0,116,117
 218 236 218 236 230 159 c 1,118,-1
 230 157 l 1,119,120
 266 171 266 171 285 194 c 0,121,122
 310 225 310 225 306 269 c 0,123,124
 301 313 301 313 263 347 c 0,125,126
 240 367 240 367 213 383 c 1,114,115
191 419 m 1,127,128
 190 451 190 451 189 484 c 0,129,130
 187 550 187 550 187 594 c 1,131,132
 167 598 167 598 148 594 c 1,133,134
 148 571 148 571 150 546 c 0,135,136
 152 496 152 496 155 435 c 1,137,138
 166 430 166 430 178 425 c 0,139,140
 185 422 185 422 191 419 c 1,127,128
133 446 m 1,141,142
 131 501 131 501 129 544 c 0,143,144
 127 567 127 567 127 587 c 1,145,146
 106 578 106 578 87 560 c 1,147,148
 60 537 60 537 61 514.5 c 128,-1,149
 62 492 62 492 92 472 c 1,150,151
 109 459 109 459 133 446 c 1,141,142
EndSplineSet
EndChar

StartChar: percent
Encoding: 37 37 8
Width: 532
Flags: W
LayerCount: 2
Fore
SplineSet
434 212 m 1,0,1
 431 211 431 211 428 209 c 0,2,3
 396 188 396 188 376 157 c 1,4,5
 356 128 356 128 364 101 c 0,6,7
 371 77 371 77 400 77 c 0,8,9
 431 76 431 76 463 119 c 0,10,11
 494 161 494 161 481 188 c 1,12,13
 470 208 470 208 444 211 c 0,14,15
 439 212 439 212 434 212 c 1,0,1
464 228 m 1,16,17
 488 219 488 219 499 197 c 0,18,19
 519 159 519 159 480 106 c 0,20,21
 442 55 442 55 399 56 c 1,22,23
 355 56 355 56 344 95 c 0,24,25
 334 131 334 131 358 169 c 1,26,27
 374 192 374 192 395 211 c 1,28,29
 374 209 374 209 368 208 c 2,30,-1
 358 205 l 1,31,32
 347 203 347 203 344.5 213 c 128,-1,33
 342 223 342 223 353 226 c 2,34,-1
 363 228 l 2,35,36
 374 231 374 231 424 233 c 0,37,38
 425 233 425 233 428 233 c 1,39,40
 437 239 437 239 444 242 c 0,41,42
 459 250 459 250 467 249 c 2,43,-1
 477 248 l 2,44,45
 487 247 487 247 486 236.5 c 128,-1,46
 485 226 485 226 475 227 c 2,47,-1
 465 228 l 1,48,49
 465 228 465 228 464 228 c 1,16,17
149 578 m 1,50,-1
 117 570 l 2,51,52
 87 562 87 562 66 538 c 0,53,54
 47 515 47 515 48 464 c 1,55,56
 50 414 50 414 71 400 c 0,57,58
 90 388 90 388 122 415 c 0,59,60
 156 445 156 445 166 497 c 0,61,62
 176 548 176 548 159 569 c 0,63,64
 155 575 155 575 149 578 c 1,50,-1
87 581 m 1,65,-1
 74 579 l 2,66,67
 64 577 64 577 62.5 587.5 c 128,-1,68
 61 598 61 598 71 600 c 2,69,-1
 109 605 l 2,70,71
 116 606 116 606 123 606 c 0,72,73
 156 606 156 606 176 582 c 0,74,75
 198 554 198 554 187 493 c 0,76,77
 176 434 176 434 135 399 c 0,78,79
 92 362 92 362 59 383 c 0,80,81
 29 403 29 403 27 463 c 0,82,83
 25 522 25 522 50 552 c 0,84,85
 66 570 66 570 87 581 c 1,65,-1
420 578.5 m 128,-1,87
 428 572 428 572 421 564 c 2,88,-1
 410 550 l 2,89,90
 400 538 400 538 363 477 c 256,91,92
 326 416 326 416 286.5 349 c 128,-1,93
 247 282 247 282 210.5 214.5 c 128,-1,94
 174 147 174 147 139 84 c 128,-1,95
 104 21 104 21 94 5 c 2,96,-1
 85 -11 l 2,97,98
 80 -20 80 -20 71 -14.5 c 128,-1,99
 62 -9 62 -9 67 0 c 2,100,-1
 76 16 l 2,101,102
 86 32 86 32 121 94 c 0,103,104
 156 158 156 158 192 225 c 0,105,106
 229 292 229 292 268.5 359.5 c 128,-1,107
 308 427 308 427 345 488 c 0,108,109
 383 550 383 550 394 564 c 2,110,-1
 405 577 l 2,111,86
 412 585 412 585 420 578.5 c 128,-1,87
EndSplineSet
EndChar

StartChar: ampersand
Encoding: 38 38 9
Width: 635
Flags: W
LayerCount: 2
Fore
SplineSet
109 363 m 1,0,1
 128 383 128 383 150 402 c 0,2,3
 196 441 196 441 225 474 c 0,4,5
 252 505 252 505 256.5 530 c 128,-1,6
 261 555 261 555 251 586 c 0,7,8
 241 615 241 615 214 627 c 0,9,10
 186 640 186 640 153 635 c 0,11,12
 121 631 121 631 91 602 c 256,13,14
 61 573 61 573 51.5 534 c 128,-1,15
 42 495 42 495 58 449 c 0,16,17
 75 403 75 403 107 366 c 1,18,19
 107 366 107 366 109 363 c 1,0,1
296 121 m 1,20,21
 290 127 290 127 285 133 c 0,22,23
 236 190 236 190 180 252 c 0,24,25
 139 298 139 298 109 332 c 1,26,27
 97 316 97 316 86 301 c 0,28,29
 57 257 57 257 57 213 c 256,30,31
 57 169 57 169 87 137 c 0,32,33
 117 104 117 104 178 98 c 256,34,35
 239 92 239 92 292 119 c 0,36,37
 294 119 294 119 296 121 c 1,20,21
330 117 m 1,38,39
 362 87 362 87 392 75 c 0,40,41
 431 60 431 60 470 102 c 0,42,43
 513 149 513 149 545 246 c 0,44,45
 577 344 577 344 582 365 c 2,46,-1
 588 387 l 2,47,48
 590 397 590 397 600 394.5 c 128,-1,49
 610 392 610 392 608 382 c 2,50,-1
 603 360 l 2,51,52
 597 338 597 338 565 239 c 0,53,54
 532 138 532 138 486 88 c 0,55,56
 436 35 436 35 384 56 c 0,57,58
 349 70 349 70 312 105 c 1,59,60
 306 102 306 102 301 100 c 0,61,62
 243 71 243 71 176 77 c 0,63,64
 107 84 107 84 71 122 c 1,65,66
 36 161 36 161 36 213 c 0,67,68
 36 264 36 264 69 312 c 0,69,70
 81 330 81 330 95 348 c 1,71,72
 92 351 92 351 91 352 c 0,73,74
 56 393 56 393 38 442 c 0,75,76
 20 493 20 493 31 538 c 128,-1,77
 42 583 42 583 76 617 c 1,78,79
 111 650 111 650 150 656 c 0,80,81
 189 661 189 661 222 646 c 0,82,83
 257 631 257 631 271 593 c 1,84,85
 283 557 283 557 277 526 c 0,86,87
 271 496 271 496 241 460 c 1,88,89
 211 426 211 426 163 386 c 1,90,91
 142 367 142 367 123 347 c 1,92,93
 153 313 153 313 196 266 c 0,94,95
 252 204 252 204 301 147 c 0,96,97
 308 139 308 139 315 132 c 1,98,99
 352 155 352 155 374 187 c 0,100,101
 404 230 404 230 410 261 c 0,102,103
 417 293 417 293 417 306 c 2,104,-1
 417 321 l 2,105,106
 417 325 417 325 420 328.5 c 128,-1,107
 423 332 423 332 427.5 332 c 128,-1,108
 432 332 432 332 435 328.5 c 128,-1,109
 438 325 438 325 438 321 c 2,110,-1
 438 306 l 2,111,112
 438 291 438 291 431 256 c 256,113,114
 424 221 424 221 392 175 c 0,115,116
 368 142 368 142 330 117 c 1,38,39
EndSplineSet
EndChar

StartChar: quotesingle
Encoding: 39 39 10
Width: 104
Flags: W
LayerCount: 2
Fore
SplineSet
32.5 627.5 m 128,-1,1
 42 632 42 632 47 623 c 2,2,-1
 63 590 l 2,3,4
 81 555 81 555 77 517 c 2,5,-1
 74 483 l 2,6,7
 73 472 73 472 62.5 473 c 128,-1,8
 52 474 52 474 53 485 c 2,9,-1
 56 519 l 2,10,11
 59 551 59 551 44 581 c 2,12,-1
 28 613 l 2,13,0
 23 623 23 623 32.5 627.5 c 128,-1,1
EndSplineSet
EndChar

StartChar: parenleft
Encoding: 40 40 11
Width: 311
Flags: W
LayerCount: 2
Fore
SplineSet
213 633 m 128,-1,1
 217 623 217 623 207 620 c 2,2,-1
 187 612 l 2,3,4
 170 605 170 605 135 566 c 0,5,6
 100 526 100 526 72 444 c 1,7,8
 45 361 45 361 48 268 c 0,9,10
 52 175 52 175 86 84 c 0,11,12
 119 -4 119 -4 191 -44 c 0,13,14
 260 -82 260 -82 270 -86 c 1,15,-1
 276 -87 l 1,16,17
 287 -90 287 -90 284.5 -100 c 128,-1,18
 282 -110 282 -110 272 -108 c 2,19,-1
 265 -106 l 1,20,21
 257 -105 257 -105 181 -62 c 0,22,23
 102 -18 102 -18 66 77 c 0,24,25
 31 170 31 170 27 267 c 0,26,27
 24 364 24 364 52 450 c 0,28,29
 81 537 81 537 119 580 c 0,30,31
 158 623 158 623 180 631 c 1,32,-1
 199 639 l 2,33,0
 209 643 209 643 213 633 c 128,-1,1
EndSplineSet
EndChar

StartChar: parenright
Encoding: 41 41 12
Width: 265
Flags: W
LayerCount: 2
Fore
SplineSet
28.5 666 m 128,-1,1
 34 675 34 675 43 669 c 2,2,-1
 80 645 l 2,3,4
 119 619 119 619 168 548 c 256,5,6
 217 477 217 477 234 335 c 0,7,8
 252 193 252 193 182 61 c 0,9,10
 113 -69 113 -69 81 -98 c 2,11,-1
 51 -126 l 1,12,13
 44 -134 44 -134 36.5 -126 c 128,-1,14
 29 -118 29 -118 37 -111 c 2,15,-1
 67 -83 l 2,16,17
 96 -56 96 -56 163 71 c 1,18,19
 231 197 231 197 214 333 c 256,20,21
 197 469 197 469 151 536 c 0,22,23
 105 604 105 604 69 627 c 1,24,-1
 32 652 l 2,25,0
 23 657 23 657 28.5 666 c 128,-1,1
EndSplineSet
EndChar

StartChar: asterisk
Encoding: 42 42 13
Width: 379
Flags: W
LayerCount: 2
Fore
SplineSet
27.5 305.5 m 128,-1,1
 25 316 25 316 35 318 c 2,2,-1
 83 330 l 2,3,4
 105 335 105 335 128 342 c 1,5,6
 99 369 99 369 72 393 c 2,7,-1
 34 428 l 2,8,9
 26 435 26 435 33 442.5 c 128,-1,10
 40 450 40 450 48 443 c 2,11,-1
 86 408 l 1,12,13
 117 381 117 381 152 348 c 1,14,15
 153 349 153 349 155 349 c 1,16,17
 162 361 162 361 169 371 c 1,18,19
 163 403 163 403 157 428 c 0,20,21
 146 470 146 470 144 478 c 2,22,-1
 142 486 l 2,23,24
 139 496 139 496 149 499 c 128,-1,25
 159 502 159 502 162 492 c 2,26,-1
 164 484 l 2,27,28
 167 476 167 476 178 433 c 0,29,30
 182 416 182 416 186 395 c 1,31,32
 197 410 197 410 206 422 c 0,33,34
 231 453 231 453 242 465 c 2,35,-1
 253 477 l 2,36,37
 260 485 260 485 268 477.5 c 128,-1,38
 276 470 276 470 269 463 c 2,39,-1
 258 451 l 2,40,41
 247 439 247 439 223 409 c 0,42,43
 208 391 208 391 192 367 c 1,44,45
 192 364 192 364 193 361 c 1,46,47
 244 376 244 376 290 389 c 2,48,-1
 339 403 l 2,49,50
 349 406 349 406 352 396 c 128,-1,51
 355 386 355 386 345 383 c 2,52,-1
 296 369 l 2,53,54
 249 356 249 356 197 340 c 1,55,56
 197 334 197 334 199 328 c 1,57,58
 201 313 201 313 203 300 c 1,59,60
 228 277 228 277 248 258 c 2,61,-1
 281 228 l 2,62,63
 289 220 289 220 282 212.5 c 128,-1,64
 275 205 275 205 267 212 c 2,65,-1
 234 243 l 2,66,67
 222 253 222 253 208 266 c 1,68,69
 211 241 211 241 214 218 c 2,70,-1
 219 169 l 2,71,72
 220 159 220 159 209.5 158 c 128,-1,73
 199 157 199 157 198 167 c 2,74,-1
 193 215 l 2,75,76
 189 249 189 249 183 289 c 1,77,78
 171 301 171 301 157 314 c 1,79,80
 134 276 134 276 118 244 c 2,81,-1
 99 206 l 2,82,83
 94 197 94 197 85 201.5 c 128,-1,84
 76 206 76 206 80 215 c 2,85,-1
 100 254 l 2,86,87
 115 285 115 285 138 323 c 1,88,89
 112 315 112 315 88 309 c 2,90,-1
 40 298 l 2,91,0
 30 295 30 295 27.5 305.5 c 128,-1,1
176 334 m 1,92,93
 173 333 173 333 169 332 c 1,94,95
 170 331 170 331 170 331 c 2,96,97
 173 328 173 328 178 323 c 1,98,99
 178 323 178 323 178 324 c 0,100,101
 177 329 177 329 176 334 c 1,92,93
EndSplineSet
EndChar

StartChar: plus
Encoding: 43 43 14
Width: 487
Flags: W
LayerCount: 2
Fore
SplineSet
27 288.5 m 128,-1,1
 28 299 28 299 38 298 c 2,2,-1
 47 297 l 2,3,4
 56 296 56 296 128 299 c 0,5,6
 160 300 160 300 199 300 c 1,7,8
 201 376 201 376 201 440 c 2,9,-1
 202 506 l 2,10,11
 202 510 202 510 205 513 c 128,-1,12
 208 516 208 516 212 516 c 128,-1,13
 216 516 216 516 219.5 513 c 128,-1,14
 223 510 223 510 223 506 c 2,15,-1
 222 439 l 2,16,17
 222 376 222 376 220 300 c 1,18,19
 260 301 260 301 308 301 c 0,20,21
 414 300 414 300 432 300 c 2,22,-1
 450 299 l 2,23,24
 455 299 455 299 457.5 295.5 c 128,-1,25
 460 292 460 292 460 288 c 128,-1,26
 460 284 460 284 457 281 c 128,-1,27
 454 278 454 278 449 278 c 2,28,-1
 432 279 l 1,29,30
 414 279 414 279 308 280 c 0,31,32
 260 280 260 280 219 279 c 1,33,34
 218 209 218 209 228 139 c 1,35,-1
 238 61 l 2,36,37
 239 51 239 51 228.5 49.5 c 128,-1,38
 218 48 218 48 217 58 c 2,39,-1
 207 136 l 2,40,41
 197 207 197 207 198 279 c 1,42,43
 160 279 160 279 129 278 c 0,44,45
 55 275 55 275 46 276 c 2,46,-1
 37 277 l 2,47,0
 26 278 26 278 27 288.5 c 128,-1,1
EndSplineSet
EndChar

StartChar: comma
Encoding: 44 44 15
Width: 144
Flags: W
LayerCount: 2
Fore
SplineSet
94.5 70.5 m 128,-1,1
 104 74 104 74 108 65 c 2,2,-1
 115 46 l 2,3,4
 122 25 122 25 111.5 -11 c 128,-1,5
 101 -47 101 -47 71 -69 c 1,6,-1
 44 -90 l 2,7,8
 36 -97 36 -97 29.5 -88.5 c 128,-1,9
 23 -80 23 -80 31 -74 c 2,10,-1
 58 -53 l 2,11,12
 83 -34 83 -34 91.5 -5 c 128,-1,13
 100 24 100 24 95 39 c 2,14,-1
 88 57 l 2,15,0
 85 67 85 67 94.5 70.5 c 128,-1,1
EndSplineSet
EndChar

StartChar: hyphen
Encoding: 45 45 16
Width: 400
Flags: W
LayerCount: 2
Fore
SplineSet
27 281.5 m 128,-1,1
 28 292 28 292 39 291 c 2,2,-1
 99 284 l 2,3,4
 158 278 158 278 261 275 c 2,5,-1
 363 272 l 2,6,7
 368 272 368 272 371 268.5 c 128,-1,8
 374 265 374 265 373.5 261 c 128,-1,9
 373 257 373 257 370 254 c 128,-1,10
 367 251 367 251 363 251 c 2,11,-1
 260 254 l 2,12,13
 157 257 157 257 96 264 c 2,14,-1
 36 270 l 2,15,0
 26 271 26 271 27 281.5 c 128,-1,1
EndSplineSet
EndChar

StartChar: period
Encoding: 46 46 17
Width: 77
Flags: W
LayerCount: 2
Fore
SplineSet
30 81.5 m 128,-1,1
 37 89 37 89 45 82 c 2,2,-1
 48 79 l 2,3,4
 55 71 55 71 48 63.5 c 128,-1,5
 41 56 41 56 33 64 c 2,6,-1
 30 67 l 2,7,0
 23 74 23 74 30 81.5 c 128,-1,1
EndSplineSet
EndChar

StartChar: slash
Encoding: 47 47 18
Width: 377
Flags: W
LayerCount: 2
Fore
SplineSet
344.5 602 m 128,-1,1
 354 597 354 597 350 588 c 2,2,-1
 318 523 l 2,3,4
 286 459 286 459 242.5 362.5 c 128,-1,5
 199 266 199 266 130.5 101 c 128,-1,6
 62 -64 62 -64 55 -82 c 2,7,-1
 47 -101 l 2,8,9
 43 -110 43 -110 33.5 -106.5 c 128,-1,10
 24 -103 24 -103 28 -93 c 2,11,-1
 35 -74 l 1,12,13
 43 -56 43 -56 111.5 109 c 128,-1,14
 180 274 180 274 223.5 371 c 128,-1,15
 267 468 267 468 299 533 c 2,16,-1
 331 597 l 2,17,0
 335 607 335 607 344.5 602 c 128,-1,1
EndSplineSet
EndChar

StartChar: zero
Encoding: 48 48 19
Width: 493
Flags: W
LayerCount: 2
Fore
SplineSet
130 509 m 1,0,1
 128 496 128 496 117 448 c 0,2,3
 107 401 107 401 108 330 c 1,4,5
 110 260 110 260 140 188.5 c 128,-1,6
 170 117 170 117 211 74 c 1,7,8
 251 34 251 34 305 40 c 128,-1,9
 359 46 359 46 399 113 c 0,10,11
 440 181 440 181 445 256 c 0,12,13
 450 332 450 332 432 403 c 0,14,15
 415 474 415 474 382 520 c 0,16,17
 350 565 350 565 306 573 c 256,18,19
 262 581 262 581 192 547 c 0,20,21
 160 531 160 531 135 512 c 1,22,23
 132 511 132 511 130 509 c 1,0,1
104 485 m 1,24,25
 93 474 93 474 85 462 c 2,26,-1
 46 409 l 2,27,28
 40 400 40 400 31.5 406.5 c 128,-1,29
 23 413 23 413 29 421 c 2,30,-1
 68 474 l 2,31,32
 83 495 83 495 103 513 c 0,33,34
 106 516 106 516 110 520 c 0,35,36
 111 522 111 522 111 523 c 0,37,38
 112 531 112 531 113 540 c 2,39,-1
 115 559 l 2,40,41
 116 570 116 570 126.5 568.5 c 128,-1,42
 137 567 137 567 136 557 c 2,43,-1
 133 537 l 1,44,45
 156 553 156 553 183 566 c 0,46,47
 259 603 259 603 310 593 c 1,48,49
 362 584 362 584 399 532 c 0,50,51
 434 483 434 483 453 408 c 0,52,53
 471 334 471 334 466 255 c 0,54,55
 460 175 460 175 417 102 c 1,56,57
 371 27 371 27 307 19.5 c 128,-1,58
 243 12 243 12 196 60 c 0,59,60
 152 105 152 105 120.5 180 c 128,-1,61
 89 255 89 255 87 330 c 0,62,63
 86 403 86 403 97 453 c 0,64,65
 101 472 101 472 104 485 c 1,24,25
EndSplineSet
EndChar

StartChar: one
Encoding: 49 49 20
Width: 136
Flags: W
LayerCount: 2
Fore
SplineSet
37 649.5 m 128,-1,1
 41 650 41 650 44.5 647 c 128,-1,2
 48 644 48 644 48 639 c 2,3,-1
 48 626 l 1,4,5
 49 614 49 614 58 558 c 0,6,7
 69 496 69 496 77 437 c 256,8,9
 85 378 85 378 90 301 c 0,10,11
 94 226 94 226 98.5 168 c 128,-1,12
 103 110 103 110 106 85 c 1,13,14
 108 59 108 59 109 39 c 256,15,16
 110 19 110 19 110 4 c 2,17,-1
 110 -11 l 2,18,19
 110 -15 110 -15 106.5 -18.5 c 128,-1,20
 103 -22 103 -22 99 -22 c 128,-1,21
 95 -22 95 -22 92 -18.5 c 128,-1,22
 89 -15 89 -15 89 -11 c 2,23,-1
 89 4 l 2,24,25
 89 19 89 19 88 38 c 256,26,27
 87 57 87 57 85 82 c 0,28,29
 82 108 82 108 77.5 166 c 128,-1,30
 73 224 73 224 69 300 c 0,31,32
 65 375 65 375 56 434 c 0,33,34
 48 493 48 493 38 552 c 0,35,36
 28 612 28 612 27 626 c 1,37,-1
 27 639 l 2,38,39
 27 643 27 643 30 646 c 128,-1,0
 33 649 33 649 37 649.5 c 128,-1,1
EndSplineSet
EndChar

StartChar: two
Encoding: 50 50 21
Width: 466
Flags: W
LayerCount: 2
Fore
SplineSet
40.5 394 m 128,-1,1
 30 393 30 393 28 403 c 2,2,-1
 27 413 l 2,3,4
 26 425 26 425 44 467 c 0,5,6
 62 508 62 508 115 553 c 0,7,8
 170 599 170 599 209 586 c 0,9,10
 246 573 246 573 263 513 c 1,11,12
 278 455 278 455 255 380 c 0,13,14
 232 308 232 308 183 232 c 0,15,16
 135 158 135 158 103 105 c 0,17,18
 72 53 72 53 66 39 c 0,19,20
 65 37 65 37 65 35 c 1,21,22
 66 35 66 35 69 34 c 0,23,24
 82 30 82 30 144 30 c 256,25,26
 206 30 206 30 275 38 c 0,27,28
 345 47 345 47 377 48 c 0,29,30
 411 49 411 49 422 46 c 2,31,-1
 432 44 l 2,32,33
 442 41 442 41 439 31 c 128,-1,34
 436 21 436 21 426 23 c 1,35,-1
 417 26 l 2,36,37
 409 28 409 28 378 27 c 0,38,39
 346 26 346 26 277 17 c 1,40,41
 207 9 207 9 144 9 c 0,42,43
 79 9 79 9 63 14 c 1,44,45
 50 17 50 17 46 26 c 128,-1,46
 42 35 42 35 47 47 c 0,47,48
 53 62 53 62 85 116 c 0,49,50
 117 169 117 169 166 244 c 0,51,52
 213 317 213 317 235 387 c 0,53,54
 256 455 256 455 242 507 c 0,55,56
 229 557 229 557 202 566 c 0,57,58
 175 576 175 576 128 537 c 0,59,60
 79 495 79 495 63 458 c 0,61,62
 48 423 48 423 48 415 c 2,63,-1
 49 406 l 2,64,0
 51 395 51 395 40.5 394 c 128,-1,1
EndSplineSet
EndChar

StartChar: three
Encoding: 51 51 22
Width: 380
Flags: W
LayerCount: 2
Fore
SplineSet
32.5 493.5 m 128,-1,1
 23 498 23 498 28 507 c 2,2,-1
 34 520 l 2,3,4
 42 536 42 536 86 567 c 0,5,6
 130 599 130 599 182 598 c 0,7,8
 235 596 235 596 277 546 c 256,9,10
 319 496 319 496 305 430 c 0,11,12
 292 366 292 366 241 320 c 0,13,14
 224 304 224 304 211 293 c 1,15,16
 214 293 214 293 216 294 c 0,17,18
 270 302 270 302 306 276 c 1,19,20
 340 250 340 250 350 203 c 128,-1,21
 360 156 360 156 335 115 c 0,22,23
 311 74 311 74 243 48 c 0,24,25
 175 21 175 21 127 38 c 256,26,27
 79 55 79 55 61 100 c 1,28,-1
 44 140 l 2,29,30
 40 149 40 149 49.5 153 c 128,-1,31
 59 157 59 157 63 148 c 2,32,-1
 80 108 l 2,33,34
 95 73 95 73 134 58 c 1,35,36
 175 44 175 44 235 67 c 0,37,38
 297 91 297 91 317 126 c 1,39,40
 338 160 338 160 330 199 c 128,-1,41
 322 238 322 238 293 259 c 0,42,43
 265 280 265 280 219 273 c 0,44,45
 194 269 194 269 172 278 c 0,46,47
 158 283 158 283 172 290 c 0,48,49
 180 293 180 293 227 336 c 0,50,51
 273 377 273 377 285 434 c 0,52,53
 297 490 297 490 261 533 c 256,54,55
 225 576 225 576 181 577 c 256,56,57
 137 578 137 578 98 550 c 256,58,59
 59 522 59 522 53 511 c 2,60,-1
 47 498 l 2,61,0
 42 489 42 489 32.5 493.5 c 128,-1,1
EndSplineSet
EndChar

StartChar: four
Encoding: 52 52 23
Width: 476
Flags: W
LayerCount: 2
Fore
SplineSet
285.5 608 m 128,-1,1
 296 607 296 607 295 597 c 2,2,-1
 293 570 l 2,3,4
 291 545 291 545 287 483.5 c 128,-1,5
 283 422 283 422 281 314 c 0,6,7
 281 273 281 273 281 237 c 1,8,9
 291 238 291 238 299 239 c 0,10,11
 342 244 342 244 387 268 c 2,12,-1
 434 293 l 2,13,14
 443 298 443 298 448 288.5 c 128,-1,15
 453 279 453 279 444 274 c 2,16,-1
 397 249 l 2,17,18
 348 223 348 223 302 218 c 0,19,20
 292 217 292 217 282 216 c 1,21,22
 283 169 283 169 286 130 c 0,23,24
 293 53 293 53 293 22 c 2,25,-1
 294 -9 l 2,26,27
 294 -13 294 -13 291 -16.5 c 128,-1,28
 288 -20 288 -20 283.5 -20 c 128,-1,29
 279 -20 279 -20 276 -17 c 128,-1,30
 273 -14 273 -14 273 -9 c 2,31,-1
 272 21 l 1,32,33
 272 52 272 52 265 128 c 0,34,35
 262 168 262 168 261 215 c 1,36,37
 228 214 228 214 187 217 c 0,38,39
 116 221 116 221 73 239 c 0,40,41
 49 249 49 249 37 259 c 128,-1,42
 25 269 25 269 27 283 c 0,43,44
 30 300 30 300 55 336 c 1,45,46
 78 371 78 371 119 436 c 0,47,48
 160 502 160 502 206.5 560 c 128,-1,49
 253 618 253 618 260 625 c 2,50,-1
 267 632 l 2,51,52
 274 640 274 640 282 633 c 128,-1,53
 290 626 290 626 282 618 c 2,54,-1
 276 611 l 2,55,56
 269 604 269 604 223 547 c 128,-1,57
 177 490 177 490 136 425 c 0,58,59
 95 359 95 359 72 325 c 0,60,61
 50 292 50 292 48 279 c 0,62,63
 48 278 48 278 50.5 275.5 c 128,-1,64
 53 273 53 273 61.5 268 c 128,-1,65
 70 263 70 263 81 258 c 0,66,67
 121 242 121 242 188 238 c 0,68,69
 228 235 228 235 260 236 c 1,70,71
 260 273 260 273 260 315 c 0,72,73
 262 423 262 423 266 484.5 c 128,-1,74
 270 546 270 546 272 572 c 2,75,-1
 274 598 l 2,76,0
 275 609 275 609 285.5 608 c 128,-1,1
EndSplineSet
EndChar

StartChar: five
Encoding: 53 53 24
Width: 374
Flags: W
LayerCount: 2
Fore
SplineSet
336 637 m 128,-1,1
 340 627 340 627 331 623 c 2,2,-1
 308 613 l 2,3,4
 284 602 284 602 252 596 c 0,5,6
 221 591 221 591 174 588 c 0,7,8
 129 585 129 585 106 578 c 0,9,10
 87 573 87 573 74 526 c 0,11,12
 60 474 60 474 53 409 c 0,13,14
 46 346 46 346 49 331 c 1,15,16
 57 328 57 328 82 337 c 0,17,18
 126 353 126 353 179 356 c 0,19,20
 234 359 234 359 287 321 c 0,21,22
 339 283 339 283 346.5 219 c 128,-1,23
 354 155 354 155 309 106 c 0,24,25
 265 58 265 58 202.5 50.5 c 128,-1,26
 140 43 140 43 98 71.5 c 128,-1,27
 56 100 56 100 48 134 c 0,28,29
 40 165 40 165 40 179 c 2,30,-1
 40 191 l 2,31,32
 40 195 40 195 43 198.5 c 128,-1,33
 46 202 46 202 50.5 202 c 128,-1,34
 55 202 55 202 58 198.5 c 128,-1,35
 61 195 61 195 61 191 c 2,36,-1
 61 179 l 2,37,38
 61 167 61 167 68 139 c 0,39,40
 74 113 74 113 110 88.5 c 128,-1,41
 146 64 146 64 200 71 c 128,-1,42
 254 78 254 78 293 121 c 1,43,44
 332 162 332 162 326 217 c 0,45,46
 320 270 320 270 274 304 c 0,47,48
 228 337 228 337 180 335 c 0,49,50
 130 333 130 333 89 318 c 0,51,52
 36 298 36 298 29 325 c 0,53,54
 24 343 24 343 32 411 c 0,55,56
 39 478 39 478 54 532 c 0,57,58
 70 590 70 590 100 598 c 1,59,60
 126 606 126 606 173 609 c 0,61,62
 218 612 218 612 248 617 c 256,63,64
 278 622 278 622 299 632 c 2,65,-1
 322 642 l 2,66,0
 332 647 332 647 336 637 c 128,-1,1
EndSplineSet
EndChar

StartChar: six
Encoding: 54 54 25
Width: 460
Flags: W
LayerCount: 2
Fore
SplineSet
68 183 m 2,0,1
 68 182 68 182 68 181 c 0,2,3
 79 146 79 146 99 120 c 1,4,5
 135 70 135 70 201 56 c 0,6,7
 268 41 268 41 327 67 c 128,-1,8
 386 93 386 93 404 121 c 0,9,10
 421 148 421 148 405 195 c 256,11,12
 389 242 389 242 342 266 c 256,13,14
 295 290 295 290 205 266 c 0,15,16
 115 243 115 243 81 200 c 2,17,-1
 68 183 l 2,0,1
52 163 m 1,18,-1
 46 155 l 2,19,20
 39 147 39 147 31 153.5 c 128,-1,21
 23 160 23 160 29 168 c 2,22,-1
 44 186 l 2,23,24
 44 187 44 187 44 187 c 129,-1,25
 44 187 44 187 45 188 c 1,26,27
 44 190 44 190 44 191 c 0,28,29
 37 220 37 220 34 254 c 0,30,31
 28 344 28 344 51 412 c 256,32,33
 74 480 74 480 107 522 c 0,34,35
 141 565 141 565 206 592 c 0,36,37
 270 619 270 619 305 625 c 2,38,-1
 339 631 l 2,39,40
 350 633 350 633 351.5 623 c 128,-1,41
 353 613 353 613 343 611 c 2,42,-1
 309 605 l 2,43,44
 276 599 276 599 214 573 c 0,45,46
 154 547 154 547 124 509 c 0,47,48
 93 470 93 470 71 405 c 0,49,50
 49 341 49 341 55 255 c 0,51,52
 57 231 57 231 61 209 c 1,53,-1
 65 213 l 1,54,55
 103 261 103 261 200 287 c 0,56,57
 297 312 297 312 351 285 c 0,58,59
 406 257 406 257 424 202 c 1,60,61
 444 146 444 146 421 110 c 0,62,63
 400 76 400 76 335 47.5 c 128,-1,64
 270 19 270 19 197 35 c 0,65,66
 123 52 123 52 82 107 c 0,67,68
 64 131 64 131 52 163 c 1,18,-1
EndSplineSet
EndChar

StartChar: seven
Encoding: 55 55 26
Width: 371
Flags: W
LayerCount: 2
Fore
SplineSet
27 613 m 128,-1,1
 26 623 26 623 37 624 c 2,2,-1
 111 630 l 1,3,4
 186 635 186 635 251 633 c 0,5,6
 320 631 320 631 334 616 c 0,7,8
 349 601 349 601 341 543 c 0,9,10
 333 489 333 489 295 399 c 0,11,12
 258 310 258 310 229 239 c 0,13,14
 200 169 200 169 185 101 c 256,15,16
 170 33 170 33 171 1 c 256,17,18
 172 -31 172 -31 174 -41 c 1,19,-1
 175 -53 l 1,20,21
 177 -63 177 -63 166.5 -64.5 c 128,-1,22
 156 -66 156 -66 154 -56 c 1,23,-1
 153 -45 l 2,24,25
 151 -33 151 -33 150 1 c 256,26,27
 149 35 149 35 165 105 c 0,28,29
 180 175 180 175 210 247 c 0,30,31
 239 318 239 318 276 407 c 0,32,33
 313 494 313 494 320 546 c 0,34,35
 327 594 327 594 319 602 c 256,36,37
 311 610 311 610 250 612 c 0,38,39
 186 614 186 614 113 609 c 2,40,-1
 38 603 l 2,41,0
 28 603 28 603 27 613 c 128,-1,1
EndSplineSet
EndChar

StartChar: eight
Encoding: 56 56 27
Width: 457
Flags: W
LayerCount: 2
Fore
SplineSet
199 325 m 1,0,1
 161 280 161 280 143 247 c 0,2,3
 112 190 112 190 116 156 c 0,4,5
 120 124 120 124 162 96 c 1,6,7
 206 68 206 68 256 76 c 256,8,9
 306 84 306 84 346 126 c 0,10,11
 384 167 384 167 374 204 c 0,12,13
 363 243 363 243 322.5 278 c 128,-1,14
 282 313 282 313 219 322 c 0,15,16
 209 323 209 323 199 325 c 1,0,1
191 348 m 1,17,18
 218 379 218 379 253 413 c 0,19,20
 348 508 348 508 381 536 c 2,21,-1
 414 564 l 2,22,23
 422 571 422 571 428.5 563 c 128,-1,24
 435 555 435 555 427 548 c 2,25,-1
 395 520 l 2,26,27
 362 492 362 492 268 399 c 0,28,29
 238 369 238 369 215 343 c 1,30,31
 219 343 219 343 222 342 c 0,32,33
 291 333 291 333 336.5 294 c 128,-1,34
 382 255 382 255 394 209 c 0,35,36
 407 161 407 161 361 112 c 0,37,38
 316 64 316 64 259 55 c 0,39,40
 201 46 201 46 151 79 c 0,41,42
 100 112 100 112 95 154 c 0,43,44
 91 194 91 194 124 257 c 0,45,46
 141 289 141 289 175 329 c 1,47,48
 131 340 131 340 90 358 c 0,49,50
 24 387 24 387 27 436 c 0,51,52
 30 483 30 483 82 533 c 0,53,54
 133 583 133 583 201 598 c 256,55,56
 269 613 269 613 329 604 c 2,57,-1
 388 596 l 2,58,59
 398 594 398 594 396.5 583.5 c 128,-1,60
 395 573 395 573 384 575 c 2,61,-1
 326 584 l 2,62,63
 269 592 269 592 206 578 c 256,64,65
 143 564 143 564 96 518 c 0,66,67
 50 473 50 473 48 435 c 0,68,69
 46 400 46 400 99 377 c 1,70,71
 142 357 142 357 191 348 c 1,17,18
EndSplineSet
EndChar

StartChar: nine
Encoding: 57 57 28
Width: 383
Flags: W
LayerCount: 2
Fore
SplineSet
300.5 509.5 m 128,-1,1
 293 502 293 502 286 510 c 2,2,-1
 265 532 l 2,3,4
 246 553 246 553 216 569 c 0,5,6
 187 584 187 584 168 583 c 0,7,8
 148 581 148 581 114.5 557.5 c 128,-1,9
 81 534 81 534 63 494 c 256,10,11
 45 454 45 454 49 414 c 0,12,13
 53 373 53 373 72 346 c 1,14,15
 89 320 89 320 130 314 c 1,16,17
 172 309 172 309 211 331 c 256,18,19
 250 353 250 353 270 388 c 0,20,21
 291 424 291 424 299 453 c 0,22,23
 306 482 306 482 308 496 c 0,24,25
 309 510 309 510 315 514 c 0,26,27
 321 517 321 517 325 515.5 c 128,-1,28
 329 514 329 514 331 510 c 2,29,-1
 333 507 l 1,30,31
 337 498 337 498 341 477 c 0,32,33
 346 456 346 456 349 432 c 256,34,35
 352 408 352 408 354.5 369 c 128,-1,36
 357 330 357 330 357 293 c 0,37,38
 356 255 356 255 348 221 c 0,39,40
 340 186 340 186 321 156 c 1,41,42
 303 125 303 125 277 104 c 0,43,44
 251 84 251 84 217 70.5 c 128,-1,45
 183 57 183 57 149.5 54 c 128,-1,46
 116 51 116 51 90 57 c 0,47,48
 65 63 65 63 49 69 c 2,49,-1
 34 75 l 2,50,51
 25 78 25 78 28.5 88 c 128,-1,52
 32 98 32 98 42 94 c 2,53,-1
 57 88 l 2,54,55
 71 83 71 83 95 77 c 0,56,57
 117 72 117 72 147.5 75 c 128,-1,58
 178 78 178 78 209 90 c 128,-1,59
 240 102 240 102 264 121 c 0,60,61
 287 139 287 139 303 166 c 0,62,63
 320 194 320 194 328 226 c 0,64,65
 335 258 335 258 336 293 c 1,66,67
 336 329 336 329 333.5 367.5 c 128,-1,68
 331 406 331 406 328 430 c 0,69,70
 326 448 326 448 323 464 c 1,71,72
 321 456 321 456 319 447 c 0,73,74
 311 416 311 416 289 377 c 1,75,76
 265 338 265 338 221 312 c 1,77,78
 176 287 176 287 127 294 c 1,79,80
 77 300 77 300 54 334 c 0,81,82
 33 366 33 366 28 412 c 256,83,84
 23 458 23 458 43.5 502.5 c 128,-1,85
 64 547 64 547 102 575 c 1,86,87
 141 602 141 602 166 604 c 1,88,89
 192 605 192 605 225 587 c 1,90,91
 259 570 259 570 281 547 c 1,92,-1
 301 524 l 2,93,0
 308 517 308 517 300.5 509.5 c 128,-1,1
EndSplineSet
EndChar

StartChar: colon
Encoding: 58 58 29
Width: 110
Flags: W
LayerCount: 2
Fore
SplineSet
62.5 53 m 128,-1,1
 70 60 70 60 78 53 c 2,2,-1
 81 50 l 2,3,4
 88 42 88 42 80.5 35 c 128,-1,5
 73 28 73 28 66 35 c 2,6,-1
 63 38 l 2,7,0
 55 46 55 46 62.5 53 c 128,-1,1
30 442.5 m 128,-1,9
 37 450 37 450 45 442 c 2,10,-1
 48 439 l 2,11,12
 55 432 55 432 48 424.5 c 128,-1,13
 41 417 41 417 33 424 c 2,14,-1
 30 427 l 2,15,8
 23 435 23 435 30 442.5 c 128,-1,9
EndSplineSet
EndChar

StartChar: semicolon
Encoding: 59 59 30
Width: 134
Flags: W
LayerCount: 2
Fore
SplineSet
94.5 95 m 128,-1,1
 99 95 99 95 102 92.5 c 128,-1,2
 105 90 105 90 105 85 c 2,3,-1
 107 42 l 2,4,5
 110 -5 110 -5 77 -51 c 2,6,-1
 46 -94 l 2,7,8
 40 -102 40 -102 31.5 -96 c 128,-1,9
 23 -90 23 -90 29 -82 c 2,10,-1
 60 -39 l 2,11,12
 88 1 88 1 86 41 c 2,13,-1
 84 84 l 2,14,15
 84 89 84 89 87 92 c 128,-1,0
 90 95 90 95 94.5 95 c 128,-1,1
46.5 464.5 m 128,-1,17
 54 472 54 472 62 464 c 2,18,-1
 65 461 l 2,19,20
 72 454 72 454 64.5 446.5 c 128,-1,21
 57 439 57 439 50 446 c 2,22,-1
 47 449 l 2,23,16
 39 457 39 457 46.5 464.5 c 128,-1,17
EndSplineSet
EndChar

StartChar: less
Encoding: 60 60 31
Width: 371
Flags: W
LayerCount: 2
Fore
SplineSet
310 387 m 128,-1,1
 313 377 313 377 303 374 c 2,2,-1
 295 372 l 2,3,4
 289 370 289 370 253 352 c 0,5,6
 218 334 218 334 160.5 295 c 128,-1,7
 103 256 103 256 73 232 c 0,8,9
 47 210 47 210 48 194 c 0,10,11
 48 190 48 190 53.5 184.5 c 128,-1,12
 59 179 59 179 73 170 c 128,-1,13
 87 161 87 161 108 152 c 0,14,15
 171 122 171 122 233 94 c 1,16,17
 294 64 294 64 317 50 c 2,18,-1
 340 36 l 2,19,20
 349 30 349 30 343.5 21 c 128,-1,21
 338 12 338 12 329 18 c 2,22,-1
 306 32 l 2,23,24
 284 46 284 46 224 75 c 1,25,26
 163 103 163 103 99 132 c 0,27,28
 64 148 64 148 46 162 c 128,-1,29
 28 176 28 176 27 192 c 0,30,31
 25 219 25 219 60 248 c 0,32,33
 91 273 91 273 149 312.5 c 128,-1,34
 207 352 207 352 244 371 c 256,35,36
 281 390 281 390 289 392 c 2,37,-1
 297 394 l 2,38,0
 307 397 307 397 310 387 c 128,-1,1
EndSplineSet
EndChar

StartChar: equal
Encoding: 61 61 32
Width: 538
Flags: W
LayerCount: 2
Fore
SplineSet
79 208.5 m 128,-1,1
 79 213 79 213 82.5 216 c 128,-1,2
 86 219 86 219 90 219 c 2,3,-1
 111 218 l 2,4,5
 132 218 132 218 191.5 219 c 128,-1,6
 251 220 251 220 365.5 225 c 128,-1,7
 480 230 480 230 491 231 c 1,8,-1
 501 231 l 2,9,10
 505 231 505 231 508.5 228 c 128,-1,11
 512 225 512 225 512 221 c 128,-1,12
 512 217 512 217 509 213.5 c 128,-1,13
 506 210 506 210 502 210 c 2,14,-1
 491 210 l 1,15,16
 481 209 481 209 366 204 c 128,-1,17
 251 199 251 199 191.5 198 c 128,-1,18
 132 197 132 197 110 197 c 1,19,-1
 90 198 l 2,20,21
 85 198 85 198 82 201 c 128,-1,0
 79 204 79 204 79 208.5 c 128,-1,1
27 404.5 m 128,-1,23
 28 415 28 415 39 414 c 2,24,-1
 60 412 l 2,25,26
 82 410 82 410 155 406 c 0,27,28
 227 402 227 402 311 393 c 1,29,30
 394 383 394 383 414 384 c 2,31,-1
 435 385 l 2,32,33
 439 385 439 385 442.5 382 c 128,-1,34
 446 379 446 379 446 374.5 c 128,-1,35
 446 370 446 370 443 367 c 128,-1,36
 440 364 440 364 436 364 c 2,37,-1
 415 363 l 2,38,39
 393 362 393 362 308 372 c 0,40,41
 225 381 225 381 154 385 c 0,42,43
 80 389 80 389 58 391 c 2,44,-1
 36 393 l 2,45,22
 26 394 26 394 27 404.5 c 128,-1,23
EndSplineSet
EndChar

StartChar: greater
Encoding: 62 62 33
Width: 324
Flags: W
LayerCount: 2
Fore
SplineSet
28 399 m 128,-1,1
 31 409 31 409 41 405 c 2,2,-1
 74 395 l 2,3,4
 107 385 107 385 148.5 368 c 128,-1,5
 190 351 190 351 235 330 c 0,6,7
 281 308 281 308 291 299 c 0,8,9
 297 293 297 293 297.5 286.5 c 128,-1,10
 298 280 298 280 293.5 271 c 128,-1,11
 289 262 289 262 284.5 256 c 128,-1,12
 280 250 280 250 272 239 c 0,13,14
 242 202 242 202 198 167 c 0,15,16
 156 134 156 134 107.5 89 c 128,-1,17
 59 44 59 44 52 37 c 2,18,-1
 45 29 l 2,19,20
 38 21 38 21 30.5 28 c 128,-1,21
 23 35 23 35 30 43 c 2,22,-1
 37 50 l 1,23,24
 44 59 44 59 93 104.5 c 128,-1,25
 142 150 142 150 185 184 c 0,26,27
 227 217 227 217 256 252 c 0,28,29
 274 275 274 275 276 284 c 1,30,31
 265 293 265 293 226 311 c 0,32,33
 181 332 181 332 140.5 348.5 c 128,-1,34
 100 365 100 365 68 375 c 2,35,-1
 35 385 l 2,36,0
 25 389 25 389 28 399 c 128,-1,1
EndSplineSet
EndChar

StartChar: question
Encoding: 63 63 34
Width: 279
Flags: W
LayerCount: 2
Fore
SplineSet
179 31 m 1,0,-1
 187 29 l 2,1,2
 193 27 193 27 193.5 27 c 128,-1,3
 194 27 194 27 195 29.5 c 128,-1,4
 196 32 196 32 196 33 c 1,5,6
 195 33 195 33 194 34 c 0,7,8
 187 36 187 36 183 33 c 2,9,-1
 179 31 l 1,0,-1
159 33 m 1,10,11
 156 41 156 41 163 45 c 1,12,-1
 171 51 l 2,13,14
 183 59 183 59 200 54 c 1,15,16
 210 50 210 50 214 41.5 c 128,-1,17
 218 33 218 33 215 23 c 0,18,19
 211 11 211 11 200.5 7.5 c 128,-1,20
 190 4 190 4 179 9 c 1,21,-1
 162 15 l 2,22,23
 152 19 152 19 156 29 c 0,24,25
 157 31 157 31 159 33 c 1,10,11
42.5 430 m 128,-1,27
 32 429 32 429 31 439 c 2,28,-1
 27 482 l 2,29,30
 23 529 23 529 62 575 c 256,31,32
 101 621 101 621 154 613 c 0,33,34
 205 605 205 605 232 572 c 0,35,36
 259 538 259 538 251 476 c 0,37,38
 243 416 243 416 210 377 c 0,39,40
 179 339 179 339 157 319 c 1,41,42
 140 302 140 302 143 234 c 0,43,44
 146 163 146 163 150 145 c 1,45,-1
 153 126 l 2,46,47
 155 116 155 116 145 114 c 128,-1,48
 135 112 135 112 133 122 c 2,49,-1
 129 141 l 2,50,51
 125 161 125 161 122 233 c 0,52,53
 118 310 118 310 143 334 c 0,54,55
 164 354 164 354 194 390 c 0,56,57
 223 425 223 425 230 479 c 0,58,59
 237 532 237 532 215 559 c 256,60,61
 193 586 193 586 151 593 c 0,62,63
 110 599 110 599 78 561 c 0,64,65
 45 522 45 522 48 484 c 2,66,-1
 52 441 l 2,67,26
 53 431 53 431 42.5 430 c 128,-1,27
EndSplineSet
EndChar

StartChar: at
Encoding: 64 64 35
Width: 636
Flags: W
LayerCount: 2
Fore
SplineSet
438.5 325 m 128,-1,1
 432 317 432 317 423 323 c 1,2,-1
 415 330 l 2,3,4
 408 336 408 336 368 349 c 0,5,6
 330 361 330 361 292 334 c 0,7,8
 251 306 251 306 224 255 c 0,9,10
 198 204 198 204 207 148 c 0,11,12
 216 96 216 96 239 93 c 0,13,14
 265 90 265 90 316 130 c 0,15,16
 367 171 367 171 382 221 c 0,17,18
 397 274 397 274 399 299 c 1,19,20
 392 318 392 318 409 320 c 0,21,22
 416 320 416 320 419.5 315.5 c 128,-1,23
 423 311 423 311 423.5 305.5 c 128,-1,24
 424 300 424 300 423.5 292 c 128,-1,25
 423 284 423 284 423 283 c 0,26,27
 426 241 426 241 442 186 c 1,28,29
 459 134 459 134 488 114 c 0,30,31
 514 97 514 97 544 125 c 1,32,33
 577 158 577 158 585 222 c 0,34,35
 594 289 594 289 577 355 c 0,36,37
 561 420 561 420 505 475 c 256,38,39
 449 530 449 530 381 535 c 1,40,41
 312 539 312 539 254 511 c 0,42,43
 195 483 195 483 136 416 c 128,-1,44
 77 349 77 349 57 277 c 0,45,46
 38 206 38 206 58.5 126.5 c 128,-1,47
 79 47 79 47 138 -11 c 1,48,49
 196 -70 196 -70 299 -75 c 0,50,51
 402 -81 402 -81 490 -3 c 2,52,-1
 581 77 l 2,53,54
 588 84 588 84 595 76.5 c 128,-1,55
 602 69 602 69 595 62 c 2,56,-1
 503 -19 l 2,57,58
 409 -103 409 -103 298 -96 c 1,59,60
 186 -90 186 -90 123 -26 c 0,61,62
 61 37 61 37 38.5 122 c 128,-1,63
 16 207 16 207 37 283 c 256,64,65
 58 359 58 359 120 430 c 128,-1,66
 182 501 182 501 244 530 c 1,67,68
 307 561 307 561 382 556 c 0,69,70
 458 551 458 551 519 490 c 1,71,72
 580 431 580 431 598 360 c 0,73,74
 615 290 615 290 606 220 c 0,75,76
 597 148 597 148 558 110 c 0,77,78
 516 70 516 70 476 97 c 0,79,80
 441 121 441 121 422 180 c 0,81,82
 413 210 413 210 408 237 c 1,83,84
 405 226 405 226 402 216 c 0,85,86
 386 159 386 159 329 114 c 0,87,88
 271 68 271 68 236 73 c 0,89,90
 198 78 198 78 187 145 c 0,91,92
 176 208 176 208 206 264 c 0,93,94
 235 320 235 320 280 352 c 0,95,96
 327 385 327 385 374 369 c 0,97,98
 418 354 418 354 428 347 c 1,99,-1
 436 340 l 2,100,0
 445 333 445 333 438.5 325 c 128,-1,1
EndSplineSet
EndChar

StartChar: A
Encoding: 65 65 36
Width: 509
Flags: W
LayerCount: 2
Fore
SplineSet
33.5 17 m 128,-1,1
 24 21 24 21 28 31 c 2,2,-1
 38 56 l 1,3,4
 49 80 49 80 68.5 134 c 128,-1,5
 88 188 88 188 110 254.5 c 128,-1,6
 132 321 132 321 152.5 388 c 128,-1,7
 173 455 173 455 188.5 505 c 128,-1,8
 204 555 204 555 211 578 c 256,9,10
 218 601 218 601 221 610 c 0,11,12
 231 638 231 638 263 585 c 0,13,14
 285 550 285 550 308 497 c 128,-1,15
 331 444 331 444 356 372 c 128,-1,16
 381 300 381 300 398 254 c 0,17,18
 399 252 399 252 399 251 c 1,19,20
 421 255 421 255 432 259 c 2,21,-1
 463 268 l 2,22,23
 473 271 473 271 476 261 c 128,-1,24
 479 251 479 251 469 248 c 2,25,-1
 438 239 l 2,26,27
 427 235 427 235 407 231 c 1,28,29
 420 197 420 197 437 164 c 0,30,31
 460 118 460 118 468 100 c 256,32,33
 476 82 476 82 479 73 c 2,34,-1
 482 65 l 2,35,36
 486 55 486 55 476 51.5 c 128,-1,37
 466 48 466 48 463 58 c 2,38,-1
 460 66 l 2,39,40
 457 74 457 74 449 92 c 128,-1,41
 441 110 441 110 418 155 c 0,42,43
 400 190 400 190 386 226 c 1,44,45
 357 220 357 220 314 213 c 0,46,47
 222 196 222 196 167 184 c 1,48,-1
 111 173 l 2,49,50
 108 172 108 172 105 173 c 1,51,52
 96 149 96 149 88 127 c 0,53,54
 68 73 68 73 58 47 c 1,55,-1
 47 23 l 2,56,0
 43 13 43 13 33.5 17 c 128,-1,1
112 194 m 1,57,-1
 162 205 l 2,58,59
 218 217 218 217 311 233 c 0,60,61
 350 240 350 240 379 246 c 1,62,63
 379 246 379 246 378 247 c 0,64,65
 362 293 362 293 337 365 c 0,66,67
 312 436 312 436 289 488 c 256,68,69
 266 540 266 540 245 574 c 0,70,71
 241 582 241 582 236 588 c 1,72,73
 234 581 234 581 231 572 c 0,74,75
 224 549 224 549 208.5 499 c 128,-1,76
 193 449 193 449 172.5 381.5 c 128,-1,77
 152 314 152 314 130 248 c 0,78,79
 121 220 121 220 112 194 c 1,57,-1
EndSplineSet
EndChar

StartChar: B
Encoding: 66 66 37
Width: 470
Flags: W
LayerCount: 2
Fore
SplineSet
235 340 m 1,0,1
 194 340 194 340 159 321 c 0,2,3
 145 313 145 313 135 307 c 1,4,5
 139 307 139 307 140 308 c 0,6,7
 163 309 163 309 217 332 c 0,8,9
 226 336 226 336 235 340 c 1,0,1
66.5 572.5 m 128,-1,11
 60 581 60 581 68 587 c 2,12,-1
 87 601 l 2,13,14
 107 616 107 616 168 638 c 0,15,16
 231 661 231 661 280 652 c 0,17,18
 330 643 330 643 352.5 620.5 c 128,-1,19
 375 598 375 598 386 552.5 c 128,-1,20
 397 507 397 507 384 466 c 0,21,22
 371 426 371 426 327 381 c 0,23,24
 313 367 313 367 297 355 c 1,25,26
 314 351 314 351 330 344 c 1,27,28
 374 328 374 328 400 298 c 0,29,30
 426 269 426 269 436 237 c 0,31,32
 447 205 447 205 442 163 c 0,33,34
 436 121 436 121 392 74 c 0,35,36
 348 28 348 28 302 14 c 256,37,38
 256 0 256 0 207 7 c 0,39,40
 160 14 160 14 96 45 c 1,41,-1
 94 45 l 1,42,43
 93 38 93 38 85 38 c 1,44,45
 75 36 75 36 74 47 c 2,46,-1
 73 56 l 1,47,-1
 33 75 l 2,48,49
 23 80 23 80 28 89.5 c 128,-1,50
 33 99 33 99 42 94 c 2,51,-1
 70 80 l 1,52,53
 67 110 67 110 57 176 c 0,54,55
 47 248 47 248 43.5 330 c 128,-1,56
 40 412 40 412 41 477 c 256,57,58
 42 542 42 542 43 555 c 1,59,-1
 43 568 l 2,60,61
 43 572 43 572 46.5 575 c 128,-1,62
 50 578 50 578 54 578 c 128,-1,63
 58 578 58 578 61 574.5 c 128,-1,64
 64 571 64 571 64 567 c 2,65,-1
 64 554 l 1,66,67
 63 542 63 542 62 477 c 256,68,69
 61 412 61 412 64 331 c 0,70,71
 68 250 68 250 78 179 c 0,72,73
 89 107 89 107 92 78 c 2,74,-1
 93 70 l 1,75,-1
 105 64 l 2,76,77
 166 34 166 34 210 27 c 0,78,79
 254 21 254 21 295 34 c 0,80,81
 336 46 336 46 377 89 c 0,82,83
 416 130 416 130 421 166 c 256,84,85
 426 202 426 202 416 230 c 0,86,87
 407 258 407 258 384 284 c 0,88,89
 362 310 362 310 322 325 c 0,90,91
 301 333 301 333 278 337 c 0,92,93
 276 337 276 337 273 338 c 1,94,95
 268 334 268 334 263 332 c 0,96,97
 245 321 245 321 225 312 c 0,98,99
 168 288 168 288 141 287 c 0,100,101
 135 287 135 287 127 286.5 c 128,-1,102
 119 286 119 286 112.5 289.5 c 128,-1,103
 106 293 106 293 105 301 c 0,104,105
 105 305 105 305 105.5 308 c 128,-1,106
 106 311 106 311 109 314 c 128,-1,107
 112 317 112 317 114 319.5 c 128,-1,108
 116 322 116 322 121.5 325 c 128,-1,109
 127 328 127 328 130 329.5 c 128,-1,110
 133 331 133 331 139.5 334.5 c 128,-1,111
 146 338 146 338 149 339 c 0,112,113
 191 361 191 361 239 361 c 0,114,115
 247 361 247 361 255 361 c 1,116,117
 261 360 261 360 268 359 c 1,118,119
 271 362 271 362 273 363 c 0,120,121
 294 378 294 378 312 396 c 0,122,123
 352 437 352 437 364 473 c 0,124,125
 376 508 376 508 366 547.5 c 128,-1,126
 356 587 356 587 337.5 605 c 128,-1,127
 319 623 319 623 276 631 c 256,128,129
 233 639 233 639 176 619 c 0,130,131
 117 598 117 598 100 584 c 1,132,-1
 81 570 l 2,133,10
 73 564 73 564 66.5 572.5 c 128,-1,11
EndSplineSet
EndChar

StartChar: C
Encoding: 67 67 38
Width: 540
Flags: W
LayerCount: 2
Fore
SplineSet
454 423 m 128,-1,1
 444 419 444 419 440 429 c 2,2,-1
 435 443 l 2,3,4
 429 457 429 457 417 493 c 0,5,6
 405 527 405 527 377 556 c 1,7,8
 351 585 351 585 301.5 596 c 128,-1,9
 252 607 252 607 209 590 c 0,10,11
 165 572 165 572 129 535 c 0,12,13
 93 497 93 497 72.5 454 c 128,-1,14
 52 411 52 411 48.5 369 c 128,-1,15
 45 327 45 327 62 275 c 0,16,17
 79 222 79 222 110 166 c 0,18,19
 141 111 141 111 172.5 85.5 c 128,-1,20
 204 60 204 60 241 47 c 1,21,22
 277 36 277 36 327 60 c 0,23,24
 378 85 378 85 417 139 c 0,25,26
 457 194 457 194 475 243 c 2,27,-1
 493 294 l 2,28,29
 497 304 497 304 507 300.5 c 128,-1,30
 517 297 517 297 513 287 c 2,31,-1
 495 236 l 2,32,33
 476 184 476 184 434 126 c 256,34,35
 392 68 392 68 336 41 c 0,36,37
 279 13 279 13 235 28 c 1,38,39
 193 41 193 41 158.5 69 c 128,-1,40
 124 97 124 97 92 156 c 1,41,42
 59 214 59 214 42 269 c 0,43,44
 24 325 24 325 27.5 370.5 c 128,-1,45
 31 416 31 416 53 462.5 c 128,-1,46
 75 509 75 509 114 550 c 0,47,48
 153 590 153 590 201 609 c 0,49,50
 250 629 250 629 306 616.5 c 128,-1,51
 362 604 362 604 393 570 c 0,52,53
 423 538 423 538 436 500 c 0,54,55
 449 465 449 465 454 451 c 2,56,-1
 460 437 l 2,57,0
 464 427 464 427 454 423 c 128,-1,1
EndSplineSet
EndChar

StartChar: D
Encoding: 68 68 39
Width: 537
Flags: W
LayerCount: 2
Fore
SplineSet
79 549 m 0,0,1
 76 560 76 560 86 563 c 2,2,-1
 90 564 l 1,3,4
 94 569 94 569 100 568 c 0,5,6
 101 568 101 568 102 567 c 1,7,-1
 135 577 l 2,8,9
 185 592 185 592 240 596 c 0,10,11
 297 600 297 600 363 574 c 0,12,13
 431 547 431 547 469 479 c 0,14,15
 507 412 507 412 510 342 c 256,16,17
 513 272 513 272 487.5 203.5 c 128,-1,18
 462 135 462 135 413 85 c 256,19,20
 364 35 364 35 298.5 17.5 c 128,-1,21
 233 0 233 0 165 21 c 0,22,23
 140 29 140 29 120 36 c 1,24,25
 121 28 121 28 120 24 c 1,26,-1
 120 16 l 2,27,28
 120 11 120 11 116.5 8 c 128,-1,29
 113 5 113 5 109 5.5 c 128,-1,30
 105 6 105 6 102 9 c 128,-1,31
 99 12 99 12 99 16 c 2,32,-1
 99 25 l 1,33,34
 100 29 100 29 98 45 c 1,35,36
 78 54 78 54 64 64 c 2,37,-1
 32 85 l 2,38,39
 23 91 23 91 29 99.5 c 128,-1,40
 35 108 35 108 43 103 c 2,41,-1
 76 81 l 2,42,43
 84 75 84 75 96 70 c 1,44,45
 96 75 96 75 95 80 c 0,46,47
 90 128 90 128 83 216 c 256,48,49
 76 304 76 304 77 391 c 0,50,51
 78 479 78 479 83 519 c 2,52,-1
 86 543 l 1,53,54
 81 544 81 544 79 549 c 0,0,1
118 60 m 1,55,56
 141 50 141 50 171 41 c 0,57,58
 234 22 234 22 293.5 38 c 128,-1,59
 353 54 353 54 398 100 c 0,60,61
 444 147 444 147 468 211 c 128,-1,62
 492 275 492 275 489 341 c 0,63,64
 486 406 486 406 451 469 c 0,65,66
 416 530 416 530 355 554 c 0,67,68
 293 579 293 579 242 575 c 0,69,70
 189 571 189 571 141 557 c 2,71,-1
 108 547 l 1,72,-1
 104 516 l 2,73,74
 99 477 99 477 98 391 c 128,-1,75
 97 305 97 305 104 217 c 0,76,77
 111 130 111 130 116 82 c 0,78,79
 117 69 117 69 118 60 c 1,55,56
EndSplineSet
EndChar

StartChar: E
Encoding: 69 69 40
Width: 521
Flags: W
LayerCount: 2
Fore
SplineSet
27 562.5 m 128,-1,1
 26 573 26 573 36 574 c 2,2,-1
 43 575 l 2,3,4
 49 576 49 576 104 582 c 0,5,6
 160 588 160 588 214 593 c 128,-1,7
 268 598 268 598 360 605 c 0,8,9
 452 613 452 613 467 615 c 2,10,-1
 482 618 l 2,11,12
 492 619 492 619 494 608.5 c 128,-1,13
 496 598 496 598 485 597 c 1,14,-1
 470 594 l 1,15,16
 454 592 454 592 362 584 c 0,17,18
 270 577 270 577 216 572 c 128,-1,19
 162 567 162 567 106.5 561 c 128,-1,20
 51 555 51 555 45 554 c 2,21,-1
 39 553 l 2,22,0
 28 552 28 552 27 562.5 c 128,-1,1
73.5 543.5 m 128,-1,24
 78 543 78 543 81 540 c 128,-1,25
 84 537 84 537 83 532 c 2,26,-1
 81 490 l 2,27,28
 79 447 79 447 80 364 c 0,29,30
 80 357 80 357 80 348 c 1,31,32
 84 351 84 351 88 350 c 2,33,-1
 103 348 l 2,34,35
 118 346 118 346 159 346 c 256,36,37
 200 346 200 346 263 347 c 0,38,39
 324 348 324 348 338 353 c 2,40,-1
 353 359 l 2,41,42
 363 363 363 363 367 353.5 c 128,-1,43
 371 344 371 344 361 340 c 2,44,-1
 345 334 l 2,45,46
 328 327 328 327 263 326 c 0,47,48
 200 325 200 325 159 325 c 0,49,50
 117 325 117 325 100 327 c 2,51,-1
 85 329 l 2,52,53
 82 330 82 330 80 331 c 1,54,55
 81 265 81 265 83 203 c 0,56,57
 85 125 85 125 91 95 c 0,58,59
 98 65 98 65 105 52 c 0,60,61
 112 41 112 41 127 35 c 0,62,63
 144 28 144 28 204 34 c 0,64,65
 267 40 267 40 326 41 c 0,66,67
 383 42 383 42 421 43 c 0,68,69
 458 44 458 44 469 45 c 2,70,-1
 481 47 l 2,71,72
 491 49 491 49 492.5 38.5 c 128,-1,73
 494 28 494 28 484 27 c 2,74,-1
 473 25 l 2,75,76
 460 23 460 23 422 22 c 256,77,78
 384 21 384 21 326 20 c 256,79,80
 268 19 268 19 206 13 c 0,81,82
 141 7 141 7 120 15 c 0,83,84
 97 24 97 24 87 42 c 0,85,86
 78 58 78 58 71 91 c 0,87,88
 64 123 64 123 62 202 c 0,89,90
 60 280 60 280 59 364 c 256,91,92
 58 448 58 448 60 491 c 2,93,-1
 62 533 l 2,94,95
 63 538 63 538 66 541 c 128,-1,23
 69 544 69 544 73.5 543.5 c 128,-1,24
EndSplineSet
EndChar

StartChar: F
Encoding: 70 70 41
Width: 445
Flags: W
LayerCount: 2
Fore
SplineSet
56 273 m 128,-1,1
 54 283 54 283 64 286 c 2,2,-1
 119 297 l 2,3,4
 175 308 175 308 249.5 318 c 128,-1,5
 324 328 324 328 366 331 c 2,6,-1
 408 333 l 2,7,8
 418 334 418 334 419 323.5 c 128,-1,9
 420 313 420 313 409 312 c 2,10,-1
 367 310 l 1,11,12
 326 307 326 307 252 297 c 128,-1,13
 178 287 178 287 123 276 c 2,14,-1
 68 265 l 2,15,0
 58 263 58 263 56 273 c 128,-1,1
29 548 m 0,16,17
 24 557 24 557 33 562 c 2,18,-1
 42 567 l 1,19,20
 42 569 42 569 42 571 c 2,21,-1
 45 590 l 2,22,23
 46 600 46 600 56.5 598.5 c 128,-1,24
 67 597 67 597 66 587 c 2,25,-1
 64 577 l 1,26,27
 79 583 79 583 109 594 c 0,28,29
 163 613 163 613 238 626 c 0,30,31
 314 639 314 639 331 638 c 2,32,-1
 346 637 l 2,33,34
 356 636 356 636 355.5 625.5 c 128,-1,35
 355 615 355 615 344 616 c 2,36,-1
 329 617 l 2,37,38
 315 618 315 618 242 605 c 256,39,40
 169 592 169 592 116 574 c 0,41,42
 78 561 78 561 61 553 c 1,43,44
 59 536 59 536 57 509 c 0,45,46
 54 469 54 469 50 371 c 256,47,48
 46 273 46 273 51 198 c 128,-1,49
 56 123 56 123 63 87 c 128,-1,50
 70 51 70 51 75 39 c 1,51,-1
 79 26 l 2,52,53
 83 16 83 16 73 12.5 c 128,-1,54
 63 9 63 9 60 19 c 2,55,-1
 55 32 l 2,56,57
 50 45 50 45 42.5 82.5 c 128,-1,58
 35 120 35 120 30 196 c 128,-1,59
 25 272 25 272 29 371 c 256,60,61
 33 470 33 470 36 511 c 0,62,63
 38 529 38 529 39 543 c 1,64,65
 32 543 32 543 29 548 c 0,16,17
EndSplineSet
EndChar

StartChar: G
Encoding: 71 71 42
Width: 567
Flags: W
LayerCount: 2
Fore
SplineSet
423 391 m 128,-1,1
 419 391 419 391 416 394 c 128,-1,2
 413 397 413 397 413 401 c 2,3,-1
 413 409 l 2,4,5
 413 415 413 415 407 445 c 0,6,7
 402 475 402 475 382 516 c 0,8,9
 362 556 362 556 328 575 c 0,10,11
 295 593 295 593 220 571 c 0,12,13
 144 549 144 549 105 502 c 0,14,15
 65 454 65 454 54 420 c 256,16,17
 43 386 43 386 53 327 c 0,18,19
 64 267 64 267 100.5 210.5 c 128,-1,20
 137 154 137 154 183 114 c 0,21,22
 227 75 227 75 274 68 c 0,23,24
 320 61 320 61 362 97 c 0,25,26
 405 133 405 133 406 160 c 128,-1,27
 407 187 407 187 374 220 c 0,28,29
 339 255 339 255 296 266 c 0,30,31
 250 278 250 278 235 279 c 0,32,33
 234 279 234 279 231.5 278.5 c 128,-1,34
 229 278 229 278 227.5 278.5 c 128,-1,35
 226 279 226 279 223 280.5 c 128,-1,36
 220 282 220 282 218 285 c 0,37,38
 214 293 214 293 216.5 297.5 c 128,-1,39
 219 302 219 302 225 303 c 2,40,-1
 231 305 l 2,41,42
 246 309 246 309 299 322 c 0,43,44
 351 334 351 334 391 345 c 1,45,46
 433 355 433 355 444 354 c 0,47,48
 458 352 458 352 466 338 c 1,49,50
 471 327 471 327 486 270.5 c 128,-1,51
 501 214 501 214 508 140 c 0,52,53
 515 67 515 67 524 26 c 0,54,55
 532 -11 532 -11 535 -18 c 1,56,-1
 539 -24 l 2,57,58
 545 -33 545 -33 536 -38.5 c 128,-1,59
 527 -44 527 -44 521 -35 c 2,60,-1
 517 -29 l 2,61,62
 512 -22 512 -22 503 22 c 0,63,64
 494 64 494 64 487 138 c 0,65,66
 480 210 480 210 466 265 c 0,67,68
 451 320 451 320 447 328 c 0,69,70
 445 333 445 333 441 333 c 0,71,72
 435 334 435 334 396 324 c 0,73,74
 356 314 356 314 303 302 c 1,75,76
 286 297 286 297 272 294 c 1,77,78
 285 291 285 291 301 287 c 0,79,80
 350 274 350 274 389 235 c 0,81,82
 429 195 429 195 427 158.5 c 128,-1,83
 425 122 425 122 375.5 80.5 c 128,-1,84
 326 39 326 39 271 47 c 0,85,86
 218 55 218 55 169 98 c 0,87,88
 121 140 121 140 83 199 c 0,89,90
 44 260 44 260 32.5 323.5 c 128,-1,91
 21 387 21 387 34 426 c 0,92,93
 46 465 46 465 88 516 c 0,94,95
 132 568 132 568 214 592 c 0,96,97
 298 616 298 616 338 593 c 0,98,99
 378 571 378 571 401 525 c 0,100,101
 422 482 422 482 428 449 c 0,102,103
 434 417 434 417 434 408 c 2,104,-1
 434 401 l 2,105,106
 434 397 434 397 430.5 394 c 128,-1,0
 427 391 427 391 423 391 c 128,-1,1
EndSplineSet
EndChar

StartChar: H
Encoding: 72 72 43
Width: 498
Flags: W
LayerCount: 2
Fore
SplineSet
27.5 250 m 128,-1,1
 24 260 24 260 34 263 c 2,2,-1
 44 266 l 2,3,4
 47 267 47 267 64 273 c 1,5,6
 63 279 63 279 62 285 c 0,7,8
 46 405 46 405 42 482 c 256,9,10
 38 559 38 559 38 571 c 2,11,-1
 37 583 l 2,12,13
 37 587 37 587 40 590.5 c 128,-1,14
 43 594 43 594 47 594 c 128,-1,15
 51 594 51 594 54.5 591 c 128,-1,16
 58 588 58 588 58 584 c 2,17,-1
 59 572 l 2,18,19
 59 560 59 560 63 483 c 0,20,21
 67 407 67 407 83 288 c 0,22,23
 84 283 84 283 84 280 c 1,24,25
 108 288 108 288 143 300 c 0,26,27
 233 330 233 330 313 344 c 0,28,29
 356 352 356 352 386 356 c 1,30,31
 386 417 386 417 393 477 c 2,32,-1
 401 537 l 2,33,34
 402 547 402 547 412.5 545.5 c 128,-1,35
 423 544 423 544 421 534 c 2,36,-1
 414 474 l 2,37,38
 407 417 407 417 407 358 c 1,39,40
 418 359 418 359 426 360 c 2,41,-1
 460 361 l 2,42,43
 465 361 465 361 468 358 c 128,-1,44
 471 355 471 355 471 351 c 128,-1,45
 471 347 471 347 468 343.5 c 128,-1,46
 465 340 465 340 461 340 c 2,47,-1
 427 339 l 2,48,49
 419 338 419 338 407 337 c 1,50,51
 408 279 408 279 409 195 c 0,52,53
 411 99 411 99 412 65 c 2,54,-1
 413 31 l 2,55,56
 413 27 413 27 410 23.5 c 128,-1,57
 407 20 407 20 403 20 c 128,-1,58
 399 20 399 20 395.5 23 c 128,-1,59
 392 26 392 26 392 30 c 2,60,-1
 391 64 l 2,61,62
 390 98 390 98 388 195 c 0,63,64
 387 278 387 278 386 335 c 1,65,66
 357 331 357 331 316 324 c 0,67,68
 239 310 239 310 149 280 c 0,69,70
 110 266 110 266 87 259 c 1,71,72
 101 159 101 159 115 97 c 0,73,74
 131 25 131 25 135 9 c 2,75,-1
 140 -8 l 2,76,77
 142 -18 142 -18 132 -21 c 128,-1,78
 122 -24 122 -24 119 -14 c 2,79,-1
 115 3 l 2,80,81
 110 20 110 20 94 92 c 0,82,83
 81 154 81 154 67 252 c 1,84,85
 54 247 54 247 50 246 c 2,86,-1
 41 243 l 2,87,0
 31 240 31 240 27.5 250 c 128,-1,1
EndSplineSet
EndChar

StartChar: I
Encoding: 73 73 44
Width: 103
Flags: W
LayerCount: 2
Fore
SplineSet
41.5 611 m 128,-1,1
 52 609 52 609 50 599 c 2,2,-1
 48 592 l 1,3,4
 47 584 47 584 50 528 c 0,5,6
 53 469 53 469 58.5 378.5 c 128,-1,7
 64 288 64 288 67 174 c 0,8,9
 71 60 71 60 74 38 c 2,10,-1
 77 16 l 2,11,12
 78 6 78 6 67.5 4.5 c 128,-1,13
 57 3 57 3 56 13 c 2,14,-1
 53 35 l 2,15,16
 50 58 50 58 46 173 c 0,17,18
 43 287 43 287 38 378 c 1,19,20
 32 468 32 468 29 527 c 0,21,22
 26 588 26 588 28 596 c 2,23,-1
 29 603 l 2,24,0
 31 613 31 613 41.5 611 c 128,-1,1
EndSplineSet
EndChar

StartChar: J
Encoding: 74 74 45
Width: 435
Flags: W
LayerCount: 2
Fore
SplineSet
386 594 m 128,-1,1
 390 594 390 594 393 591 c 128,-1,2
 396 588 396 588 396 583 c 2,3,-1
 396 560 l 2,4,5
 396 536 396 536 400 477 c 0,6,7
 404 416 404 416 407 327 c 0,8,9
 411 238 411 238 403 190 c 0,10,11
 395 140 395 140 372 104 c 0,12,13
 349 67 349 67 307 46 c 0,14,15
 265 26 265 26 226 28 c 0,16,17
 188 30 188 30 152 45 c 256,18,19
 116 60 116 60 81 97 c 0,20,21
 47 134 47 134 37 155 c 2,22,-1
 28 175 l 2,23,24
 24 185 24 185 33.5 189.5 c 128,-1,25
 43 194 43 194 47 184 c 2,26,-1
 56 164 l 2,27,28
 64 146 64 146 96 112 c 256,29,30
 128 78 128 78 160 64 c 1,31,32
 193 51 193 51 227 49 c 256,33,34
 261 47 261 47 298 65 c 256,35,36
 335 83 335 83 355 115 c 0,37,38
 375 148 375 148 382 193 c 0,39,40
 390 239 390 239 386 327 c 0,41,42
 383 415 383 415 379 475 c 0,43,44
 375 536 375 536 375 560 c 2,45,-1
 375 584 l 2,46,47
 375 588 375 588 378.5 591 c 128,-1,0
 382 594 382 594 386 594 c 128,-1,1
EndSplineSet
EndChar

StartChar: K
Encoding: 75 75 46
Width: 498
Flags: W
LayerCount: 2
Fore
SplineSet
368 637 m 128,-1,1
 376 630 376 630 369 623 c 2,2,-1
 326 572 l 2,3,4
 283 522 283 522 248 474 c 1,5,6
 212 427 212 427 168 378 c 256,7,8
 124 329 124 329 94 305 c 0,9,10
 84 298 84 298 80 292 c 1,11,12
 97 284 97 284 144 258 c 0,13,14
 196 229 196 229 245 193 c 256,15,16
 294 157 294 157 335 126 c 256,17,18
 376 95 376 95 393 84 c 256,19,20
 410 73 410 73 424 63 c 128,-1,21
 438 53 438 53 447 46 c 0,22,23
 455 39 455 39 462 33 c 2,24,-1
 468 28 l 2,25,26
 476 21 476 21 469 13 c 128,-1,27
 462 5 462 5 454 12 c 2,28,-1
 448 18 l 2,29,30
 442 23 442 23 434 30 c 0,31,32
 426 36 426 36 412 45.5 c 128,-1,33
 398 55 398 55 381 67 c 1,34,35
 363 78 363 78 322 109 c 256,36,37
 281 140 281 140 233 176 c 0,38,39
 185 211 185 211 134 240 c 1,40,41
 82 268 82 268 68 275 c 0,42,43
 61 278 61 278 58.5 285.5 c 128,-1,44
 56 293 56 293 60 300 c 0,45,46
 65 309 65 309 81 322 c 0,47,48
 109 344 109 344 152 392 c 0,49,50
 196 440 196 440 231 487 c 0,51,52
 267 535 267 535 310 586 c 2,53,-1
 353 636 l 2,54,0
 360 644 360 644 368 637 c 128,-1,1
65 635.5 m 128,-1,56
 75 633 75 633 73 623 c 2,57,-1
 71 615 l 2,58,59
 70 608 70 608 68 552 c 256,60,61
 66 496 66 496 60 399 c 128,-1,62
 54 302 54 302 50.5 223.5 c 128,-1,63
 47 145 47 145 48 106 c 2,64,-1
 49 65 l 2,65,66
 49 61 49 61 46 58 c 128,-1,67
 43 55 43 55 39 55 c 128,-1,68
 35 55 35 55 31.5 58 c 128,-1,69
 28 61 28 61 28 65 c 2,70,-1
 27 105 l 2,71,72
 26 146 26 146 30 225 c 256,73,74
 34 304 34 304 39.5 400.5 c 128,-1,75
 45 497 45 497 47 553 c 0,76,77
 49 610 49 610 51 620 c 2,78,-1
 53 628 l 2,79,55
 55 638 55 638 65 635.5 c 128,-1,56
EndSplineSet
EndChar

StartChar: L
Encoding: 76 76 47
Width: 477
Flags: W
LayerCount: 2
Fore
SplineSet
56 628 m 128,-1,1
 66 626 66 626 64 616 c 2,2,-1
 61 602 l 2,3,4
 58 589 58 589 55 535 c 0,5,6
 52 479 52 479 50 388 c 0,7,8
 47 295 47 295 49 217 c 0,9,10
 51 141 51 141 57 103 c 0,11,12
 62 70 62 70 79 53 c 0,13,14
 97 35 97 35 140 24 c 0,15,16
 185 13 185 13 261 20 c 0,17,18
 338 27 338 27 380 37 c 0,19,20
 424 47 424 47 432 47 c 1,21,-1
 439 48 l 2,22,23
 444 48 444 48 447 45 c 128,-1,24
 450 42 450 42 450 37.5 c 128,-1,25
 450 33 450 33 447 30 c 128,-1,26
 444 27 444 27 440 27 c 2,27,-1
 433 26 l 2,28,29
 427 26 427 26 385 16 c 0,30,31
 342 6 342 6 263 -1 c 256,32,33
 184 -8 184 -8 135 4 c 256,34,35
 86 16 86 16 64 38 c 256,36,37
 42 60 42 60 36 100 c 0,38,39
 30 138 30 138 28 217 c 0,40,41
 26 295 26 295 28.5 388 c 128,-1,42
 31 481 31 481 34 536 c 0,43,44
 37 592 37 592 40 607 c 1,45,-1
 44 620 l 1,46,0
 46 630 46 630 56 628 c 128,-1,1
EndSplineSet
EndChar

StartChar: M
Encoding: 77 77 48
Width: 661
Flags: W
LayerCount: 2
Fore
SplineSet
44.5 37.5 m 128,-1,1
 34 37 34 37 33 47 c 2,2,-1
 30 79 l 2,3,4
 28 111 28 111 27 188 c 0,5,6
 27 264 27 264 28.5 329.5 c 128,-1,7
 30 395 30 395 32 469 c 0,8,9
 34 544 34 544 37 582 c 0,10,11
 39 619 39 619 39 625 c 0,12,13
 41 652 41 652 72 620 c 1,14,15
 86 603 86 603 109 571 c 256,16,17
 132 539 132 539 160.5 493 c 128,-1,18
 189 447 189 447 214 403 c 256,19,20
 239 359 239 359 269 311 c 0,21,22
 300 263 300 263 318 226 c 1,23,24
 337 190 337 190 350 169 c 0,25,26
 360 153 360 153 367 141 c 1,27,28
 373 161 373 161 385 205 c 0,29,30
 406 277 406 277 433.5 343.5 c 128,-1,31
 461 410 461 410 495 478 c 256,32,33
 529 546 529 546 554 595 c 0,34,35
 555 596 555 596 557 600 c 128,-1,36
 559 604 559 604 560 605.5 c 128,-1,37
 561 607 561 607 562.5 610 c 128,-1,38
 564 613 564 613 565 614.5 c 128,-1,39
 566 616 566 616 568 618.5 c 128,-1,40
 570 621 570 621 571.5 622 c 128,-1,41
 573 623 573 623 575 624.5 c 128,-1,42
 577 626 577 626 579 626.5 c 128,-1,43
 581 627 581 627 583 627 c 0,44,45
 589 628 589 628 593 625 c 128,-1,46
 597 622 597 622 598.5 616 c 128,-1,47
 600 610 600 610 600 607.5 c 128,-1,48
 600 605 600 605 600 599 c 0,49,50
 601 559 601 559 599 506 c 0,51,52
 598 454 598 454 602 399 c 0,53,54
 606 342 606 342 611 254 c 0,55,56
 616 165 616 165 621.5 123.5 c 128,-1,57
 627 82 627 82 629 68 c 256,58,59
 631 54 631 54 632 42 c 0,60,61
 632 32 632 32 633 17 c 1,62,-1
 635 3 l 2,63,64
 636 -8 636 -8 625.5 -9 c 128,-1,65
 615 -10 615 -10 614 1 c 2,66,-1
 612 16 l 2,67,68
 611 31 611 31 611 42 c 1,69,70
 610 52 610 52 608 65 c 0,71,72
 606 79 606 79 601 121 c 256,73,74
 596 163 596 163 590 252 c 0,75,76
 585 341 585 341 581 398 c 0,77,78
 577 454 577 454 578 507 c 1,79,80
 580 557 580 557 579 596 c 1,81,82
 576 591 576 591 573 585 c 0,83,84
 548 536 548 536 514 469 c 256,85,86
 480 402 480 402 453 336 c 128,-1,87
 426 270 426 270 405 199 c 1,88,89
 385 127 385 127 381 119 c 0,90,91
 379 115 379 115 374 111.5 c 128,-1,92
 369 108 369 108 363 111 c 0,93,94
 358 114 358 114 352 124 c 0,95,96
 346 136 346 136 332 157 c 0,97,98
 318 179 318 179 300 217 c 0,99,100
 282 253 282 253 252 300 c 0,101,102
 221 348 221 348 196 392 c 256,103,104
 171 436 171 436 143 481.5 c 128,-1,105
 115 527 115 527 92 558 c 0,106,107
 72 585 72 585 59 602 c 1,108,109
 59 593 59 593 57 580 c 1,110,111
 55 543 55 543 53 469 c 0,112,113
 51 394 51 394 49.5 328.5 c 128,-1,114
 48 263 48 263 48.5 187.5 c 128,-1,115
 49 112 49 112 51 81 c 2,116,-1
 54 49 l 2,117,0
 55 38 55 38 44.5 37.5 c 128,-1,1
EndSplineSet
EndChar

StartChar: N
Encoding: 78 78 49
Width: 514
Flags: W
LayerCount: 2
Fore
SplineSet
59 599 m 128,-1,1
 68 605 68 605 74 596 c 2,2,-1
 98 557 l 2,3,4
 122 518 122 518 173 435 c 128,-1,5
 224 352 224 352 266 284 c 0,6,7
 307 216 307 216 345 161 c 0,8,9
 383 107 383 107 406 78.5 c 128,-1,10
 429 50 429 50 438 40 c 0,11,12
 439 39 439 39 441 37 c 1,13,14
 442 50 442 50 444 68 c 0,15,16
 448 114 448 114 452.5 186 c 128,-1,17
 457 258 457 258 458 336 c 0,18,19
 460 416 460 416 463 474 c 256,20,21
 466 532 466 532 466 575 c 1,22,23
 467 617 467 617 466 625 c 2,24,-1
 465 633 l 1,25,26
 465 644 465 644 475.5 644.5 c 128,-1,27
 486 645 486 645 486 635 c 1,28,-1
 487 626 l 2,29,30
 488 618 488 618 487 574 c 0,31,32
 487 532 487 532 484 473 c 0,33,34
 481 415 481 415 479.5 336 c 128,-1,35
 478 257 478 257 473.5 184.5 c 128,-1,36
 469 112 469 112 465 66 c 0,37,38
 461 19 461 19 459 12 c 0,39,40
 456 1 456 1 446.5 2.5 c 128,-1,41
 437 4 437 4 434 10 c 0,42,43
 431 17 431 17 423 26 c 0,44,45
 414 37 414 37 390 65 c 0,46,47
 366 94 366 94 328 149 c 0,48,49
 289 204 289 204 248 273 c 256,50,51
 207 342 207 342 156 424 c 128,-1,52
 105 506 105 506 80 545 c 1,53,-1
 56 585 l 1,54,0
 50 593 50 593 59 599 c 128,-1,1
41.5 605 m 128,-1,56
 46 605 46 605 49 601.5 c 128,-1,57
 52 598 52 598 52 594 c 2,58,-1
 50 545 l 2,59,60
 49 496 49 496 48 401 c 256,61,62
 47 306 47 306 52 194 c 0,63,64
 58 81 58 81 58 53 c 0,65,66
 58 26 58 26 59 19 c 2,67,-1
 60 12 l 2,68,69
 61 2 61 2 50.5 0.5 c 128,-1,70
 40 -1 40 -1 39 10 c 2,71,-1
 38 17 l 2,72,73
 37 25 37 25 37 53 c 256,74,75
 37 81 37 81 31 193 c 0,76,77
 26 305 26 305 27 401 c 256,78,79
 28 497 28 497 29 546 c 1,80,-1
 31 594 l 2,81,82
 31 599 31 599 34 602 c 128,-1,55
 37 605 37 605 41.5 605 c 128,-1,56
EndSplineSet
EndChar

StartChar: O
Encoding: 79 79 50
Width: 522
Flags: W
LayerCount: 2
Fore
SplineSet
230 595 m 1,0,1
 204 587 204 587 180 574 c 0,2,3
 142 552 142 552 101 492.5 c 128,-1,4
 60 433 60 433 51 380 c 0,5,6
 41 327 41 327 64 266 c 1,7,8
 86 204 86 204 126 150 c 0,9,10
 165 97 165 97 208 70 c 0,11,12
 250 43 250 43 290 44 c 0,13,14
 330 44 330 44 364 69 c 1,15,16
 400 94 400 94 424.5 131 c 128,-1,17
 449 168 449 168 462 232 c 0,18,19
 476 298 476 298 474 345.5 c 128,-1,20
 472 393 472 393 454 455 c 0,21,22
 436 515 436 515 409 545 c 0,23,24
 383 574 383 574 313 576 c 2,25,-1
 238 578 l 2,26,27
 234 578 234 578 231 581 c 128,-1,28
 228 584 228 584 228 589 c 0,29,30
 228 592 228 592 230 595 c 1,0,1
246 599 m 1,31,-1
 314 597 l 2,32,33
 393 595 393 595 425 559 c 0,34,35
 455 526 455 526 474 461 c 0,36,37
 493 397 493 397 495 346.5 c 128,-1,38
 497 296 497 296 483 228 c 256,39,40
 469 160 469 160 442 119.5 c 128,-1,41
 415 79 415 79 376 52 c 1,42,43
 336 23 336 23 290 23 c 0,44,45
 244 22 244 22 197 52 c 0,46,47
 150 81 150 81 109 138 c 0,48,49
 68 194 68 194 44 259 c 0,50,51
 20 325 20 325 30 383 c 256,52,53
 40 441 40 441 83.5 504.5 c 128,-1,54
 127 568 127 568 170 592 c 0,55,56
 200 609 200 609 233 617 c 0,57,58
 247 621 247 621 261 622 c 0,59,60
 309 628 309 628 345 624 c 256,61,62
 381 620 381 620 394 616 c 2,63,-1
 407 613 l 2,64,65
 418 611 418 611 415.5 600.5 c 128,-1,66
 413 590 413 590 402 593 c 2,67,-1
 389 596 l 2,68,69
 377 599 377 599 343 603 c 256,70,71
 309 607 309 607 264 602 c 0,72,73
 255 601 255 601 246 599 c 1,31,-1
EndSplineSet
EndChar

StartChar: P
Encoding: 80 80 51
Width: 492
Flags: W
LayerCount: 2
Fore
SplineSet
46.5 619.5 m 128,-1,1
 57 619 57 619 56 608 c 2,2,-1
 53 570 l 1,3,4
 62 578 62 578 86 595 c 0,5,6
 116 615 116 615 167.5 627.5 c 128,-1,7
 219 640 219 640 272 633 c 0,8,9
 325 627 325 627 365 601 c 0,10,11
 404 575 404 575 427 544 c 0,12,13
 451 513 451 513 461 473 c 0,14,15
 471 432 471 432 460 400 c 0,16,17
 449 369 449 369 421 339 c 0,18,19
 393 310 393 310 354 292 c 0,20,21
 315 275 315 275 275 269 c 0,22,23
 236 263 236 263 188 261 c 128,-1,24
 140 259 140 259 106 261 c 0,25,26
 75 262 75 262 60 264 c 1,27,28
 61 254 61 254 62 244 c 0,29,30
 70 162 70 162 77 99 c 0,31,32
 85 36 85 36 89 16 c 2,33,-1
 94 -5 l 2,34,35
 96 -16 96 -16 86 -18 c 128,-1,36
 76 -20 76 -20 74 -10 c 2,37,-1
 69 11 l 2,38,39
 64 33 64 33 57 97 c 1,40,41
 49 160 49 160 41 242 c 0,42,43
 39 254 39 254 38 267 c 1,44,45
 31 270 31 270 32 277 c 0,46,47
 33 282 33 282 37 285 c 1,48,49
 31 343 31 343 29 398 c 0,50,51
 25 473 25 473 30 542 c 2,52,-1
 35 610 l 2,53,0
 36 620 36 620 46.5 619.5 c 128,-1,1
58 285 m 1,54,-1
 59 285 l 1,55,56
 74 283 74 283 107 281.5 c 128,-1,57
 140 280 140 280 187 282 c 128,-1,58
 234 284 234 284 272 290 c 0,59,60
 310 295 310 295 346 311 c 0,61,62
 380 327 380 327 405.5 353.5 c 128,-1,63
 431 380 431 380 440 407 c 0,64,65
 449 433 449 433 440 468 c 0,66,67
 432 503 432 503 411 531 c 0,68,69
 389 559 389 559 353 583 c 0,70,71
 318 607 318 607 269 612 c 0,72,73
 220 618 220 618 172 607 c 128,-1,74
 124 596 124 596 98 578 c 256,75,76
 72 560 72 560 66 553 c 2,77,-1
 60 546 l 1,78,79
 56 543 56 543 51 543 c 1,80,-1
 51 540 l 1,81,82
 46 473 46 473 50 399 c 0,83,84
 52 344 52 344 58 285 c 1,54,-1
EndSplineSet
EndChar

StartChar: Q
Encoding: 81 81 52
Width: 605
Flags: W
LayerCount: 2
Fore
SplineSet
395 145 m 128,-1,1
 404 150 404 150 409 140 c 2,2,-1
 415 130 l 1,3,4
 419 121 419 121 452 82 c 0,5,6
 458 75 458 75 460 73 c 1,7,8
 475 100 475 100 487 137 c 0,9,10
 505 190 505 190 509 241 c 0,11,12
 513 294 513 294 510 349 c 0,13,14
 508 404 508 404 498 450 c 0,15,16
 489 495 489 495 460.5 532 c 128,-1,17
 432 569 432 569 394 589 c 0,18,19
 378 597 378 597 364 602 c 0,20,21
 360 603 360 603 356 604 c 1,22,-1
 336 603 l 2,23,24
 329 603 329 603 323 602 c 0,25,26
 293 599 293 599 262 594 c 0,27,28
 227 589 227 589 175 559 c 0,29,30
 125 529 125 529 96 482 c 0,31,32
 66 434 66 434 53.5 371 c 128,-1,33
 41 308 41 308 56 237 c 0,34,35
 70 166 70 166 92 119 c 1,36,37
 115 73 115 73 147 41 c 0,38,39
 179 10 179 10 222 -3 c 0,40,41
 267 -17 267 -17 314 -16 c 0,42,43
 360 -15 360 -15 391 3 c 0,44,45
 423 21 423 21 447 52 c 0,46,47
 447 53 447 53 448 54 c 1,48,49
 443 60 443 60 436 69 c 0,50,51
 402 110 402 110 396 121 c 2,52,-1
 391 131 l 2,53,0
 386 140 386 140 395 145 c 128,-1,1
282 619 m 1,54,55
 282 621 282 621 282 622 c 0,56,57
 282 627 282 627 285 630 c 128,-1,58
 288 633 288 633 293 632 c 2,59,-1
 326 631 l 2,60,61
 341 630 341 630 358 626 c 1,62,-1
 371 627 l 2,63,64
 382 627 382 627 383 617 c 1,65,66
 393 613 393 613 404 607 c 0,67,68
 446 586 446 586 477 545 c 128,-1,69
 508 504 508 504 519 454 c 0,70,71
 529 407 529 407 531 350 c 0,72,73
 534 293 534 293 529 240 c 1,74,75
 525 185 525 185 507 130 c 0,76,77
 493 86 493 86 474 56 c 1,78,79
 497 28 497 28 520 1 c 0,80,81
 554 -39 554 -39 565 -53 c 2,82,-1
 576 -66 l 2,83,84
 583 -75 583 -75 574.5 -81.5 c 128,-1,85
 566 -88 566 -88 560 -80 c 2,86,-1
 549 -66 l 2,87,88
 537 -52 537 -52 504 -12 c 0,89,90
 483 13 483 13 462 38 c 1,91,92
 436 4 436 4 402 -15 c 0,93,94
 366 -36 366 -36 314 -37 c 0,95,96
 264 -38 264 -38 216 -23 c 256,97,98
 168 -8 168 -8 132 26 c 0,99,100
 97 60 97 60 74 110 c 1,101,102
 50 159 50 159 35 233 c 0,103,104
 20 308 20 308 33 375 c 128,-1,105
 46 442 46 442 78 493 c 256,106,107
 110 544 110 544 165 577 c 0,108,109
 219 609 219 609 259 615 c 0,110,111
 270 617 270 617 282 619 c 1,54,55
EndSplineSet
EndChar

StartChar: R
Encoding: 82 82 53
Width: 514
Flags: W
LayerCount: 2
Fore
SplineSet
140 312 m 1,0,1
 151 312 151 312 162 313 c 0,2,3
 184 314 184 314 210 320 c 1,4,5
 252 328 252 328 298 364 c 0,6,7
 344 399 344 399 357 434 c 0,8,9
 370 468 370 468 355.5 513.5 c 128,-1,10
 341 559 341 559 300 585 c 0,11,12
 258 611 258 611 222 613 c 256,13,14
 186 615 186 615 136 593 c 128,-1,15
 86 571 86 571 77 560 c 2,16,-1
 66 546 l 2,17,18
 60 538 60 538 52 544 c 0,19,20
 50 546 50 546 49 548 c 1,21,22
 47 501 47 501 50 407 c 256,23,24
 53 313 53 313 56 239.5 c 128,-1,25
 59 166 59 166 62 102 c 0,26,27
 65 39 65 39 67 23 c 2,28,-1
 69 6 l 2,29,30
 70 -4 70 -4 59.5 -5.5 c 128,-1,31
 49 -7 49 -7 48 4 c 2,32,-1
 46 21 l 2,33,34
 44 38 44 38 41 101 c 0,35,36
 38 165 38 165 35 238.5 c 128,-1,37
 32 312 32 312 29 406.5 c 128,-1,38
 26 501 26 501 28 549 c 2,39,-1
 30 596 l 2,40,41
 30 601 30 601 33.5 603.5 c 128,-1,42
 37 606 37 606 41 606 c 128,-1,43
 45 606 45 606 48 603 c 128,-1,44
 51 600 51 600 51 595 c 2,45,-1
 49 558 l 2,46,47
 50 559 50 559 50 559 c 1,48,-1
 60 573 l 1,49,50
 73 588 73 588 127.5 612 c 128,-1,51
 182 636 182 636 223 634 c 256,52,53
 264 632 264 632 311 603 c 0,54,55
 358 573 358 573 375 520.5 c 128,-1,56
 392 468 392 468 377 426 c 0,57,58
 362 386 362 386 311 347 c 0,59,60
 261 308 261 308 214 299 c 0,61,62
 205 297 205 297 195 296 c 1,63,64
 213 289 213 289 232 280 c 0,65,66
 282 257 282 257 322.5 226 c 128,-1,67
 363 195 363 195 403 148 c 128,-1,68
 443 101 443 101 455 80 c 0,69,70
 467 60 467 60 476 43 c 0,71,72
 487 23 487 23 487 14 c 1,73,-1
 488 8 l 1,74,75
 488 -2 488 -2 477.5 -3 c 128,-1,76
 467 -4 467 -4 467 7 c 1,77,-1
 466 13 l 2,78,79
 466 17 466 17 458 33 c 1,80,81
 448 50 448 50 437 70 c 0,82,83
 426 88 426 88 387 134 c 128,-1,84
 348 180 348 180 309.5 209.5 c 128,-1,85
 271 239 271 239 223 261 c 0,86,87
 189 276 189 276 161 285 c 0,88,89
 149 289 149 289 138 291 c 1,90,91
 107 293 107 293 96 296 c 0,92,93
 90 297 90 297 86 307 c 128,-1,94
 82 317 82 317 94 320 c 1,95,96
 103 321 103 321 140 312 c 1,0,1
EndSplineSet
EndChar

StartChar: S
Encoding: 83 83 54
Width: 452
Flags: W
LayerCount: 2
Fore
SplineSet
383 457.5 m 128,-1,1
 373 454 373 454 370 464 c 2,2,-1
 363 485 l 2,3,4
 357 504 357 504 339 538 c 1,5,6
 323 571 323 571 294 590 c 0,7,8
 265 610 265 610 212 618 c 1,9,10
 160 627 160 627 134 614 c 0,11,12
 107 600 107 600 88 575 c 0,13,14
 69 549 69 549 60 517 c 0,15,16
 51 486 51 486 63 451 c 0,17,18
 74 416 74 416 94 395 c 0,19,20
 112 375 112 375 155 364 c 1,21,22
 200 351 200 351 233 344 c 0,23,24
 267 336 267 336 301 320 c 0,25,26
 336 303 336 303 366 267 c 0,27,28
 395 232 395 232 408 209 c 0,29,30
 421 184 421 184 425 154 c 1,31,32
 428 122 428 122 417 103 c 256,33,34
 406 84 406 84 365.5 57.5 c 128,-1,35
 325 31 325 31 281 24 c 0,36,37
 238 18 238 18 192 25 c 0,38,39
 146 33 146 33 112 55.5 c 128,-1,40
 78 78 78 78 53 117 c 0,41,42
 29 156 29 156 28 184 c 2,43,-1
 27 209 l 2,44,45
 27 213 27 213 30 216 c 128,-1,46
 33 219 33 219 37 219.5 c 128,-1,47
 41 220 41 220 44.5 217 c 128,-1,48
 48 214 48 214 48 209 c 2,49,-1
 49 184 l 2,50,51
 49 162 49 162 71 128 c 0,52,53
 93 93 93 93 123.5 73 c 128,-1,54
 154 53 154 53 196 46 c 256,55,56
 238 39 238 39 278 45 c 0,57,58
 317 51 317 51 353.5 74.5 c 128,-1,59
 390 98 390 98 398 113 c 0,60,61
 406 127 406 127 404 152 c 0,62,63
 401 178 401 178 390 199 c 0,64,65
 378 220 378 220 350 254 c 0,66,67
 323 286 323 286 292 301 c 0,68,69
 260 316 260 316 228 323 c 0,70,71
 194 331 194 331 149 343 c 0,72,73
 101 356 101 356 78 381 c 0,74,75
 56 405 56 405 43 445 c 0,76,77
 29 486 29 486 40 523 c 0,78,79
 50 558 50 558 72 587 c 1,80,81
 93 617 93 617 125 632 c 1,82,83
 157 649 157 649 216 639 c 0,84,85
 273 630 273 630 306 608 c 256,86,87
 339 586 339 586 358 548 c 0,88,89
 377 512 377 512 383 491 c 1,90,-1
 390 471 l 2,91,0
 393 461 393 461 383 457.5 c 128,-1,1
EndSplineSet
EndChar

StartChar: T
Encoding: 84 84 55
Width: 582
Flags: W
LayerCount: 2
Fore
SplineSet
289.5 580 m 128,-1,1
 300 578 300 578 298 568 c 2,2,-1
 294 544 l 2,3,4
 291 520 291 520 288 461 c 1,5,6
 286 401 286 401 286.5 328 c 128,-1,7
 287 255 287 255 289 197 c 0,8,9
 292 139 292 139 294 98 c 256,10,11
 296 57 296 57 297 43 c 0,12,13
 299 27 299 27 299 17 c 2,14,-1
 299 8 l 2,15,16
 299 4 299 4 296 1 c 128,-1,17
 293 -2 293 -2 288.5 -2 c 128,-1,18
 284 -2 284 -2 281 1 c 128,-1,19
 278 4 278 4 278 8 c 2,20,-1
 278 17 l 2,21,22
 278 26 278 26 276 40 c 1,23,24
 275 55 275 55 273 97 c 0,25,26
 271 138 271 138 268 196 c 0,27,28
 266 254 266 254 265.5 327.5 c 128,-1,29
 265 401 265 401 267 462 c 0,30,31
 270 523 270 523 274 547 c 2,32,-1
 278 571 l 2,33,0
 279 582 279 582 289.5 580 c 128,-1,1
27 604.5 m 128,-1,35
 28 615 28 615 38 614 c 1,36,-1
 44 614 l 2,37,38
 50 614 50 614 76 617 c 0,39,40
 104 620 104 620 183 621 c 1,41,42
 261 623 261 623 319.5 624 c 128,-1,43
 378 625 378 625 426 626 c 128,-1,44
 474 627 474 627 495 628 c 0,45,46
 517 629 517 629 533 626 c 2,47,-1
 547 623 l 2,48,49
 558 621 558 621 556 610.5 c 128,-1,50
 554 600 554 600 543 602 c 2,51,-1
 529 605 l 2,52,53
 516 608 516 608 496 607 c 0,54,55
 475 606 475 606 426 605 c 0,56,57
 378 604 378 604 320 603 c 0,58,59
 261 602 261 602 183 600 c 0,60,61
 105 599 105 599 79 596 c 0,62,63
 50 593 50 593 43 593 c 2,64,-1
 37 593 l 1,65,34
 26 594 26 594 27 604.5 c 128,-1,35
EndSplineSet
EndChar

StartChar: U
Encoding: 85 85 56
Width: 501
Flags: W
LayerCount: 2
Fore
SplineSet
41.5 671 m 128,-1,1
 52 670 52 670 51 660 c 2,2,-1
 49 639 l 2,3,4
 48 618 48 618 48 577 c 0,5,6
 48 538 48 538 50 443 c 0,7,8
 51 352 51 352 51 307 c 256,9,10
 51 262 51 262 55 222 c 0,11,12
 60 182 60 182 68 152 c 0,13,14
 77 122 77 122 90 95 c 0,15,16
 102 70 102 70 118 55 c 0,17,18
 134 41 134 41 158 33 c 0,19,20
 183 25 183 25 207.5 24 c 128,-1,21
 232 23 232 23 262 30 c 0,22,23
 292 38 292 38 321 57 c 256,24,25
 350 76 350 76 373.5 99 c 128,-1,26
 397 122 397 122 412.5 146 c 128,-1,27
 428 170 428 170 439 201 c 0,28,29
 449 231 449 231 452 266 c 256,30,31
 455 301 455 301 452 334 c 0,32,33
 449 369 449 369 446 393 c 128,-1,34
 443 417 443 417 437 452 c 256,35,36
 431 487 431 487 428 511.5 c 128,-1,37
 425 536 425 536 422 554 c 0,38,39
 420 572 420 572 420 584 c 1,40,-1
 419 595 l 2,41,42
 419 599 419 599 422 602 c 128,-1,43
 425 605 425 605 429.5 605.5 c 128,-1,44
 434 606 434 606 437 603 c 128,-1,45
 440 600 440 600 440 596 c 2,46,-1
 441 584 l 2,47,48
 441 574 441 574 443 556 c 256,49,50
 445 538 445 538 448 514 c 128,-1,51
 451 490 451 490 457 455 c 256,52,53
 463 420 463 420 466.5 395.5 c 128,-1,54
 470 371 470 371 473 336 c 128,-1,55
 476 301 476 301 473 264 c 256,56,57
 470 227 470 227 458.5 194.5 c 128,-1,58
 447 162 447 162 430 135 c 128,-1,59
 413 108 413 108 389 84 c 1,60,61
 363 60 363 60 332 39 c 0,62,63
 301 19 301 19 267 10 c 0,64,65
 234 2 234 2 206 3 c 0,66,67
 179 4 179 4 151 13 c 0,68,69
 123 23 123 23 104 40 c 0,70,71
 85 56 85 56 71 86 c 0,72,73
 57 115 57 115 48 146 c 0,74,75
 39 178 39 178 34 220 c 0,76,77
 30 261 30 261 30 307 c 0,78,79
 30 351 30 351 28.5 442.5 c 128,-1,80
 27 534 27 534 27 577 c 256,81,82
 27 620 27 620 28 641 c 1,83,-1
 30 661 l 2,84,0
 31 672 31 672 41.5 671 c 128,-1,1
EndSplineSet
EndChar

StartChar: V
Encoding: 86 86 57
Width: 500
Flags: W
LayerCount: 2
Fore
SplineSet
33.5 632.5 m 128,-1,1
 43 637 43 637 47 627 c 2,2,-1
 62 593 l 1,3,4
 78 560 78 560 102 501 c 256,5,6
 126 442 126 442 152 374 c 0,7,8
 178 305 178 305 204 243 c 1,9,10
 229 180 229 180 242 146 c 0,11,12
 252 119 252 119 264 88 c 0,13,14
 271 70 271 70 277 56 c 1,15,16
 280 61 280 61 283 69 c 0,17,18
 296 105 296 105 315 154 c 0,19,20
 333 201 333 201 348 262 c 256,21,22
 363 323 363 323 375 369 c 128,-1,23
 387 415 387 415 402 468 c 1,24,25
 416 522 416 522 425 552 c 256,26,27
 434 582 434 582 439.5 599.5 c 128,-1,28
 445 617 445 617 449 630 c 2,29,-1
 453 641 l 2,30,31
 457 651 457 651 467 647.5 c 128,-1,32
 477 644 477 644 473 635 c 1,33,-1
 469 622 l 2,34,35
 465 610 465 610 460 594 c 0,36,37
 455 577 455 577 445 546 c 0,38,39
 436 516 436 516 421.5 462.5 c 128,-1,40
 407 409 407 409 395.5 363.5 c 128,-1,41
 384 318 384 318 369 257 c 0,42,43
 353 195 353 195 335 146 c 1,44,45
 316 98 316 98 302 61 c 0,46,47
 302 60 302 60 301 59 c 0,48,49
 297 48 297 48 294.5 42.5 c 128,-1,50
 292 37 292 37 285.5 32 c 128,-1,51
 279 27 279 27 271 30 c 0,52,53
 265 33 265 33 261 40 c 0,54,55
 254 56 254 56 244 81 c 0,56,57
 235 105 235 105 222.5 138.5 c 128,-1,58
 210 172 210 172 184.5 235 c 128,-1,59
 159 298 159 298 133 367 c 0,60,61
 107 435 107 435 83 493 c 128,-1,62
 59 551 59 551 43 585 c 2,63,-1
 28 618 l 2,64,0
 24 628 24 628 33.5 632.5 c 128,-1,1
EndSplineSet
EndChar

StartChar: W
Encoding: 87 87 58
Width: 709
Flags: W
LayerCount: 2
Fore
SplineSet
36 593.5 m 128,-1,1
 46 595 46 595 48 584 c 2,2,-1
 53 550 l 2,3,4
 57 516 57 516 71 461 c 1,5,6
 84 405 84 405 105 330 c 0,7,8
 126 254 126 254 139 199 c 1,9,10
 153 145 153 145 161 119 c 1,11,12
 170 94 170 94 176 80 c 0,13,14
 178 76 178 76 180 71 c 1,15,16
 182 78 182 78 185 87 c 0,17,18
 199 128 199 128 214 185 c 0,19,20
 230 242 230 242 250 308 c 0,21,22
 269 373 269 373 284 428 c 128,-1,23
 299 483 299 483 314 540 c 0,24,25
 329 596 329 596 330 610 c 1,26,27
 332 620 332 620 338 623 c 1,28,29
 344 624 344 624 347.5 624.5 c 128,-1,30
 351 625 351 625 354 619.5 c 128,-1,31
 357 614 357 614 358.5 611 c 128,-1,32
 360 608 360 608 361.5 602 c 128,-1,33
 363 596 363 596 363 596 c 1,34,35
 373 564 373 564 394 500 c 128,-1,36
 415 436 415 436 433.5 383 c 128,-1,37
 452 330 452 330 467 288.5 c 128,-1,38
 482 247 482 247 500 203 c 128,-1,39
 518 159 518 159 528 139 c 0,40,41
 533 128 533 128 538 118 c 1,42,43
 539 122 539 122 540 126 c 0,44,45
 552 162 552 162 567.5 221 c 128,-1,46
 583 280 583 280 593.5 333 c 128,-1,47
 604 386 604 386 615.5 451.5 c 128,-1,48
 627 517 627 517 633 553 c 1,49,50
 638 590 638 590 646 621 c 0,51,52
 653 652 653 652 658 663 c 2,53,-1
 663 672 l 1,54,55
 667 682 667 682 676.5 677.5 c 128,-1,56
 686 673 686 673 682 663 c 1,57,-1
 677 654 l 2,58,59
 673 645 673 645 666 616 c 0,60,61
 659 586 659 586 653 550 c 0,62,63
 648 514 648 514 636.5 448 c 128,-1,64
 625 382 625 382 614 329 c 128,-1,65
 603 276 603 276 587.5 216 c 128,-1,66
 572 156 572 156 560 119 c 0,67,68
 560 118 560 118 558.5 113.5 c 128,-1,69
 557 109 557 109 556.5 106.5 c 128,-1,70
 556 104 556 104 554 99.5 c 128,-1,71
 552 95 552 95 550 93.5 c 128,-1,72
 548 92 548 92 545 88.5 c 128,-1,73
 542 85 542 85 539.5 86 c 128,-1,74
 537 87 537 87 532 87 c 1,75,76
 526 89 526 89 523 97 c 0,77,78
 518 111 518 111 509 130 c 0,79,80
 499 150 499 150 480.5 195 c 128,-1,81
 462 240 462 240 447 281.5 c 128,-1,82
 432 323 432 323 413.5 376 c 128,-1,83
 395 429 395 429 374 494 c 0,84,85
 356 549 356 549 346 581 c 1,86,87
 342 563 342 563 335 535 c 0,88,89
 320 478 320 478 305 422.5 c 128,-1,90
 290 367 290 367 270 302 c 256,91,92
 250 237 250 237 235 180 c 0,93,94
 219 122 219 122 205 80 c 0,95,96
 192 39 192 39 178 37 c 0,97,98
 172 37 172 37 168 47 c 256,99,100
 164 57 164 57 157 71 c 0,101,102
 150 86 150 86 141 113 c 0,103,104
 133 139 133 139 119 194 c 256,105,106
 105 249 105 249 85 324 c 0,107,108
 64 400 64 400 50 456 c 0,109,110
 37 512 37 512 32 547 c 2,111,-1
 27 581 l 2,112,0
 26 592 26 592 36 593.5 c 128,-1,1
EndSplineSet
EndChar

StartChar: X
Encoding: 88 88 59
Width: 465
Flags: W
LayerCount: 2
Fore
SplineSet
419 651.5 m 128,-1,1
 428 646 428 646 422 637 c 2,2,-1
 400 601 l 2,3,4
 379 566 379 566 347.5 509.5 c 128,-1,5
 316 453 316 453 288 400 c 0,6,7
 265 357 265 357 240 309 c 1,8,9
 248 297 248 297 255 284 c 0,10,11
 291 223 291 223 317 186 c 128,-1,12
 343 149 343 149 366 119 c 0,13,14
 388 89 388 89 399 75 c 0,15,16
 411 60 411 60 423 44 c 2,17,-1
 437 27 l 2,18,19
 443 19 443 19 435 12.5 c 128,-1,20
 427 6 427 6 420 14 c 2,21,-1
 407 31 l 2,22,23
 394 48 394 48 383 61.5 c 128,-1,24
 372 75 372 75 349 106 c 128,-1,25
 326 137 326 137 299.5 174.5 c 128,-1,26
 273 212 273 212 237 273 c 0,27,28
 233 280 233 280 229 287 c 0,29,30
 228 287 228 287 228 286 c 0,31,32
 196 225 196 225 176.5 191 c 128,-1,33
 157 157 157 157 136.5 123.5 c 128,-1,34
 116 90 116 90 107 76 c 256,35,36
 98 62 98 62 93 54 c 1,37,38
 89 44 89 44 84 37 c 2,39,-1
 80 31 l 2,40,41
 75 22 75 22 66 27.5 c 128,-1,42
 57 33 57 33 63 42 c 2,43,-1
 67 48 l 2,44,45
 70 54 70 54 75 63 c 0,46,47
 80 73 80 73 89 87 c 0,48,49
 99 101 99 101 119 134 c 128,-1,50
 139 167 139 167 158 201 c 128,-1,51
 177 235 177 235 209 296 c 0,52,53
 211 298 211 298 213 302.5 c 128,-1,54
 215 307 215 307 216 309 c 1,55,56
 190 352 190 352 164 395 c 0,57,58
 127 456 127 456 88 512 c 0,59,60
 48 568 48 568 38 587 c 2,61,-1
 28 606 l 2,62,63
 23 615 23 615 32.5 620 c 128,-1,64
 42 625 42 625 47 615 c 2,65,-1
 57 597 l 2,66,67
 66 579 66 579 105 524 c 0,68,69
 144 468 144 468 182 406 c 0,70,71
 205 368 205 368 228 330 c 1,72,73
 249 372 249 372 269 410 c 0,74,75
 297 463 297 463 328.5 519.5 c 128,-1,76
 360 576 360 576 383 612 c 2,77,-1
 405 648 l 2,78,0
 410 657 410 657 419 651.5 c 128,-1,1
EndSplineSet
EndChar

StartChar: Y
Encoding: 89 89 60
Width: 558
Flags: W
LayerCount: 2
Fore
SplineSet
529 634 m 128,-1,1
 535 626 535 626 527 619 c 2,2,-1
 515 610 l 2,3,4
 504 602 504 602 478.5 574.5 c 128,-1,5
 453 547 453 547 421.5 500 c 128,-1,6
 390 453 390 453 372 411.5 c 128,-1,7
 354 370 354 370 337 311 c 0,8,9
 324 266 324 266 315 217 c 1,10,-1
 316 216 l 1,11,12
 322 207 322 207 314 201 c 0,13,14
 313 200 313 200 311 200 c 1,15,16
 310 192 310 192 309 185 c 0,17,18
 298 118 298 118 292 81.5 c 128,-1,19
 286 45 286 45 284 32 c 256,20,21
 282 19 282 19 282 12 c 2,22,-1
 282 4 l 1,23,24
 281 -1 281 -1 278 -4 c 128,-1,25
 275 -7 275 -7 270.5 -6.5 c 128,-1,26
 266 -6 266 -6 263 -3 c 128,-1,27
 260 0 260 0 261 4 c 1,28,-1
 261 12 l 2,29,30
 261 21 261 21 263 35 c 256,31,32
 265 49 265 49 271 85 c 128,-1,33
 277 121 277 121 288 188 c 0,34,35
 290 200 290 200 292 212 c 1,36,-1
 277 232 l 2,37,38
 255 261 255 261 233 300 c 0,39,40
 211 338 211 338 177.5 393.5 c 128,-1,41
 144 449 144 449 104 504 c 1,42,43
 65 560 65 560 47 588 c 2,44,-1
 29 615 l 2,45,46
 23 624 23 624 31.5 630 c 128,-1,47
 40 636 40 636 46 627 c 2,48,-1
 64 599 l 2,49,50
 82 572 82 572 121 516 c 0,51,52
 161 460 161 460 195.5 404 c 128,-1,53
 230 348 230 348 251 310 c 0,54,55
 273 272 273 272 294 244 c 1,56,-1
 298 239 l 1,57,58
 306 279 306 279 317 316 c 0,59,60
 334 377 334 377 353 420 c 128,-1,61
 372 463 372 463 404 511.5 c 128,-1,62
 436 560 436 560 463 588.5 c 128,-1,63
 490 617 490 617 502 627 c 2,64,-1
 514 636 l 2,65,0
 523 642 523 642 529 634 c 128,-1,1
EndSplineSet
EndChar

StartChar: Z
Encoding: 90 90 61
Width: 464
Flags: W
LayerCount: 2
Fore
SplineSet
61.5 569 m 128,-1,1
 58 579 58 579 68 582 c 2,2,-1
 91 590 l 2,3,4
 115 598 115 598 191 604 c 0,5,6
 266 610 266 610 306 614 c 1,7,8
 345 619 345 619 372 620 c 0,9,10
 390 621 390 621 397 617 c 0,11,12
 403 614 403 614 404 607 c 128,-1,13
 405 600 405 600 402 597 c 0,14,15
 395 587 395 587 355 542.5 c 128,-1,16
 315 498 315 498 278 451.5 c 128,-1,17
 241 405 241 405 216 366 c 0,18,19
 191 328 191 328 154 267 c 128,-1,20
 117 206 117 206 89 158 c 0,21,22
 62 110 62 110 53 92 c 0,23,24
 48 80 48 80 48 75 c 1,25,26
 56 71 56 71 85 66 c 0,27,28
 124 60 124 60 167 60 c 0,29,30
 211 60 211 60 273.5 65 c 128,-1,31
 336 70 336 70 380 76 c 2,32,-1
 425 82 l 2,33,34
 436 83 436 83 437.5 72.5 c 128,-1,35
 439 62 439 62 428 61 c 2,36,-1
 383 55 l 2,37,38
 338 49 338 49 275 44 c 256,39,40
 212 39 212 39 167 39 c 256,41,42
 122 39 122 39 82 45 c 0,43,44
 65 48 65 48 58 49.5 c 128,-1,45
 51 51 51 51 42.5 54.5 c 128,-1,46
 34 58 34 58 31 64 c 0,47,48
 23 76 23 76 34 101 c 0,49,50
 43 120 43 120 71 168 c 256,51,52
 99 216 99 216 136.5 277.5 c 128,-1,53
 174 339 174 339 199 378 c 256,54,55
 224 417 224 417 261.5 464 c 128,-1,56
 299 511 299 511 339 557 c 1,57,58
 365 585 365 585 377 599 c 1,59,60
 374 599 374 599 373 599 c 0,61,62
 347 598 347 598 308 594 c 0,63,64
 268 589 268 589 193 583 c 0,65,66
 119 578 119 578 98 570 c 2,67,-1
 74 562 l 2,68,0
 65 559 65 559 61.5 569 c 128,-1,1
EndSplineSet
EndChar

StartChar: bracketleft
Encoding: 91 91 62
Width: 271
Flags: W
LayerCount: 2
Fore
SplineSet
183.5 702.5 m 128,-1,1
 186 692 186 692 176 690 c 1,2,-1
 169 687 l 2,3,4
 162 685 162 685 142 679 c 1,5,6
 123 672 123 672 99 659 c 0,7,8
 76 646 76 646 66 628 c 0,9,10
 56 609 56 609 51 544 c 1,11,12
 47 477 47 477 49 415 c 0,13,14
 51 352 51 352 52 278.5 c 128,-1,15
 53 205 53 205 55 135.5 c 128,-1,16
 57 66 57 66 62.5 7 c 128,-1,17
 68 -52 68 -52 69.5 -66 c 128,-1,18
 71 -80 71 -80 71 -89 c 0,19,20
 71 -93 71 -93 76 -98 c 1,21,22
 83 -103 83 -103 118 -100 c 1,23,24
 159 -98 159 -98 196 -94 c 2,25,-1
 233 -91 l 2,26,27
 244 -90 244 -90 245 -100.5 c 128,-1,28
 246 -111 246 -111 235 -112 c 2,29,-1
 198 -115 l 2,30,31
 161 -118 161 -118 119 -121 c 0,32,33
 73 -125 73 -125 61.5 -114 c 128,-1,34
 50 -103 50 -103 50 -89 c 0,35,36
 50 -81 50 -81 49 -68 c 0,37,38
 48 -54 48 -54 42 5 c 256,39,40
 36 64 36 64 34 135 c 0,41,42
 32 204 32 204 31 278 c 128,-1,43
 30 352 30 352 28 414 c 0,44,45
 26 477 26 477 30 545 c 0,46,47
 35 616 35 616 48 638 c 0,48,49
 61 662 61 662 88 677 c 0,50,51
 114 691 114 691 135 699 c 1,52,53
 155 705 155 705 163 708 c 2,54,-1
 171 710 l 2,55,0
 181 713 181 713 183.5 702.5 c 128,-1,1
EndSplineSet
EndChar

StartChar: backslash
Encoding: 92 92 63
Width: 421
Flags: W
LayerCount: 2
Fore
SplineSet
32.5 648 m 128,-1,1
 42 653 42 653 47 643 c 2,2,-1
 70 600 l 2,3,4
 94 557 94 557 142 459 c 1,5,6
 191 362 191 362 241 270 c 128,-1,7
 291 178 291 178 327 107 c 0,8,9
 363 35 363 35 374 5 c 0,10,11
 386 -25 386 -25 390 -35 c 2,12,-1
 394 -46 l 2,13,14
 398 -55 398 -55 388.5 -59 c 128,-1,15
 379 -63 379 -63 375 -54 c 2,16,-1
 370 -44 l 1,17,18
 366 -33 366 -33 355 -3 c 0,19,20
 343 27 343 27 308 97 c 0,21,22
 272 168 272 168 222 260 c 0,23,24
 172 353 172 353 124 450 c 0,25,26
 75 547 75 547 52 590 c 2,27,-1
 28 633 l 2,28,0
 23 643 23 643 32.5 648 c 128,-1,1
EndSplineSet
EndChar

StartChar: bracketright
Encoding: 93 93 64
Width: 259
Flags: W
LayerCount: 2
Fore
SplineSet
90.5 670.5 m 128,-1,1
 89 681 89 681 99 682 c 2,2,-1
 122 685 l 2,3,4
 145 688 145 688 167 687 c 0,5,6
 190 686 190 686 200.5 677.5 c 128,-1,7
 211 669 211 669 216 649 c 0,8,9
 220 632 220 632 223 581 c 0,10,11
 226 531 226 531 229 470 c 0,12,13
 231 409 231 409 231 358 c 256,14,15
 231 307 231 307 232 255.5 c 128,-1,16
 233 204 233 204 232.5 156 c 128,-1,17
 232 108 232 108 231 80 c 0,18,19
 230 51 230 51 230 17 c 2,20,-1
 230 -35 l 2,21,22
 230 -53 230 -53 231 -62 c 0,23,24
 232 -69 232 -69 228.5 -74 c 128,-1,25
 225 -79 225 -79 216.5 -83 c 128,-1,26
 208 -87 208 -87 203.5 -89 c 128,-1,27
 199 -91 199 -91 186 -95 c 0,28,29
 147 -108 147 -108 105 -124 c 256,30,31
 63 -140 63 -140 52 -144 c 2,32,-1
 41 -148 l 2,33,34
 31 -151 31 -151 27.5 -141 c 128,-1,35
 24 -131 24 -131 34 -128 c 2,36,-1
 45 -124 l 2,37,38
 56 -120 56 -120 98 -104 c 256,39,40
 140 -88 140 -88 179 -75 c 0,41,42
 203 -67 203 -67 210 -62 c 1,43,44
 209 -52 209 -52 209 -35 c 2,45,-1
 209 17 l 2,46,47
 209 51 209 51 210 80 c 256,48,49
 211 109 211 109 211 156 c 0,50,51
 212 204 212 204 211 255 c 0,52,53
 210 307 210 307 210 358 c 0,54,55
 210 408 210 408 207.5 469 c 128,-1,56
 205 530 205 530 202 580 c 0,57,58
 199 629 199 629 196 644 c 0,59,60
 193 657 193 657 187.5 661 c 128,-1,61
 182 665 182 665 166 666 c 0,62,63
 146 667 146 667 125 664 c 2,64,-1
 102 661 l 2,65,0
 92 660 92 660 90.5 670.5 c 128,-1,1
EndSplineSet
EndChar

StartChar: asciicircum
Encoding: 94 94 65
Width: 278
Flags: W
LayerCount: 2
Fore
SplineSet
107 607.5 m 128,-1,1
 117 605 117 605 115 595 c 2,2,-1
 111 578 l 2,3,4
 110 575 110 575 109 571 c 1,5,6
 120 577 120 577 128 566 c 0,7,8
 132 559 132 559 148 531 c 0,9,10
 163 504 163 504 183 471 c 0,11,12
 204 436 204 436 227 398 c 2,13,-1
 250 359 l 2,14,15
 256 350 256 350 247 344.5 c 128,-1,16
 238 339 238 339 232 348 c 2,17,-1
 209 387 l 2,18,19
 186 425 186 425 165 459 c 0,20,21
 145 493 145 493 129 521 c 0,22,23
 123 533 123 533 118 541 c 1,24,25
 115 529 115 529 111 509 c 0,26,27
 105 476 105 476 92 431 c 1,28,29
 80 385 80 385 62 352 c 1,30,31
 62 352 62 352 59.5 346.5 c 128,-1,32
 57 341 57 341 55 338.5 c 128,-1,33
 53 336 53 336 49 331 c 128,-1,34
 45 326 45 326 41.5 327.5 c 128,-1,35
 38 329 38 329 32 331 c 1,36,37
 26 336 26 336 28 349 c 0,38,39
 32 371 32 371 45 415 c 0,40,41
 57 459 57 459 72 512 c 128,-1,42
 87 565 87 565 90 582 c 2,43,-1
 94 600 l 2,44,0
 97 610 97 610 107 607.5 c 128,-1,1
EndSplineSet
EndChar

StartChar: underscore
Encoding: 95 95 66
Width: 374
Flags: W
LayerCount: 2
Fore
SplineSet
27 -36.5 m 128,-1,1
 27 -32 27 -32 30 -29 c 128,-1,2
 33 -26 33 -26 37 -26 c 2,3,-1
 66 -25 l 2,4,5
 94 -25 94 -25 153 -24 c 1,6,7
 211 -22 211 -22 244 -19 c 0,8,9
 278 -15 278 -15 292 -13 c 0,10,11
 307 -11 307 -11 317 -12 c 0,12,13
 326 -13 326 -13 332 -13 c 2,14,-1
 339 -14 l 2,15,16
 349 -16 349 -16 347.5 -26 c 128,-1,17
 346 -36 346 -36 336 -35 c 2,18,-1
 330 -34 l 2,19,20
 324 -34 324 -34 315 -33 c 0,21,22
 308 -32 308 -32 295 -34 c 0,23,24
 281 -36 281 -36 246 -40 c 0,25,26
 212 -43 212 -43 153 -45 c 0,27,28
 95 -46 95 -46 66 -46 c 1,29,-1
 38 -47 l 2,30,31
 33 -47 33 -47 30 -44 c 128,-1,0
 27 -41 27 -41 27 -36.5 c 128,-1,1
EndSplineSet
EndChar

StartChar: grave
Encoding: 96 96 67
Width: 150
Flags: W
LayerCount: 2
Fore
SplineSet
33.5 690 m 128,-1,1
 43 694 43 694 47 684 c 2,2,-1
 50 676 l 2,3,4
 53 669 53 669 60 659 c 0,5,6
 68 649 68 649 86 627 c 256,7,8
 104 605 104 605 113 594 c 2,9,-1
 121 583 l 2,10,11
 128 575 128 575 119.5 568.5 c 128,-1,12
 111 562 111 562 105 570 c 2,13,-1
 96 581 l 2,14,15
 88 592 88 592 70 614 c 256,16,17
 52 636 52 636 43 647 c 1,18,19
 35 659 35 659 31 668 c 2,20,-1
 28 676 l 2,21,0
 24 686 24 686 33.5 690 c 128,-1,1
EndSplineSet
EndChar

StartChar: a
Encoding: 97 97 68
Width: 430
Flags: W
LayerCount: 2
Fore
SplineSet
237 416 m 0,0,1
 231 421 231 421 225 423 c 0,2,3
 209 430 209 430 176.5 425 c 128,-1,4
 144 420 144 420 113 395 c 0,5,6
 82 371 82 371 69 342 c 0,7,8
 55 312 55 312 51 271 c 0,9,10
 47 229 47 229 48.5 185 c 128,-1,11
 50 141 50 141 56 110 c 0,12,13
 62 80 62 80 73 66 c 0,14,15
 83 54 83 54 100 53 c 0,16,17
 117 53 117 53 132 70 c 0,18,19
 149 91 149 91 160 122 c 0,20,21
 172 156 172 156 182 200 c 0,22,23
 193 244 193 244 204 291 c 256,24,25
 215 338 215 338 224 369 c 0,26,27
 233 399 233 399 237 414 c 0,28,29
 237 415 237 415 237 416 c 0,0,1
260 387 m 1,30,31
 258 349 258 349 259 321 c 0,32,33
 260 292 260 292 262 253 c 0,34,35
 265 213 265 213 267 183 c 0,36,37
 268 154 268 154 275.5 124 c 128,-1,38
 283 94 283 94 291 73 c 0,39,40
 300 52 300 52 310 42 c 0,41,42
 317 34 317 34 328 34 c 0,43,44
 341 35 341 35 352 46 c 0,45,46
 364 58 364 58 374 76 c 2,47,-1
 384 96 l 2,48,49
 389 105 389 105 398.5 100.5 c 128,-1,50
 408 96 408 96 403 86 c 2,51,-1
 392 67 l 1,52,53
 381 45 381 45 366 31 c 1,54,55
 350 14 350 14 329 13 c 0,56,57
 309 12 309 12 294 28 c 0,58,59
 282 41 282 41 272 65 c 0,60,61
 262 87 262 87 255 119 c 128,-1,62
 248 151 248 151 246 182 c 0,63,64
 244 212 244 212 241 252 c 0,65,66
 239 291 239 291 238 320 c 0,67,68
 238 329 238 329 238 339 c 1,69,70
 232 315 232 315 225 286 c 0,71,72
 214 239 214 239 203 195 c 0,73,74
 192 150 192 150 180 116 c 0,75,76
 168 80 168 80 148 57 c 0,77,78
 126 32 126 32 99 32 c 0,79,80
 72 33 72 33 56 53 c 0,81,82
 42 72 42 72 35 106 c 0,83,84
 29 139 29 139 27.5 184.5 c 128,-1,85
 26 230 26 230 30 273 c 0,86,87
 35 318 35 318 50 351 c 256,88,89
 65 384 65 384 100 412 c 256,90,91
 135 440 135 440 173.5 445.5 c 128,-1,92
 212 451 212 451 233 443 c 1,93,94
 253 434 253 434 268 412 c 2,95,-1
 281 392 l 2,96,97
 287 383 287 383 278 377.5 c 128,-1,98
 269 372 269 372 264 381 c 2,99,-1
 260 387 l 1,30,31
EndSplineSet
EndChar

StartChar: b
Encoding: 98 98 69
Width: 451
Flags: W
LayerCount: 2
Fore
SplineSet
130 111 m 0,0,1
 133 91 133 91 135 74 c 0,2,3
 135 72 135 72 135 69 c 1,4,5
 143 68 143 68 150 67 c 0,6,7
 178 62 178 62 205 60 c 0,8,9
 231 58 231 58 247 60 c 256,10,11
 263 62 263 62 284 72 c 0,12,13
 305 83 305 83 328 101.5 c 128,-1,14
 351 120 351 120 370 147 c 0,15,16
 390 174 390 174 398 207.5 c 128,-1,17
 406 241 406 241 402 273 c 0,18,19
 397 306 397 306 378 345 c 256,20,21
 359 384 359 384 343 406 c 0,22,23
 327 427 327 427 304 444 c 0,24,25
 284 460 284 460 266.5 460.5 c 128,-1,26
 249 461 249 461 229 448 c 0,27,28
 208 434 208 434 185 405 c 256,29,30
 162 376 162 376 149 341 c 0,31,32
 136 305 136 305 131 269 c 256,33,34
 126 233 126 233 126 192 c 256,35,36
 126 151 126 151 130 111 c 0,0,1
115 51 m 1,37,38
 102 54 102 54 90 56 c 0,39,40
 62 62 62 62 48 66 c 2,41,-1
 35 70 l 2,42,43
 25 73 25 73 27.5 83 c 128,-1,44
 30 93 30 93 40 90 c 2,45,-1
 54 86 l 2,46,47
 67 82 67 82 94 77 c 0,48,49
 103 75 103 75 113 73 c 1,50,51
 111 90 111 90 109 109 c 0,52,53
 106 135 106 135 100 168 c 0,54,55
 99 176 99 176 98 183 c 0,56,57
 90 235 90 235 84 284 c 0,58,59
 77 340 77 340 75 393 c 0,60,61
 74 446 74 446 75 504 c 256,62,63
 76 562 76 562 79 598 c 0,64,65
 83 634 83 634 85 644 c 2,66,-1
 87 653 l 2,67,68
 89 664 89 664 99.5 662 c 128,-1,69
 110 660 110 660 108 649 c 2,70,-1
 106 640 l 2,71,72
 104 631 104 631 100.5 596 c 128,-1,73
 97 561 97 561 96 503 c 0,74,75
 95 446 95 446 96 393 c 1,76,77
 98 341 98 341 104 286 c 0,78,79
 106 271 106 271 108 255 c 1,80,81
 109 264 109 264 110 272 c 0,82,83
 116 310 116 310 129 348 c 0,84,85
 143 386 143 386 168.5 418 c 128,-1,86
 194 450 194 450 218 466 c 0,87,88
 243 482 243 482 267 481 c 0,89,90
 291 481 291 481 317 461 c 0,91,92
 342 442 342 442 359 418 c 1,93,94
 377 395 377 395 397 354 c 0,95,96
 418 312 418 312 423 276 c 0,97,98
 428 239 428 239 418.5 202 c 128,-1,99
 409 165 409 165 387 135 c 0,100,101
 366 106 366 106 341.5 85.5 c 128,-1,102
 317 65 317 65 293 54 c 1,103,104
 269 41 269 41 250 39 c 0,105,106
 232 37 232 37 203 39 c 0,107,108
 175 41 175 41 147 46 c 0,109,110
 142 47 142 47 137 48 c 1,111,112
 138 43 138 43 138 39 c 0,113,114
 140 20 140 20 140 13 c 1,115,116
 140 13 140 13 128 4 c 1,117,118
 121 2 121 2 119 7 c 0,119,120
 119 9 119 9 118 20 c 0,121,122
 118 27 118 27 117 37 c 0,123,124
 117 41 117 41 116 44 c 0,125,126
 116 47 116 47 115 51 c 1,37,38
EndSplineSet
EndChar

StartChar: c
Encoding: 99 99 70
Width: 404
Flags: W
LayerCount: 2
Fore
SplineSet
370.5 295 m 128,-1,1
 361 291 361 291 357 300 c 2,2,-1
 347 323 l 2,3,4
 337 346 337 346 326 366 c 1,5,6
 317 385 317 385 297 405 c 0,7,8
 279 423 279 423 241 428 c 0,9,10
 201 433 201 433 165.5 423 c 128,-1,11
 130 413 130 413 116 403 c 0,12,13
 103 393 103 393 88 375 c 0,14,15
 73 358 73 358 63 330 c 0,16,17
 53 300 53 300 50 270 c 0,18,19
 46 240 46 240 51.5 205.5 c 128,-1,20
 57 171 57 171 73 138 c 0,21,22
 89 104 89 104 107 80 c 1,23,24
 123 57 123 57 135 50 c 1,25,26
 146 42 146 42 163 39 c 0,27,28
 181 36 181 36 193 37 c 0,29,30
 206 39 206 39 218 44 c 256,31,32
 230 49 230 49 244 57 c 0,33,34
 259 66 259 66 267 74 c 0,35,36
 276 82 276 82 283 91 c 256,37,38
 290 100 290 100 296 112 c 0,39,40
 303 125 303 125 307 133 c 128,-1,41
 311 141 311 141 314 147 c 2,42,-1
 317 153 l 2,43,44
 321 162 321 162 330.5 157.5 c 128,-1,45
 340 153 340 153 336 144 c 2,46,-1
 333 138 l 2,47,48
 330 131 330 131 326 123 c 128,-1,49
 322 115 322 115 315 102 c 0,50,51
 307 88 307 88 299 78 c 256,52,53
 291 68 291 68 281 59 c 0,54,55
 271 49 271 49 255 39 c 0,56,57
 239 30 239 30 225 24 c 0,58,59
 212 19 212 19 196 17 c 1,60,61
 181 14 181 14 160 18 c 0,62,63
 138 22 138 22 123 32 c 0,64,65
 109 42 109 42 90 68 c 0,66,67
 71 93 71 93 54 129 c 0,68,69
 36 165 36 165 30.5 202.5 c 128,-1,70
 25 240 25 240 29 273 c 0,71,72
 33 305 33 305 44 336 c 0,73,74
 55 369 55 369 72 389 c 0,75,76
 88 409 88 409 104 420 c 0,77,78
 120 432 120 432 159.5 443 c 128,-1,79
 199 454 199 454 243 449 c 0,80,81
 289 443 289 443 312 419 c 0,82,83
 334 397 334 397 345 375 c 0,84,85
 356 355 356 355 366 332 c 2,86,-1
 376 309 l 2,87,0
 380 299 380 299 370.5 295 c 128,-1,1
EndSplineSet
EndChar

StartChar: d
Encoding: 100 100 71
Width: 479
Flags: W
LayerCount: 2
Fore
SplineSet
303 425 m 1,0,1
 286 433 286 433 242 429 c 0,2,3
 199 426 199 426 153 394 c 256,4,5
 107 362 107 362 85 326 c 0,6,7
 63 289 63 289 53.5 245 c 128,-1,8
 44 201 44 201 50 158 c 256,9,10
 56 115 56 115 64 92 c 0,11,12
 72 70 72 70 90 48 c 0,13,14
 107 28 107 28 130 28 c 256,15,16
 153 28 153 28 180 57 c 0,17,18
 209 88 209 88 235 141 c 256,19,20
 261 194 261 194 270 243 c 0,21,22
 280 294 280 294 296 390 c 0,23,24
 300 408 300 408 303 425 c 1,0,1
327 399 m 1,25,26
 327 390 327 390 326.5 383.5 c 128,-1,27
 326 377 326 377 326 371 c 0,28,29
 326 326 326 326 328 270 c 0,30,31
 331 214 331 214 334 181 c 1,32,33
 338 149 338 149 346 120 c 0,34,35
 354 92 354 92 363 81 c 0,36,37
 370 72 370 72 379 72 c 0,38,39
 390 73 390 73 401 84 c 0,40,41
 414 98 414 98 424 114 c 1,42,-1
 433 131 l 1,43,44
 439 140 439 140 448 134.5 c 128,-1,45
 457 129 457 129 452 120 c 2,46,-1
 442 103 l 2,47,48
 431 85 431 85 416 70 c 0,49,50
 399 52 399 52 380 51 c 0,51,52
 360 50 360 50 346 68 c 0,53,54
 335 83 335 83 326 114 c 256,55,56
 317 145 317 145 313.5 178.5 c 128,-1,57
 310 212 310 212 307 269 c 0,58,59
 306 296 306 296 306 321 c 1,60,61
 297 271 297 271 291 239 c 0,62,63
 281 187 281 187 254 131.5 c 128,-1,64
 227 76 227 76 196 42 c 1,65,66
 162 7 162 7 130 7 c 0,67,68
 97 7 97 7 74 35 c 0,69,70
 53 60 53 60 44 85 c 0,71,72
 36 110 36 110 30 156 c 0,73,74
 23 202 23 202 33.5 249.5 c 128,-1,75
 44 297 44 297 67 336 c 0,76,77
 91 376 91 376 141 412 c 0,78,79
 191 447 191 447 241 450 c 0,80,81
 285 453 285 453 306 447 c 1,82,83
 307 451 307 451 307 453 c 0,84,85
 307 463 307 463 307 475 c 0,86,87
 309 534 309 534 311 591 c 0,88,89
 313 647 313 647 315 673 c 0,90,91
 315 683 315 683 328 694 c 0,92,93
 337 701 337 701 338 689 c 0,94,95
 339 679 339 679 341 636 c 0,96,97
 343 592 343 592 339 537 c 0,98,99
 336 503 336 503 328 451 c 1,100,101
 328 444 328 444 327 435 c 1,102,103
 335 428 335 428 338 421 c 2,104,-1
 343 411 l 2,105,106
 347 402 347 402 338 397 c 1,107,108
 332 395 332 395 327 399 c 1,25,26
EndSplineSet
EndChar

StartChar: e
Encoding: 101 101 72
Width: 411
Flags: W
LayerCount: 2
Fore
SplineSet
48 249 m 1,0,1
 52 253 52 253 57 252 c 1,2,-1
 63 252 l 1,3,4
 70 251 70 251 96.5 252.5 c 128,-1,5
 123 254 123 254 175 261 c 0,6,7
 226 268 226 268 251 278 c 256,8,9
 276 288 276 288 289 301 c 1,10,11
 303 313 303 313 311 327 c 0,12,13
 318 339 318 339 317 353 c 0,14,15
 315 368 315 368 309 383 c 1,16,17
 302 397 302 397 282 416 c 256,18,19
 262 435 262 435 238 439 c 0,20,21
 213 444 213 444 172 429 c 256,22,23
 131 414 131 414 110 395 c 0,24,25
 88 374 88 374 74 350 c 128,-1,26
 60 326 60 326 53 298 c 0,27,28
 47 273 47 273 48 249 c 1,0,1
49 234 m 1,29,30
 52 210 52 210 61 187 c 1,31,32
 71 158 71 158 97 123 c 0,33,34
 122 88 122 88 144 66 c 256,35,36
 166 44 166 44 183 35 c 0,37,38
 198 27 198 27 217 27 c 0,39,40
 237 27 237 27 256 34 c 0,41,42
 274 40 274 40 286 47.5 c 128,-1,43
 298 55 298 55 314.5 72 c 128,-1,44
 331 89 331 89 341 104 c 0,45,46
 352 121 352 121 358 131 c 2,47,-1
 365 142 l 2,48,49
 370 151 370 151 379 145.5 c 128,-1,50
 388 140 388 140 383 131 c 1,51,-1
 376 121 l 1,52,53
 370 109 370 109 359 93 c 0,54,55
 347 76 347 76 329 57.5 c 128,-1,56
 311 39 311 39 297 30 c 128,-1,57
 283 21 283 21 262 14 c 0,58,59
 241 6 241 6 217 6 c 256,60,61
 193 6 193 6 173 17 c 0,62,63
 153 27 153 27 129 51 c 0,64,65
 106 74 106 74 80 111 c 0,66,67
 53 148 53 148 41.5 179.5 c 128,-1,68
 30 211 30 211 27.5 241 c 128,-1,69
 25 271 25 271 32.5 302.5 c 128,-1,70
 40 334 40 334 56 361 c 128,-1,71
 72 388 72 388 95 410 c 0,72,73
 120 433 120 433 165 449 c 0,74,75
 211 465 211 465 241 460 c 0,76,77
 272 454 272 454 296 431 c 0,78,79
 319 409 319 409 328 392 c 1,80,81
 336 374 336 374 338 355 c 0,82,83
 340 334 340 334 329 316 c 0,84,85
 319 300 319 300 303 285 c 256,86,87
 287 270 287 270 259 259 c 256,88,89
 231 248 231 248 178 240 c 0,90,91
 125 233 125 233 97 231.5 c 128,-1,92
 69 230 69 230 62 231 c 1,93,-1
 55 231 l 2,94,95
 52 231 52 231 49 234 c 1,29,30
EndSplineSet
EndChar

StartChar: f
Encoding: 102 102 73
Width: 413
Flags: W
LayerCount: 2
Fore
SplineSet
28 391.5 m 128,-1,1
 23 401 23 401 33 406 c 2,2,-1
 55 417 l 1,3,4
 78 430 78 430 123 442 c 0,5,6
 146 449 146 449 165 453 c 1,7,8
 165 489 165 489 169 509 c 0,9,10
 174 533 174 533 187 565 c 0,11,12
 200 598 200 598 220 616 c 256,13,14
 240 634 240 634 263.5 643 c 128,-1,15
 287 652 287 652 312 651 c 1,16,17
 338 651 338 651 360 641 c 2,18,-1
 380 632 l 2,19,20
 389 628 389 628 385 618.5 c 128,-1,21
 381 609 381 609 371 613 c 2,22,-1
 351 622 l 2,23,24
 334 630 334 630 312 630 c 0,25,26
 290 631 290 631 270.5 623.5 c 128,-1,27
 251 616 251 616 235 600 c 1,28,29
 218 585 218 585 206 557 c 0,30,31
 194 527 194 527 190 505 c 0,32,33
 186 488 186 488 186 457 c 1,34,35
 193 458 193 458 199 459 c 0,36,37
 230 464 230 464 240 464 c 1,38,39
 249 463 249 463 276 464 c 256,40,41
 303 465 303 465 332 466 c 2,42,-1
 361 467 l 2,43,44
 365 467 365 467 368.5 464 c 128,-1,45
 372 461 372 461 372 457 c 128,-1,46
 372 453 372 453 369 449.5 c 128,-1,47
 366 446 366 446 362 446 c 2,48,-1
 333 445 l 2,49,50
 304 444 304 444 276.5 443 c 128,-1,51
 249 442 249 442 240 443 c 0,52,53
 231 443 231 443 202 439 c 0,54,55
 194 438 194 438 186 436 c 1,56,57
 186 389 186 389 188 348 c 0,58,59
 191 305 191 305 191 264 c 0,60,61
 190 222 190 222 191 202 c 0,62,63
 191 182 191 182 193 164 c 0,64,65
 196 145 196 145 197 134 c 0,66,67
 198 122 198 122 202 98 c 256,68,69
 206 74 206 74 206 62 c 0,70,71
 206 51 206 51 206 41 c 2,72,-1
 206 24 l 2,73,74
 206 16 206 16 205 7 c 1,75,-1
 203 -1 l 1,76,77
 202 -11 202 -11 191.5 -9 c 128,-1,78
 181 -7 181 -7 183 3 c 2,79,-1
 184 11 l 2,80,81
 185 18 185 18 185 24 c 2,82,-1
 185 41 l 2,83,84
 185 50 185 50 185 61 c 256,85,86
 185 72 185 72 181 95 c 0,87,88
 177 120 177 120 176 132 c 0,89,90
 175 143 175 143 173 161 c 0,91,92
 170 180 170 180 170 201 c 0,93,94
 169 222 169 222 170 264 c 0,95,96
 170 305 170 305 168 346 c 1,97,98
 165 386 165 386 165 431 c 1,99,100
 148 428 148 428 129 422 c 0,101,102
 86 410 86 410 65 399 c 2,103,-1
 42 387 l 2,104,0
 33 382 33 382 28 391.5 c 128,-1,1
EndSplineSet
EndChar

StartChar: g
Encoding: 103 103 74
Width: 387
Flags: W
LayerCount: 2
Fore
SplineSet
286 178 m 1,0,-1
 277 174 l 1,1,2
 200 136 200 136 137 73 c 0,3,4
 75 12 75 12 59 -37.5 c 128,-1,5
 43 -87 43 -87 50 -122 c 0,6,7
 56 -155 56 -155 78 -173 c 0,8,9
 101 -191 101 -191 148 -195 c 0,10,11
 196 -200 196 -200 230 -186 c 0,12,13
 263 -172 263 -172 279 -146 c 256,14,15
 295 -120 295 -120 299 -79 c 1,16,17
 302 -37 302 -37 297 17 c 0,18,19
 292 72 292 72 288 118 c 0,20,21
 286 147 286 147 286 178 c 1,0,-1
291 457 m 2,22,-1
 241 467 l 2,23,24
 193 477 193 477 163.5 469.5 c 128,-1,25
 134 462 134 462 97 432 c 0,26,27
 61 402 61 402 53 370 c 128,-1,28
 45 338 45 338 58 306 c 0,29,30
 70 275 70 275 101 263 c 0,31,32
 133 250 133 250 168 264 c 0,33,34
 205 278 205 278 227 307 c 1,35,36
 249 338 249 338 259 364 c 0,37,38
 270 390 270 390 279 419 c 128,-1,39
 288 448 288 448 290 454 c 0,40,41
 291 456 291 456 291 457 c 2,22,-1
304 466 m 1,42,43
 313 459 313 459 312 450 c 0,44,45
 312 442 312 442 310 397.5 c 128,-1,46
 308 353 308 353 307 311.5 c 128,-1,47
 306 270 306 270 306 217 c 2,48,-1
 306 212 l 1,49,-1
 346 232 l 2,50,51
 355 236 355 236 360 226.5 c 128,-1,52
 365 217 365 217 355 213 c 2,53,-1
 306 189 l 1,54,55
 307 152 307 152 309 120 c 0,56,57
 312 74 312 74 318 19 c 1,58,59
 323 -37 323 -37 319 -81 c 1,60,61
 316 -127 316 -127 297 -157 c 0,62,63
 278 -188 278 -188 238 -205 c 0,64,65
 200 -221 200 -221 146 -216 c 256,66,67
 92 -211 92 -211 65 -189 c 0,68,69
 37 -167 37 -167 29 -126 c 0,70,71
 22 -86 22 -86 39 -31.5 c 128,-1,72
 56 23 56 23 122 88 c 256,73,74
 188 153 188 153 267 193 c 2,75,-1
 285 202 l 1,76,77
 285 210 285 210 285 217 c 0,78,79
 285 271 285 271 286 312 c 0,80,81
 287 345 287 345 288 381 c 1,82,83
 283 368 283 368 279 356 c 0,84,85
 268 328 268 328 244 295 c 0,86,87
 219 261 219 261 176 244 c 1,88,89
 132 228 132 228 93 243 c 0,90,91
 54 259 54 259 39 298 c 0,92,93
 23 337 23 337 33 375.5 c 128,-1,94
 43 414 43 414 84 448 c 0,95,96
 124 481 124 481 158 490 c 1,97,98
 193 498 193 498 245 488 c 2,99,-1
 296 478 l 2,100,101
 306 476 306 476 304 466 c 1,42,43
EndSplineSet
EndChar

StartChar: h
Encoding: 104 104 75
Width: 410
Flags: W
LayerCount: 2
Fore
SplineSet
54 696 m 128,-1,1
 64 693 64 693 60 683 c 1,2,-1
 58 674 l 1,3,4
 55 666 55 666 52 638 c 0,5,6
 48 610 48 610 48 560 c 0,7,8
 48 509 48 509 50 458 c 128,-1,9
 52 407 52 407 55 346 c 256,10,11
 58 285 58 285 59 223 c 0,12,13
 59 214 59 214 59 206 c 1,14,15
 64 230 64 230 72 253 c 0,16,17
 88 302 88 302 108 339.5 c 128,-1,18
 128 377 128 377 145 399 c 0,19,20
 163 421 163 421 180 432 c 0,21,22
 197 444 197 444 210 444 c 256,23,24
 223 444 223 444 242 426 c 0,25,26
 260 410 260 410 278 374 c 0,27,28
 295 338 295 338 302 296 c 0,29,30
 309 255 309 255 314 216 c 0,31,32
 319 178 319 178 325.5 144 c 128,-1,33
 332 110 332 110 339 81 c 0,34,35
 347 52 347 52 349 41 c 0,36,37
 350 37 350 37 360 34 c 2,38,-1
 375 30 l 2,39,40
 385 28 385 28 382.5 17.5 c 128,-1,41
 380 7 380 7 370 10 c 2,42,-1
 354 14 l 2,43,44
 333 20 333 20 329 36 c 0,45,46
 326 47 326 47 319 76 c 256,47,48
 312 105 312 105 305 140 c 128,-1,49
 298 175 298 175 293 213 c 0,50,51
 288 252 288 252 281 292 c 0,52,53
 275 332 275 332 259 365 c 256,54,55
 243 398 243 398 228 411 c 0,56,57
 215 423 215 423 210 423 c 0,58,59
 203 423 203 423 191 415 c 0,60,61
 177 406 177 406 162 386 c 0,62,63
 146 366 146 366 126.5 330 c 128,-1,64
 107 294 107 294 92 246 c 0,65,66
 76 198 76 198 71 144 c 0,67,68
 68 107 68 107 67 92 c 1,69,70
 74 89 74 89 74 82 c 2,71,-1
 73 75 l 2,72,73
 73 69 73 69 75 56 c 0,74,75
 77 41 77 41 77 31 c 2,76,-1
 77 22 l 1,77,78
 78 18 78 18 75 14.5 c 128,-1,79
 72 11 72 11 67.5 11 c 128,-1,80
 63 11 63 11 60 14 c 128,-1,81
 57 17 57 17 56 21 c 1,82,-1
 56 31 l 2,83,84
 56 39 56 39 54 53 c 0,85,86
 52 68 52 68 52 76 c 1,87,88
 48 76 48 76 47 79 c 0,89,90
 47 82 47 82 46 85 c 0,91,92
 46 88 46 88 45 91 c 0,93,94
 42 109 42 109 40 136 c 0,95,96
 39 162 39 162 38 223 c 256,97,98
 37 284 37 284 34 345 c 256,99,100
 31 406 31 406 29 457.5 c 128,-1,101
 27 509 27 509 27 560 c 256,102,103
 27 611 27 611 31 641 c 0,104,105
 34 670 34 670 38 680 c 1,106,-1
 40 689 l 1,107,0
 44 699 44 699 54 696 c 128,-1,1
EndSplineSet
EndChar

StartChar: i
Encoding: 105 105 76
Width: 239
Flags: W
LayerCount: 2
Fore
SplineSet
30.5 640 m 128,-1,1
 38 647 38 647 45 640 c 2,2,-1
 48 637 l 2,3,4
 56 630 56 630 48.5 622.5 c 128,-1,5
 41 615 41 615 33 622 c 2,6,-1
 30 625 l 2,7,0
 23 633 23 633 30.5 640 c 128,-1,1
42.5 436 m 128,-1,9
 52 441 52 441 57 431 c 2,10,-1
 65 414 l 2,11,12
 75 393 75 393 69 347 c 0,13,14
 64 304 64 304 56 263 c 0,15,16
 48 224 48 224 48 193 c 0,17,18
 48 161 48 161 51 140 c 0,19,20
 53 120 53 120 58 102 c 0,21,22
 63 86 63 86 74 75 c 1,23,24
 86 65 86 65 97 62 c 0,25,26
 106 60 106 60 128 74 c 0,27,28
 151 89 151 89 166 117 c 0,29,30
 182 146 182 146 187 158 c 1,31,-1
 193 169 l 1,32,33
 197 179 197 179 206.5 174.5 c 128,-1,34
 216 170 216 170 212 161 c 2,35,-1
 206 149 l 1,36,37
 201 136 201 136 185 107 c 0,38,39
 168 75 168 75 139 56 c 0,40,41
 109 37 109 37 92 42 c 0,42,43
 76 46 76 46 60 60 c 0,44,45
 45 74 45 74 38 96 c 0,46,47
 32 116 32 116 30 138 c 0,48,49
 27 160 27 160 27 193 c 0,50,51
 27 227 27 227 35 268 c 0,52,53
 43 307 43 307 48 350 c 0,54,55
 53 390 53 390 46 405 c 2,56,-1
 38 422 l 2,57,8
 33 431 33 431 42.5 436 c 128,-1,9
EndSplineSet
EndChar

StartChar: j
Encoding: 106 106 77
Width: 279
Flags: W
LayerCount: 2
Fore
SplineSet
215.5 641.5 m 128,-1,1
 214 652 214 652 225 653 c 2,2,-1
 232 654 l 2,3,4
 240 655 240 655 246 649.5 c 128,-1,5
 252 644 252 644 252 637 c 0,6,7
 253 625 253 625 242 608 c 2,8,-1
 233 595 l 2,9,10
 227 586 227 586 218.5 592 c 128,-1,11
 210 598 210 598 215 606 c 2,12,-1
 224 620 l 2,13,14
 229 627 229 627 231 632 c 1,15,-1
 227 632 l 1,16,0
 217 631 217 631 215.5 641.5 c 128,-1,1
231.5 447 m 128,-1,18
 242 448 242 448 242 437 c 1,19,-1
 243 429 l 2,20,21
 244 420 244 420 247 389 c 0,22,23
 250 357 250 357 250 289 c 0,24,25
 250 223 250 223 250 179.5 c 128,-1,26
 250 136 250 136 249 93.5 c 128,-1,27
 248 51 248 51 245 15 c 0,28,29
 242 -22 242 -22 232 -56 c 0,30,31
 221 -90 221 -90 210 -107 c 256,32,33
 199 -124 199 -124 175 -140 c 1,34,35
 150 -155 150 -155 125 -161 c 0,36,37
 98 -167 98 -167 64 -154 c 2,38,-1
 34 -143 l 2,39,40
 24 -139 24 -139 27.5 -129 c 128,-1,41
 31 -119 31 -119 41 -123 c 2,42,-1
 72 -134 l 1,43,44
 99 -145 99 -145 120 -140 c 0,45,46
 142 -135 142 -135 163 -122 c 256,47,48
 184 -109 184 -109 193 -95 c 256,49,50
 202 -81 202 -81 212 -50 c 0,51,52
 222 -18 222 -18 224 17 c 0,53,54
 227 52 227 52 228 94 c 256,55,56
 229 136 229 136 229 179.5 c 128,-1,57
 229 223 229 223 229 289 c 0,58,59
 229 356 229 356 226 387 c 256,60,61
 223 418 223 418 222 427 c 2,62,-1
 221 436 l 1,63,17
 221 446 221 446 231.5 447 c 128,-1,18
EndSplineSet
EndChar

StartChar: k
Encoding: 107 107 78
Width: 497
Flags: W
LayerCount: 2
Fore
SplineSet
101 273 m 1,0,1
 102 273 102 273 103 273 c 0,2,3
 121 278 121 278 152 293 c 0,4,5
 183 307 183 307 210 336 c 0,6,7
 235 364 235 364 237 380 c 0,8,9
 239 394 239 394 229 402 c 256,10,11
 219 410 219 410 207 408 c 0,12,13
 193 405 193 405 176 390 c 0,14,15
 157 374 157 374 140 348 c 256,16,17
 123 322 123 322 108 290 c 0,18,19
 105 282 105 282 101 273 c 1,0,1
77 268 m 1,20,21
 82 284 82 284 89 299 c 0,22,23
 105 332 105 332 123 359 c 1,24,25
 141 388 141 388 162 406 c 0,26,27
 184 424 184 424 203 428 c 0,28,29
 225 433 225 433 242 418 c 1,30,31
 261 403 261 403 258 378 c 0,32,33
 255 354 255 354 225 322 c 0,34,35
 196 290 196 290 161 274 c 0,36,37
 128 258 128 258 108 253 c 0,38,39
 101 251 101 251 94 249 c 1,40,41
 97 246 97 246 101 242 c 0,42,43
 126 218 126 218 159 182 c 128,-1,44
 192 146 192 146 220 108 c 0,45,46
 246 72 246 72 261 56 c 0,47,48
 275 42 275 42 296 33 c 1,49,50
 315 26 315 26 334 38 c 0,51,52
 356 51 356 51 371 77 c 0,53,54
 387 104 387 104 399 132 c 0,55,56
 411 161 411 161 423 194.5 c 128,-1,57
 435 228 435 228 443 246 c 2,58,-1
 450 264 l 2,59,60
 454 274 454 274 464 270 c 128,-1,61
 474 266 474 266 470 257 c 2,62,-1
 462 238 l 2,63,64
 455 220 455 220 443 187 c 0,65,66
 431 153 431 153 418 124 c 0,67,68
 405 94 405 94 389 66 c 0,69,70
 372 36 372 36 345 20 c 0,71,72
 317 3 317 3 288 14 c 0,73,74
 263 24 263 24 246 41 c 0,75,76
 230 58 230 58 203 96 c 0,77,78
 176 133 176 133 144 168 c 0,79,80
 111 203 111 203 87 227 c 1,81,82
 86 224 86 224 86 223 c 0,83,84
 78 186 78 186 71 138 c 0,85,86
 63 90 63 90 61 56 c 0,87,88
 61 39 61 39 46 29 c 0,89,90
 39 24 39 24 39 30 c 256,91,92
 39 36 39 36 37 53 c 0,93,94
 35 71 35 71 34 98 c 128,-1,95
 33 125 33 125 33 161 c 0,96,97
 33 198 33 198 32 237 c 0,98,99
 32 274 32 274 32 317 c 1,100,101
 31 357 31 357 29 407 c 1,102,103
 26 456 26 456 27 499 c 0,104,105
 29 542 29 542 35 580 c 0,106,107
 41 619 41 619 49 642 c 2,108,-1
 56 665 l 2,109,110
 60 675 60 675 69.5 671.5 c 128,-1,111
 79 668 79 668 76 658 c 2,112,-1
 68 635 l 2,113,114
 61 614 61 614 55 577 c 0,115,116
 50 540 50 540 48 499 c 1,117,118
 47 457 47 457 50 408 c 1,119,120
 52 358 52 358 53 317 c 0,121,122
 53 276 53 276 53 237 c 1,123,124
 54 200 54 200 54 166 c 1,125,126
 60 200 60 200 66 227 c 0,127,128
 67 236 67 236 70 245 c 1,129,130
 68 247 68 247 67 251.5 c 128,-1,131
 66 256 66 256 68 261.5 c 128,-1,132
 70 267 70 267 77 268 c 1,20,21
EndSplineSet
EndChar

StartChar: l
Encoding: 108 108 79
Width: 190
Flags: W
LayerCount: 2
Fore
SplineSet
48.5 681 m 128,-1,1
 59 680 59 680 57 669 c 1,2,-1
 56 652 l 1,3,4
 54 636 54 636 52 587.5 c 128,-1,5
 50 539 50 539 50 484 c 1,6,7
 51 430 51 430 50.5 373.5 c 128,-1,8
 50 317 50 317 49 265 c 1,9,10
 47 214 47 214 50 183 c 0,11,12
 54 150 54 150 58 128 c 0,13,14
 61 106 61 106 66 95 c 0,15,16
 72 83 72 83 81 72 c 1,17,18
 86 64 86 64 98 67 c 0,19,20
 113 71 113 71 129 84 c 1,21,-1
 146 100 l 2,22,23
 154 107 154 107 161 99 c 128,-1,24
 168 91 168 91 160 84 c 2,25,-1
 143 69 l 2,26,27
 124 52 124 52 103 47 c 0,28,29
 78 41 78 41 64 59 c 0,30,31
 54 72 54 72 48 86 c 0,32,33
 41 100 41 100 37 124 c 256,34,35
 33 148 33 148 30 180 c 0,36,37
 26 213 26 213 28 266 c 0,38,39
 29 317 29 317 29.5 373.5 c 128,-1,40
 30 430 30 430 29.5 484.5 c 128,-1,41
 29 539 29 539 31 588 c 128,-1,42
 33 637 33 637 35 654 c 2,43,-1
 37 671 l 2,44,0
 38 682 38 682 48.5 681 c 128,-1,1
EndSplineSet
EndChar

StartChar: m
Encoding: 109 109 80
Width: 654
Flags: W
LayerCount: 2
Fore
SplineSet
619 172 m 1,0,1
 619 145 619 145 619 128 c 0,2,3
 619 112 619 112 619 96 c 1,4,5
 620 82 620 82 621 68 c 0,6,7
 623 54 623 54 624 44 c 0,8,9
 626 33 626 33 626 24 c 2,10,-1
 627 15 l 2,11,12
 628 4 628 4 617.5 3 c 128,-1,13
 607 2 607 2 606 13 c 1,14,-1
 606 22 l 1,15,16
 605 31 605 31 603 41 c 1,17,18
 602 52 602 52 600.5 66 c 128,-1,19
 599 80 599 80 598 96 c 0,20,21
 598 112 598 112 598 128.5 c 128,-1,22
 598 145 598 145 598 173 c 1,23,24
 599 194 599 194 599 225 c 128,-1,25
 599 256 599 256 594 301 c 256,26,27
 589 346 589 346 579 373 c 0,28,29
 570 399 570 399 554 421 c 0,30,31
 538 442 538 442 522 450 c 0,32,33
 507 457 507 457 489 449 c 0,34,35
 468 440 468 440 452 422 c 0,36,37
 435 404 435 404 419 377 c 0,38,39
 403 349 403 349 389 315 c 128,-1,40
 375 281 375 281 365 244 c 128,-1,41
 355 207 355 207 347.5 155.5 c 128,-1,42
 340 104 340 104 339 83 c 0,43,44
 339 72 339 72 326 68 c 0,45,46
 318 66 318 66 318 71 c 0,47,48
 318 80 318 80 316 108 c 0,49,50
 313 136 313 136 311.5 164 c 128,-1,51
 310 192 310 192 309 225 c 0,52,53
 307 258 307 258 303 300 c 0,54,55
 299 341 299 341 291 373 c 256,56,57
 283 405 283 405 268 430 c 0,58,59
 254 453 254 453 223 467 c 0,60,61
 193 480 193 480 163 469 c 0,62,63
 132 457 132 457 109 426 c 0,64,65
 86 394 86 394 71 344 c 256,66,67
 56 294 56 294 52 245 c 0,68,69
 48 195 48 195 48 152 c 128,-1,70
 48 109 48 109 53 83 c 2,71,-1
 58 56 l 2,72,73
 60 46 60 46 49.5 44 c 128,-1,74
 39 42 39 42 37 53 c 2,75,-1
 32 79 l 2,76,77
 27 107 27 107 27 152 c 256,78,79
 27 197 27 197 31 247 c 0,80,81
 35 298 35 298 51 350 c 1,82,83
 66 403 66 403 92 438 c 0,84,85
 119 474 119 474 155 488 c 0,86,87
 193 503 193 503 231 486 c 0,88,89
 269 470 269 470 286 441 c 0,90,91
 302 414 302 414 311 379 c 256,92,93
 320 344 320 344 324 301.5 c 128,-1,94
 328 259 328 259 330 226 c 0,95,96
 331 208 331 208 332 189 c 1,97,98
 338 223 338 223 345 249 c 0,99,100
 355 288 355 288 369.5 323 c 128,-1,101
 384 358 384 358 401 387 c 0,102,103
 418 417 418 417 436 437 c 0,104,105
 455 457 455 457 480 468 c 0,106,107
 507 480 507 480 531 469 c 1,108,109
 552 458 552 458 571 434 c 1,110,111
 588 410 588 410 599 380 c 0,112,113
 610 351 610 351 615 304 c 256,114,115
 620 257 620 257 620 225 c 0,116,117
 620 194 620 194 619 172 c 1,0,1
EndSplineSet
EndChar

StartChar: n
Encoding: 110 110 81
Width: 456
Flags: W
LayerCount: 2
Fore
SplineSet
60 403 m 0,0,1
 60 396 60 396 60 392 c 1,2,3
 68 403 68 403 79 414 c 1,4,5
 100 438 100 438 119 451 c 1,6,7
 139 466 139 466 157 472 c 0,8,9
 175 479 175 479 193 476 c 0,10,11
 209 473 209 473 222 467 c 0,12,13
 236 461 236 461 252 447.5 c 128,-1,14
 268 434 268 434 281 415 c 0,15,16
 293 396 293 396 299 367 c 1,17,18
 306 340 306 340 309 315 c 256,19,20
 312 290 312 290 316 267 c 0,21,22
 319 244 319 244 320 210 c 0,23,24
 321 177 321 177 322 152.5 c 128,-1,25
 323 128 323 128 326 108 c 0,26,27
 328 89 328 89 331.5 75 c 128,-1,28
 335 61 335 61 340 52 c 0,29,30
 343 46 343 46 356 40 c 0,31,32
 370 33 370 33 393 37 c 2,33,-1
 418 41 l 2,34,35
 428 43 428 43 430 32.5 c 128,-1,36
 432 22 432 22 421 20 c 2,37,-1
 396 16 l 2,38,39
 368 12 368 12 348 20 c 1,40,41
 327 30 327 30 321 43 c 0,42,43
 316 54 316 54 311.5 69.5 c 128,-1,44
 307 85 307 85 305 106 c 1,45,46
 302 126 302 126 301 151.5 c 128,-1,47
 300 177 300 177 299 210 c 0,48,49
 298 242 298 242 295 264 c 0,50,51
 291 287 291 287 288 312 c 0,52,53
 285 336 285 336 279 362 c 0,54,55
 273 387 273 387 263 404 c 1,56,57
 252 420 252 420 238.5 431.5 c 128,-1,58
 225 443 225 443 214 448 c 256,59,60
 203 453 203 453 189 455 c 0,61,62
 177 457 177 457 164 452 c 0,63,64
 149 447 149 447 131 434 c 256,65,66
 113 421 113 421 94 400 c 0,67,68
 75 378 75 378 64 363 c 0,69,70
 61 359 61 359 58 355 c 1,71,72
 57 320 57 320 58 276 c 1,73,74
 58 226 58 226 58 179 c 0,75,76
 57 130 57 130 54 98 c 0,77,78
 51 68 51 68 49 50 c 2,79,-1
 48 35 l 2,80,81
 47 24 47 24 36.5 25 c 128,-1,82
 26 26 26 26 27 37 c 2,83,-1
 29 52 l 1,84,85
 30 68 30 68 33 100 c 0,86,87
 36 131 36 131 37 178 c 1,88,89
 37 227 37 227 37 276 c 1,90,91
 36 318 36 318 37 353 c 1,92,93
 35 357 35 357 36 362 c 0,94,95
 37 368 37 368 38 377 c 0,96,97
 38 378 38 378 38 378 c 2,98,99
 38 391 38 391 39 402 c 1,100,101
 38 418 38 418 38 433 c 0,102,103
 37 450 37 450 37 461 c 0,104,105
 37 463 37 463 42 467 c 128,-1,106
 47 471 47 471 52 471.5 c 128,-1,107
 57 472 57 472 59 466 c 1,108,109
 60 457 60 457 60 450 c 256,110,111
 60 443 60 443 60 423 c 0,112,113
 60 414 60 414 60 403 c 0,0,1
EndSplineSet
EndChar

StartChar: o
Encoding: 111 111 82
Width: 431
Flags: W
LayerCount: 2
Fore
SplineSet
157 447 m 1,0,1
 138 441 138 441 120 430 c 0,2,3
 80 407 80 407 63 373 c 0,4,5
 46 338 46 338 48 290 c 0,6,7
 50 240 50 240 72 196 c 128,-1,8
 94 152 94 152 140 115 c 256,9,10
 186 78 186 78 218 73 c 1,11,12
 251 69 251 69 298 93 c 0,13,14
 345 116 345 116 366 162 c 0,15,16
 388 209 388 209 382 249 c 1,17,18
 377 290 377 290 350 334 c 1,19,20
 325 378 325 378 257 410 c 0,21,22
 187 443 187 443 175 444 c 2,23,-1
 161 446 l 2,24,25
 159 446 159 446 157 447 c 1,0,1
223 449 m 1,26,27
 241 441 241 441 266 429 c 0,28,29
 339 394 339 394 369 345 c 1,30,31
 397 297 397 297 403 252 c 0,32,33
 409 206 409 206 385 153 c 256,34,35
 361 100 361 100 307 74 c 0,36,37
 254 48 254 48 215.5 53 c 128,-1,38
 177 58 177 58 127 98 c 0,39,40
 77 139 77 139 53 187 c 128,-1,41
 29 235 29 235 27 289 c 256,42,43
 25 343 25 343 44 382 c 0,44,45
 64 421 64 421 109 448 c 0,46,47
 148 472 148 472 187 472 c 0,48,49
 193 472 193 472 199 472 c 0,50,51
 241 469 241 469 267 463 c 2,52,-1
 293 457 l 2,53,54
 303 455 303 455 300.5 444.5 c 128,-1,55
 298 434 298 434 288 437 c 2,56,-1
 262 443 l 2,57,58
 246 446 246 446 223 449 c 1,26,27
EndSplineSet
EndChar

StartChar: p
Encoding: 112 112 83
Width: 376
Flags: W
LayerCount: 2
Fore
SplineSet
48 355 m 1,0,-1
 50 373 l 2,1,2
 51 383 51 383 61 382 c 0,3,4
 64 382 64 382 66 381 c 1,5,-1
 71 388 l 2,6,7
 95 423 95 423 122 440 c 0,8,9
 150 457 150 457 182 460 c 256,10,11
 214 463 214 463 247 446 c 0,12,13
 279 430 279 430 303 397 c 0,14,15
 326 364 326 364 337 327 c 256,16,17
 348 290 348 290 349 249 c 0,18,19
 351 206 351 206 339 177 c 0,20,21
 328 148 328 148 302 125 c 0,22,23
 277 103 277 103 250 92 c 128,-1,24
 223 81 223 81 188 79 c 0,25,26
 153 76 153 76 130 79 c 0,27,28
 108 81 108 81 84 86 c 0,29,30
 76 87 76 87 70 89 c 1,31,32
 72 53 72 53 73 15 c 0,33,34
 75 -51 75 -51 76.5 -89.5 c 128,-1,35
 78 -128 78 -128 78 -140 c 2,36,-1
 78 -151 l 2,37,38
 78 -155 78 -155 74.5 -158 c 128,-1,39
 71 -161 71 -161 67 -161 c 128,-1,40
 63 -161 63 -161 60 -158 c 128,-1,41
 57 -155 57 -155 57 -151 c 2,42,-1
 57 -140 l 2,43,44
 57 -128 57 -128 55.5 -89.5 c 128,-1,45
 54 -51 54 -51 52 14 c 0,46,47
 51 55 51 55 49 94 c 0,48,49
 48 94 48 94 47 94 c 2,50,-1
 35 98 l 1,51,52
 25 100 25 100 27.5 110.5 c 128,-1,53
 30 121 30 121 40 118 c 2,54,-1
 47 116 l 1,55,56
 47 127 47 127 46 139 c 0,57,58
 42 198 42 198 43 263 c 0,59,60
 44 320 44 320 47 344 c 1,61,62
 44 350 44 350 47 355 c 1,63,-1
 48 355 l 1,0,-1
69 110 m 1,64,65
 77 109 77 109 88 106 c 1,66,67
 112 102 112 102 133 99 c 0,68,69
 154 97 154 97 186 100 c 0,70,71
 218 102 218 102 241.5 112 c 128,-1,72
 265 122 265 122 288 141 c 0,73,74
 310 160 310 160 320 185 c 256,75,76
 330 210 330 210 328 248 c 1,77,78
 327 287 327 287 317 321 c 256,79,80
 307 355 307 355 286 384 c 256,81,82
 265 413 265 413 237 428 c 0,83,84
 210 442 210 442 184 439 c 0,85,86
 157 436 157 436 133 422 c 1,87,88
 110 407 110 407 88 376 c 2,89,-1
 68 348 l 1,90,91
 65 325 65 325 64 263 c 0,92,93
 63 199 63 199 67 140 c 0,94,95
 68 125 68 125 69 110 c 1,64,65
EndSplineSet
EndChar

StartChar: q
Encoding: 113 113 84
Width: 576
Flags: W
LayerCount: 2
Fore
SplineSet
362 375 m 1,0,1
 363 372 363 372 363 368 c 0,2,3
 364 358 364 358 364 318 c 2,4,-1
 364 107 l 2,5,6
 364 58 364 58 364 28.5 c 128,-1,7
 364 -1 364 -1 367 -36 c 1,8,9
 369 -72 369 -72 375.5 -99.5 c 128,-1,10
 382 -127 382 -127 387 -140 c 0,11,12
 389 -146 389 -146 394 -145 c 0,13,14
 404 -143 404 -143 429 -114 c 0,15,16
 456 -84 456 -84 492 -29 c 1,17,-1
 530 26 l 2,18,19
 536 35 536 35 544.5 29 c 128,-1,20
 553 23 553 23 547 14 c 2,21,-1
 510 -41 l 2,22,23
 472 -97 472 -97 445 -128 c 0,24,25
 415 -162 415 -162 398 -165 c 0,26,27
 376 -170 376 -170 367 -148 c 1,28,29
 362 -133 362 -133 355 -104 c 128,-1,30
 348 -75 348 -75 346 -38 c 0,31,32
 343 -1 343 -1 343 28.5 c 128,-1,33
 343 58 343 58 343 107 c 2,34,-1
 343 312 l 1,35,36
 338 300 338 300 332 289 c 0,37,38
 312 246 312 246 266 195 c 0,39,40
 219 142 219 142 189 133 c 256,41,42
 159 124 159 124 122 139 c 1,43,44
 87 155 87 155 61 190 c 1,45,46
 36 226 36 226 29 273 c 0,47,48
 22 322 22 322 41 359 c 0,49,50
 60 395 60 395 106 425 c 1,51,52
 153 454 153 454 210 452 c 0,53,54
 266 450 266 450 296 437 c 1,55,56
 325 423 325 423 344 403 c 1,57,-1
 360 384 l 2,58,59
 363 381 363 381 362 375 c 1,0,1
336 356 m 1,60,61
 340 370 340 370 341 374 c 1,62,-1
 328 389 l 2,63,64
 313 406 313 406 287 417 c 0,65,66
 261 429 261 429 209 431 c 0,67,68
 158 433 158 433 118 407 c 0,69,70
 77 381 77 381 60 349 c 0,71,72
 44 318 44 318 50 276 c 256,73,74
 56 234 56 234 78 203 c 256,75,76
 100 172 100 172 130 159 c 256,77,78
 160 146 160 146 183 153 c 0,79,80
 207 161 207 161 250 209 c 0,81,82
 295 258 295 258 313.5 297.5 c 128,-1,83
 332 337 332 337 336 356 c 1,60,61
EndSplineSet
EndChar

StartChar: r
Encoding: 114 114 85
Width: 354
Flags: W
LayerCount: 2
Fore
SplineSet
38.5 302.5 m 128,-1,1
 34 302 34 302 31 305 c 128,-1,2
 28 308 28 308 28 313 c 2,3,-1
 27 330 l 1,4,5
 27 349 27 349 34 383 c 256,6,7
 41 417 41 417 50 429 c 0,8,9
 63 448 63 448 83 436 c 0,10,11
 97 427 97 427 121 384 c 1,12,13
 136 354 136 354 145 320 c 1,14,15
 151 339 151 339 158 358 c 0,16,17
 174 398 174 398 186 417 c 0,18,19
 199 436 199 436 222 448 c 0,20,21
 245 459 245 459 282 461 c 2,22,-1
 316 463 l 2,23,24
 327 464 327 464 327.5 453.5 c 128,-1,25
 328 443 328 443 318 442 c 2,26,-1
 283 440 l 2,27,28
 250 438 250 438 231 429 c 0,29,30
 213 420 213 420 203 405 c 0,31,32
 193 389 193 389 178 350 c 1,33,34
 165 319 165 319 158 287 c 0,35,36
 156 281 156 281 155 274 c 0,37,38
 154 270 154 270 153 266 c 1,39,40
 157 226 157 226 157 195 c 0,41,42
 157 155 157 155 159 127 c 0,43,44
 161 98 161 98 161 86 c 1,45,46
 167 76 167 76 153 72 c 0,47,48
 146 70 146 70 142 74.5 c 128,-1,49
 138 79 138 79 136.5 84 c 128,-1,50
 135 89 135 89 134 96.5 c 128,-1,51
 133 104 133 104 133 105 c 0,52,53
 125 140 125 140 126 190 c 0,54,55
 126 231 126 231 132 266 c 1,56,57
 131 275 131 275 130 285 c 0,58,59
 123 334 123 334 102 374 c 0,60,61
 82 412 82 412 72 418 c 0,62,63
 70 419 70 419 69 419 c 256,64,65
 68 419 68 419 67 417 c 0,66,67
 61 409 61 409 54 378 c 0,68,69
 48 347 48 347 48 331 c 2,70,-1
 48 313 l 1,71,72
 49 309 49 309 46 306 c 128,-1,0
 43 303 43 303 38.5 302.5 c 128,-1,1
EndSplineSet
EndChar

StartChar: s
Encoding: 115 115 86
Width: 389
Flags: W
LayerCount: 2
Fore
SplineSet
353 407 m 128,-1,1
 350 397 350 397 340 400 c 2,2,-1
 332 403 l 2,3,4
 325 405 325 405 279 418 c 0,5,6
 235 431 235 431 201 425 c 1,7,8
 166 420 166 420 136 402 c 0,9,10
 107 385 107 385 99 365.5 c 128,-1,11
 91 346 91 346 100 308 c 0,12,13
 109 273 109 273 130 266 c 0,14,15
 154 259 154 259 191 264 c 0,16,17
 232 269 232 269 258 262 c 0,18,19
 285 255 285 255 315.5 226.5 c 128,-1,20
 346 198 346 198 356 170 c 0,21,22
 367 141 367 141 357 113 c 0,23,24
 348 86 348 86 317 60 c 0,25,26
 287 34 287 34 239 17 c 0,27,28
 189 -1 189 -1 142 10 c 0,29,30
 95 22 95 22 68 47 c 0,31,32
 40 74 40 74 33 124 c 2,33,-1
 27 171 l 2,34,35
 26 181 26 181 36.5 182.5 c 128,-1,36
 47 184 47 184 48 174 c 2,37,-1
 54 127 l 2,38,39
 60 84 60 84 82 63 c 0,40,41
 105 41 105 41 147 31 c 0,42,43
 188 21 188 21 232 36 c 0,44,45
 277 52 277 52 304 76 c 0,46,47
 330 98 330 98 338 120 c 0,48,49
 345 141 345 141 337 163 c 0,50,51
 328 186 328 186 301.5 211 c 128,-1,52
 275 236 275 236 253 241 c 0,53,54
 230 247 230 247 193 243 c 0,55,56
 152 238 152 238 124 246 c 0,57,58
 92 256 92 256 80 303 c 0,59,60
 69 348 69 348 79.5 373.5 c 128,-1,61
 90 399 90 399 125 420 c 0,62,63
 159 440 159 440 197 446 c 0,64,65
 236 452 236 452 285 438 c 0,66,67
 331 425 331 425 339 423 c 1,68,-1
 346 420 l 1,69,0
 356 417 356 417 353 407 c 128,-1,1
EndSplineSet
EndChar

StartChar: t
Encoding: 116 116 87
Width: 408
Flags: W
LayerCount: 2
Fore
SplineSet
27 430 m 128,-1,1
 25 440 25 440 35 443 c 2,2,-1
 102 457 l 2,3,4
 116 460 116 460 129 463 c 1,5,6
 129 508 129 508 129 527 c 0,7,8
 128 552 128 552 129 560 c 2,9,-1
 130 567 l 2,10,11
 131 577 131 577 141.5 576 c 128,-1,12
 152 575 152 575 151 564 c 2,13,-1
 150 557 l 2,14,15
 149 551 149 551 150 527 c 0,16,17
 150 510 150 510 150 467 c 1,18,19
 189 475 189 475 222 482 c 0,20,21
 276 492 276 492 294 495 c 2,22,-1
 312 499 l 2,23,24
 322 501 322 501 324 490.5 c 128,-1,25
 326 480 326 480 316 478 c 2,26,-1
 298 475 l 2,27,28
 280 471 280 471 226 461 c 0,29,30
 191 455 191 455 151 446 c 1,31,32
 151 437 151 437 151 431 c 0,33,34
 152 359 152 359 154 294 c 0,35,36
 157 229 157 229 165 172 c 0,37,38
 172 115 172 115 180 88 c 0,39,40
 188 64 188 64 207 47 c 0,41,42
 225 31 225 31 244 32 c 1,43,44
 265 32 265 32 292 50 c 0,45,46
 319 69 319 69 340 103 c 2,47,-1
 362 139 l 2,48,49
 367 148 367 148 376 142.5 c 128,-1,50
 385 137 385 137 380 128 c 2,51,-1
 358 92 l 2,52,53
 335 54 335 54 303 33 c 0,54,55
 271 11 271 11 245 11 c 0,56,57
 217 10 217 10 193 31 c 0,58,59
 170 52 170 52 160 82 c 1,60,61
 152 110 152 110 144 169 c 0,62,63
 136 227 136 227 133 293 c 0,64,65
 131 359 131 359 130 431 c 0,66,67
 130 436 130 436 130 442 c 1,68,69
 118 439 118 439 106 437 c 2,70,-1
 40 422 l 2,71,0
 29 420 29 420 27 430 c 128,-1,1
EndSplineSet
EndChar

StartChar: u
Encoding: 117 117 88
Width: 445
Flags: W
LayerCount: 2
Fore
SplineSet
314 311 m 1,0,1
 314 292 314 292 315 274 c 0,2,3
 316 252 316 252 317 229 c 0,4,5
 317 206 317 206 319 185.5 c 128,-1,6
 321 165 321 165 324 143 c 0,7,8
 327 122 327 122 331.5 103.5 c 128,-1,9
 336 85 336 85 341 73 c 128,-1,10
 346 61 346 61 350 55 c 1,11,12
 352 50 352 50 358 46 c 1,13,14
 362 42 362 42 371 42 c 0,15,16
 381 42 381 42 391 46 c 2,17,-1
 404 52 l 2,18,19
 413 56 413 56 417.5 46.5 c 128,-1,20
 422 37 422 37 412 33 c 2,21,-1
 400 27 l 1,22,23
 385 21 385 21 370 21 c 0,24,25
 354 21 354 21 344 29 c 0,26,27
 336 36 336 36 331 45 c 0,28,29
 327 51 327 51 321.5 65 c 128,-1,30
 316 79 316 79 311 98.5 c 128,-1,31
 306 118 306 118 303 140 c 256,32,33
 300 162 300 162 298 183 c 256,34,35
 296 204 296 204 296 227 c 1,36,37
 295 224 295 224 294 220 c 0,38,39
 282 178 282 178 266 144 c 0,40,41
 249 109 249 109 221 86 c 0,42,43
 193 64 193 64 169 56 c 0,44,45
 145 49 145 49 115 56 c 1,46,47
 83 65 83 65 74 85 c 1,48,49
 66 100 66 100 59 120 c 0,50,51
 52 139 52 139 47 167 c 0,52,53
 43 195 43 195 38 234 c 128,-1,54
 33 273 33 273 30 303 c 0,55,56
 27 334 27 334 27 371 c 0,57,58
 27 409 27 409 34 429 c 2,59,-1
 40 446 l 2,60,61
 43 456 43 456 53 453 c 128,-1,62
 63 450 63 450 60 440 c 2,63,-1
 54 422 l 2,64,65
 48 406 48 406 48 371 c 256,66,67
 48 336 48 336 51 306 c 0,68,69
 54 275 54 275 59 237 c 0,70,71
 64 198 64 198 68 171 c 256,72,73
 72 144 72 144 79 127 c 1,74,75
 85 109 85 109 93 94 c 0,76,77
 98 83 98 83 120 77 c 0,78,79
 144 70 144 70 163 76 c 0,80,81
 183 83 183 83 208 103 c 0,82,83
 232 123 232 123 247 153 c 1,84,85
 262 186 262 186 274 226 c 0,86,87
 281 252 281 252 286 275 c 0,88,89
 289 288 289 288 291 300 c 0,90,91
 292 306 292 306 293 313 c 1,92,-1
 293 318 l 2,93,94
 293 340 293 340 294 364 c 0,95,96
 295 390 295 390 298 400 c 0,97,98
 298 403 298 403 299 405.5 c 128,-1,99
 300 408 300 408 304.5 412.5 c 128,-1,100
 309 417 309 417 316 409 c 0,101,102
 319 407 319 407 320.5 404.5 c 128,-1,103
 322 402 322 402 321.5 400 c 128,-1,104
 321 398 321 398 321 396 c 128,-1,105
 321 394 321 394 320 393 c 1,106,107
 320 380 320 380 319 356 c 0,108,109
 318 337 318 337 314 311 c 1,0,1
EndSplineSet
EndChar

StartChar: v
Encoding: 118 118 89
Width: 434
Flags: W
LayerCount: 2
Fore
SplineSet
33.5 463 m 128,-1,1
 43 467 43 467 47 458 c 2,2,-1
 67 415 l 2,3,4
 87 372 87 372 117 303 c 128,-1,5
 147 234 147 234 171.5 175 c 128,-1,6
 196 116 196 116 212 77 c 0,7,8
 220 57 220 57 226 55 c 0,9,10
 227 55 227 55 228 56 c 0,11,12
 241 67 241 67 253 112 c 0,13,14
 266 160 266 160 281 219 c 1,15,16
 295 279 295 279 308 328.5 c 128,-1,17
 321 378 321 378 329 410 c 1,18,19
 338 441 338 441 352 477 c 256,20,21
 366 513 366 513 378 530 c 2,22,-1
 389 547 l 2,23,24
 395 556 395 556 403.5 550 c 128,-1,25
 412 544 412 544 406 535 c 2,26,-1
 395 519 l 2,27,28
 385 503 385 503 372 469 c 0,29,30
 358 435 358 435 350 404 c 0,31,32
 341 373 341 373 328 324 c 1,33,34
 316 274 316 274 301 214 c 0,35,36
 287 154 287 154 274 106 c 0,37,38
 260 55 260 55 241 39 c 1,39,40
 232 33 232 33 222.5 34.5 c 128,-1,41
 213 36 213 36 206 44.5 c 128,-1,42
 199 53 199 53 193 69 c 0,43,44
 177 108 177 108 152 167 c 128,-1,45
 127 226 127 226 97.5 295 c 128,-1,46
 68 364 68 364 48 406 c 2,47,-1
 28 449 l 2,48,0
 24 459 24 459 33.5 463 c 128,-1,1
EndSplineSet
EndChar

StartChar: w
Encoding: 119 119 90
Width: 598
Flags: W
LayerCount: 2
Fore
SplineSet
34 443.5 m 128,-1,1
 44 447 44 447 47 437 c 2,2,-1
 64 390 l 1,3,4
 80 342 80 342 104 283 c 128,-1,5
 128 224 128 224 150 175 c 0,6,7
 173 125 173 125 188 89 c 0,8,9
 194 75 194 75 198 65 c 1,10,11
 202 76 202 76 206 91 c 0,12,13
 220 146 220 146 236 214 c 0,14,15
 252 283 252 283 264 329 c 0,16,17
 275 372 275 372 277 390 c 1,18,19
 278 410 278 410 279 418 c 0,20,21
 283 447 283 447 311 406 c 0,22,23
 314 401 314 401 315 400 c 0,24,25
 331 370 331 370 350 315 c 0,26,27
 369 262 369 262 384 216 c 256,28,29
 399 170 399 170 410 143.5 c 128,-1,30
 421 117 421 117 429 100 c 128,-1,31
 437 83 437 83 442 72 c 0,32,33
 443 70 443 70 444 68 c 1,34,35
 447 78 447 78 452 95 c 0,36,37
 463 128 463 128 475 175 c 0,38,39
 488 223 488 223 505.5 286 c 128,-1,40
 523 349 523 349 533 391 c 0,41,42
 544 433 544 433 547 453 c 2,43,-1
 551 474 l 2,44,45
 553 484 553 484 563 482.5 c 128,-1,46
 573 481 573 481 571 471 c 2,47,-1
 568 450 l 2,48,49
 564 428 564 428 554 386 c 0,50,51
 543 344 543 344 526 281 c 0,52,53
 508 218 508 218 495.5 170 c 128,-1,54
 483 122 483 122 472.5 89 c 128,-1,55
 462 56 462 56 459 49 c 0,56,57
 456 40 456 40 447 39.5 c 128,-1,58
 438 39 438 39 434 45 c 0,59,60
 428 53 428 53 423 64 c 256,61,62
 418 75 418 75 410 91 c 0,63,64
 402 109 402 109 391 136 c 128,-1,65
 380 163 380 163 364 209 c 0,66,67
 349 255 349 255 330 308 c 0,68,69
 312 360 312 360 298 388 c 1,70,71
 296 367 296 367 284.5 322.5 c 128,-1,72
 273 278 273 278 257 210 c 0,73,74
 241 140 241 140 226 86 c 0,75,76
 210 25 210 25 195 29 c 0,77,78
 191 30 191 30 188 37 c 0,79,80
 184 45 184 45 169 81 c 1,81,82
 153 116 153 116 131 166 c 128,-1,83
 109 216 109 216 85 275.5 c 128,-1,84
 61 335 61 335 44 383 c 2,85,-1
 28 430 l 2,86,0
 24 440 24 440 34 443.5 c 128,-1,1
EndSplineSet
EndChar

StartChar: x
Encoding: 120 120 91
Width: 408
Flags: W
LayerCount: 2
Fore
SplineSet
31.5 436 m 128,-1,1
 40 442 40 442 46 433 c 2,2,-1
 54 421 l 2,3,4
 62 409 62 409 90 375 c 0,5,6
 119 341 119 341 159 287 c 0,7,8
 167 277 167 277 174 268 c 1,9,10
 191 299 191 299 213 337 c 0,11,12
 250 401 250 401 270 434 c 0,13,14
 290 468 290 468 299 478 c 2,15,-1
 307 487 l 2,16,17
 314 495 314 495 322 488.5 c 128,-1,18
 330 482 330 482 323 474 c 2,19,-1
 315 464 l 2,20,21
 308 455 308 455 288 423 c 256,22,23
 268 391 268 391 231 326 c 0,24,25
 206 283 206 283 188 250 c 1,26,27
 212 218 212 218 233 191 c 0,28,29
 266 148 266 148 294 106 c 0,30,31
 321 65 321 65 342 44 c 1,32,33
 363 21 363 21 371 15 c 1,34,-1
 378 8 l 2,35,36
 386 0 386 0 379 -7.5 c 128,-1,37
 372 -15 372 -15 364 -8 c 2,38,-1
 357 -1 l 1,39,40
 348 6 348 6 327 29 c 0,41,42
 305 52 305 52 277 95 c 1,43,44
 249 136 249 136 216 178 c 0,45,46
 198 202 198 202 177 230 c 1,47,48
 174 225 174 225 171 220 c 0,49,50
 149 177 149 177 118 126 c 256,51,52
 87 75 87 75 79 60 c 2,53,-1
 70 44 l 2,54,55
 65 35 65 35 56 40 c 128,-1,56
 47 45 47 45 52 55 c 2,57,-1
 60 70 l 2,58,59
 69 85 69 85 100 137 c 0,60,61
 130 188 130 188 153 230 c 0,62,63
 157 238 157 238 163 248 c 1,64,65
 153 261 153 261 143 274 c 0,66,67
 102 328 102 328 74 362 c 0,68,69
 45 397 45 397 37 409 c 2,70,-1
 29 421 l 2,71,0
 23 430 23 430 31.5 436 c 128,-1,1
EndSplineSet
EndChar

StartChar: y
Encoding: 121 121 92
Width: 430
Flags: W
LayerCount: 2
Fore
SplineSet
358 236 m 1,0,1
 355 222 355 222 353 209 c 0,2,3
 347 178 347 178 343 147 c 0,4,5
 335 85 335 85 326 20 c 0,6,7
 317 -46 317 -46 298 -87 c 0,8,9
 279 -130 279 -130 245 -149 c 1,10,11
 212 -169 212 -169 153 -166 c 0,12,13
 94 -164 94 -164 61 -135 c 2,14,-1
 31 -109 l 2,15,16
 23 -102 23 -102 29.5 -94 c 128,-1,17
 36 -86 36 -86 44 -93 c 2,18,-1
 75 -119 l 2,19,20
 103 -143 103 -143 154.5 -145.5 c 128,-1,21
 206 -148 206 -148 235 -131 c 0,22,23
 263 -115 263 -115 279 -78 c 1,24,25
 297 -40 297 -40 305 23 c 0,26,27
 314 88 314 88 322 150 c 0,28,29
 324 165 324 165 327 181 c 1,30,31
 307 155 307 155 285 143 c 0,32,33
 242 118 242 118 217 145 c 0,34,35
 196 168 196 168 175 223 c 0,36,37
 155 277 155 277 134 342 c 0,38,39
 113 406 113 406 106 422 c 2,40,-1
 99 438 l 2,41,42
 94 447 94 447 103.5 451.5 c 128,-1,43
 113 456 113 456 118 446 c 2,44,-1
 125 430 l 2,45,46
 133 414 133 414 154 348 c 0,47,48
 175 284 175 284 195 231 c 0,49,50
 215 179 215 179 232 160 c 0,51,52
 246 145 246 145 275 161 c 0,53,54
 302 177 302 177 325 217 c 0,55,56
 330 226 330 226 335 235 c 1,57,58
 336 239 336 239 338 243 c 1,59,60
 342 260 342 260 346 276 c 0,61,62
 361 339 361 339 371 382 c 0,63,64
 371 383 371 383 372 387.5 c 128,-1,65
 373 392 373 392 373.5 395.5 c 128,-1,66
 374 399 374 399 375.5 404 c 128,-1,67
 377 409 377 409 379 412.5 c 128,-1,68
 381 416 381 416 383.5 419 c 128,-1,69
 386 422 386 422 389 421.5 c 128,-1,70
 392 421 392 421 397 419 c 1,71,72
 403 415 403 415 403 406 c 0,73,74
 404 388 404 388 393 337 c 0,75,76
 383 290 383 290 358 236 c 1,0,1
EndSplineSet
EndChar

StartChar: z
Encoding: 122 122 93
Width: 478
Flags: W
LayerCount: 2
Fore
SplineSet
27.5 392.5 m 128,-1,1
 24 402 24 402 34 406 c 2,2,-1
 81 424 l 2,3,4
 129 442 129 442 199 453.5 c 128,-1,5
 269 465 269 465 292 464 c 0,6,7
 310 464 310 464 315 446.5 c 128,-1,8
 320 429 320 429 313 410 c 1,9,10
 302 369 302 369 267 312 c 0,11,12
 232 256 232 256 198 203 c 256,13,14
 164 150 164 150 148 117 c 256,15,16
 132 84 132 84 130 71 c 0,17,18
 128 59 128 59 129 52 c 1,19,20
 131 46 131 46 140 40 c 0,21,22
 150 34 150 34 204 37 c 0,23,24
 261 41 261 41 298 51 c 1,25,26
 336 60 336 60 371 69 c 1,27,28
 407 77 407 77 423 80 c 2,29,-1
 439 82 l 2,30,31
 449 84 449 84 450.5 73.5 c 128,-1,32
 452 63 452 63 442 61 c 2,33,-1
 426 59 l 2,34,35
 411 57 411 57 376 48 c 0,36,37
 341 40 341 40 303 30 c 0,38,39
 264 20 264 20 206 16 c 1,40,41
 145 13 145 13 129 22 c 1,42,43
 112 33 112 33 109 46 c 0,44,45
 106 58 106 58 109 75 c 0,46,47
 112 90 112 90 129 126 c 0,48,49
 145 161 145 161 180 214 c 1,50,51
 214 268 214 268 249 323 c 1,52,53
 282 378 282 378 293 416 c 0,54,55
 300 443 300 443 291 443 c 0,56,57
 271 443 271 443 203 432.5 c 128,-1,58
 135 422 135 422 88 404 c 2,59,-1
 41 386 l 2,60,0
 31 383 31 383 27.5 392.5 c 128,-1,1
EndSplineSet
EndChar

StartChar: braceleft
Encoding: 123 123 94
Width: 276
Flags: W
LayerCount: 2
Fore
SplineSet
229.5 690.5 m 128,-1,1
 234 681 234 681 225 676 c 2,2,-1
 197 662 l 2,3,4
 171 649 171 649 152 625.5 c 128,-1,5
 133 602 133 602 127 577 c 0,6,7
 120 551 120 551 121 519 c 0,8,9
 122 486 122 486 125 454 c 0,10,11
 128 421 128 421 127 394 c 1,12,13
 127 366 127 366 122 342 c 0,14,15
 118 319 118 319 106 297 c 0,16,17
 94 276 94 276 80.5 259.5 c 128,-1,18
 67 243 67 243 59 237 c 0,19,20
 53 232 53 232 48 225 c 0,21,22
 48 224 48 224 51 221 c 0,23,24
 60 211 60 211 70 200 c 256,25,26
 80 189 80 189 88.5 172 c 128,-1,27
 97 155 97 155 102 133 c 0,28,29
 107 112 107 112 111 88 c 256,30,31
 115 64 115 64 118.5 44 c 128,-1,32
 122 24 122 24 127 5 c 0,33,34
 131 -14 131 -14 136 -30 c 0,35,36
 142 -47 142 -47 149 -64 c 0,37,38
 155 -78 155 -78 171 -90 c 256,39,40
 187 -102 187 -102 205 -108 c 0,41,42
 224 -115 224 -115 232 -116 c 2,43,-1
 241 -117 l 2,44,45
 251 -119 251 -119 249 -129.5 c 128,-1,46
 247 -140 247 -140 237 -138 c 2,47,-1
 228 -137 l 2,48,49
 218 -135 218 -135 198 -128 c 0,50,51
 177 -121 177 -121 158 -106 c 0,52,53
 138 -91 138 -91 130 -72 c 0,54,55
 123 -54 123 -54 117 -37 c 0,56,57
 110 -20 110 -20 106 0 c 256,58,59
 102 20 102 20 98 40 c 128,-1,60
 94 60 94 60 90 84 c 0,61,62
 86 107 86 107 81 129 c 0,63,64
 77 148 77 148 70 162 c 0,65,66
 63 177 63 177 54 187 c 256,67,68
 45 197 45 197 36 207 c 0,69,70
 20 223 20 223 31 238 c 0,71,72
 38 247 38 247 46 253 c 0,73,74
 52 258 52 258 64.5 273 c 128,-1,75
 77 288 77 288 88 307 c 0,76,77
 98 326 98 326 102 346 c 0,78,79
 106 368 106 368 106 394 c 0,80,81
 107 421 107 421 104 452 c 0,82,83
 101 485 101 485 100 518 c 0,84,85
 99 553 99 553 106 582 c 0,86,87
 113 612 113 612 135.5 639 c 128,-1,88
 158 666 158 666 188 681 c 2,89,-1
 216 695 l 2,90,0
 225 700 225 700 229.5 690.5 c 128,-1,1
EndSplineSet
EndChar

StartChar: bar
Encoding: 124 124 95
Width: 86
Flags: W
LayerCount: 2
Fore
SplineSet
39 645 m 128,-1,1
 43 645 43 645 46 641.5 c 128,-1,2
 49 638 49 638 49 634 c 2,3,-1
 48 615 l 2,4,5
 47 598 47 598 51 554 c 1,6,7
 54 509 54 509 57 446 c 128,-1,8
 60 383 60 383 60 341 c 0,9,10
 60 300 60 300 60 249 c 128,-1,11
 60 198 60 198 60 148 c 1,12,13
 59 99 59 99 57 67 c 256,14,15
 55 35 55 35 54 -4.5 c 128,-1,16
 53 -44 53 -44 53.5 -65.5 c 128,-1,17
 54 -87 54 -87 54 -98 c 2,18,-1
 55 -110 l 2,19,20
 55 -114 55 -114 52 -117 c 128,-1,21
 49 -120 49 -120 44.5 -120.5 c 128,-1,22
 40 -121 40 -121 37 -118 c 128,-1,23
 34 -115 34 -115 34 -110 c 2,24,-1
 33 -99 l 1,25,26
 33 -87 33 -87 32.5 -65.5 c 128,-1,27
 32 -44 32 -44 33 -4 c 128,-1,28
 34 36 34 36 36 68 c 0,29,30
 38 99 38 99 38.5 148.5 c 128,-1,31
 39 198 39 198 39 249 c 128,-1,32
 39 300 39 300 39 341 c 128,-1,33
 39 382 39 382 36 445 c 128,-1,34
 33 508 33 508 30 552 c 0,35,36
 26 598 26 598 27 616 c 2,37,-1
 28 635 l 2,38,39
 28 639 28 639 31.5 642 c 128,-1,0
 35 645 35 645 39 645 c 128,-1,1
EndSplineSet
EndChar

StartChar: braceright
Encoding: 125 125 96
Width: 340
Flags: W
LayerCount: 2
Fore
SplineSet
27 651.5 m 128,-1,1
 26 662 26 662 37 663 c 2,2,-1
 59 664 l 2,3,4
 84 665 84 665 110 656 c 0,5,6
 137 647 137 647 155 618 c 0,7,8
 171 592 171 592 183 544 c 0,9,10
 194 497 194 497 197 467 c 256,11,12
 200 437 200 437 200.5 398.5 c 128,-1,13
 201 360 201 360 200 346 c 1,14,15
 198 335 198 335 204 323.5 c 128,-1,16
 210 312 210 312 226 302 c 0,17,18
 243 292 243 292 267 282 c 0,19,20
 292 271 292 271 301 267 c 0,21,22
 317 258 317 258 312 244 c 1,23,24
 310 234 310 234 288 220 c 0,25,26
 272 209 272 209 261 195 c 1,27,28
 250 179 250 179 243 165 c 0,29,30
 236 150 236 150 229 130 c 1,31,32
 223 109 223 109 218.5 92.5 c 128,-1,33
 214 76 214 76 210 52 c 128,-1,34
 206 28 206 28 204 8 c 256,35,36
 202 -12 202 -12 201 -30 c 0,37,38
 200 -49 200 -49 198 -58 c 0,39,40
 195 -67 195 -67 189 -84 c 0,41,42
 182 -101 182 -101 167.5 -120.5 c 128,-1,43
 153 -140 153 -140 138 -151 c 256,44,45
 123 -162 123 -162 108 -166 c 0,46,47
 92 -170 92 -170 81 -166 c 2,48,-1
 73 -163 l 2,49,50
 63 -159 63 -159 67 -149 c 128,-1,51
 71 -139 71 -139 81 -143 c 2,52,-1
 88 -146 l 2,53,54
 93 -148 93 -148 103 -146 c 0,55,56
 114 -143 114 -143 125 -134 c 1,57,58
 138 -125 138 -125 150.5 -108 c 128,-1,59
 163 -91 163 -91 169 -76 c 0,60,61
 175 -60 175 -60 177 -53 c 256,62,63
 179 -46 179 -46 180 -29 c 0,64,65
 181 -11 181 -11 183 10 c 0,66,67
 185 30 185 30 189.5 55.5 c 128,-1,68
 194 81 194 81 198.5 98 c 128,-1,69
 203 115 203 115 209 136 c 0,70,71
 216 158 216 158 224 174 c 256,72,73
 232 190 232 190 244 207 c 0,74,75
 257 224 257 224 277 237 c 0,76,77
 286 244 286 244 291 248 c 1,78,79
 282 253 282 253 259 262 c 1,80,81
 234 273 234 273 215 285 c 0,82,83
 194 297 194 297 185.5 314 c 128,-1,84
 177 331 177 331 179 348 c 0,85,86
 180 361 180 361 179.5 398.5 c 128,-1,87
 179 436 179 436 176 465 c 0,88,89
 174 494 174 494 163 539 c 0,90,91
 152 583 152 583 137 607 c 0,92,93
 123 629 123 629 103 636 c 0,94,95
 81 644 81 644 61 643 c 2,96,-1
 38 642 l 2,97,0
 28 641 28 641 27 651.5 c 128,-1,1
EndSplineSet
EndChar

StartChar: asciitilde
Encoding: 126 126 97
Width: 507
Flags: W
LayerCount: 2
Fore
SplineSet
51.5 195 m 128,-1,1
 43 189 43 189 37 197 c 2,2,-1
 32 204 l 2,3,4
 25 213 25 213 29 244 c 0,5,6
 33 273 33 273 44 292 c 0,7,8
 56 311 56 311 73 321 c 0,9,10
 89 330 89 330 103 333 c 1,11,12
 118 335 118 335 133.5 333 c 128,-1,13
 149 331 149 331 171 323 c 0,14,15
 193 314 193 314 212 302 c 0,16,17
 231 289 231 289 260 270 c 1,18,19
 287 251 287 251 308 246 c 0,20,21
 328 241 328 241 345 248 c 0,22,23
 365 255 365 255 393 277 c 0,24,25
 422 300 422 300 442 321 c 2,26,-1
 462 342 l 2,27,28
 470 350 470 350 477.5 342.5 c 128,-1,29
 485 335 485 335 478 328 c 2,30,-1
 457 306 l 2,31,32
 436 284 436 284 406 261 c 0,33,34
 375 237 375 237 353 228 c 0,35,36
 329 219 329 219 303 225 c 1,37,38
 279 232 279 232 248 252 c 1,39,40
 219 272 219 272 201 284 c 0,41,42
 183 295 183 295 163 303 c 0,43,44
 144 311 144 311 131 312.5 c 128,-1,45
 118 314 118 314 107 312 c 256,46,47
 96 310 96 310 83 303 c 0,48,49
 71 296 71 296 62 281 c 256,50,51
 53 266 53 266 50 241 c 0,52,53
 47 221 47 221 49 216 c 1,54,-1
 54 209 l 2,55,0
 60 201 60 201 51.5 195 c 128,-1,1
EndSplineSet
EndChar

StartChar: cent
Encoding: 162 162 98
Width: 399
Flags: W
LayerCount: 2
Fore
SplineSet
283 564.5 m 128,-1,1
 293 562 293 562 291 552 c 2,2,-1
 286 525 l 1,3,4
 280 499 280 499 273 446 c 0,5,6
 271 433 271 433 270 418 c 1,7,8
 279 415 279 415 287 411 c 0,9,10
 308 401 308 401 323 388 c 0,11,12
 339 375 339 375 350 356 c 0,13,14
 360 339 360 339 366 325 c 2,15,-1
 372 311 l 2,16,17
 376 302 376 302 366 297.5 c 128,-1,18
 356 293 356 293 352 303 c 2,19,-1
 347 316 l 2,20,21
 341 329 341 329 332 346 c 0,22,23
 323 362 323 362 310 372 c 0,24,25
 297 383 297 383 278 392 c 0,26,27
 273 394 273 394 268 397 c 1,28,29
 265 362 265 362 263 321 c 0,30,31
 260 250 260 250 261 182 c 1,32,33
 263 120 263 120 265 71 c 1,34,35
 277 76 277 76 284 81 c 0,36,37
 294 89 294 89 301 96 c 0,38,39
 307 101 307 101 314 110.5 c 128,-1,40
 321 120 321 120 326 129 c 2,41,-1
 330 138 l 2,42,43
 335 147 335 147 344.5 142.5 c 128,-1,44
 354 138 354 138 349 128 c 2,45,-1
 344 119 l 2,46,47
 339 109 339 109 331 98 c 128,-1,48
 323 87 323 87 315 80 c 0,49,50
 308 73 308 73 297 65 c 0,51,52
 286 56 286 56 266 49 c 1,53,54
 269 7 269 7 269 -22 c 2,55,-1
 270 -54 l 2,56,57
 270 -58 270 -58 267 -61.5 c 128,-1,58
 264 -65 264 -65 259.5 -65 c 128,-1,59
 255 -65 255 -65 252 -62 c 128,-1,60
 249 -59 249 -59 249 -54 c 2,61,-1
 248 -22 l 2,62,63
 248 5 248 5 246 44 c 1,64,65
 232 41 232 41 217 39 c 0,66,67
 191 37 191 37 161 46 c 1,68,69
 159 -4 159 -4 158 -32 c 2,70,-1
 157 -66 l 2,71,72
 156 -70 156 -70 153 -73 c 128,-1,73
 150 -76 150 -76 145.5 -76 c 128,-1,74
 141 -76 141 -76 138 -73 c 128,-1,75
 135 -70 135 -70 136 -65 c 2,76,-1
 137 -31 l 2,77,78
 138 -2 138 -2 140 53 c 1,79,80
 121 61 121 61 106 70 c 0,81,82
 83 85 83 85 71 103 c 1,83,84
 58 120 58 120 47.5 146.5 c 128,-1,85
 37 173 37 173 32 198 c 128,-1,86
 27 223 27 223 27 252 c 256,87,88
 27 281 27 281 36.5 310 c 128,-1,89
 46 339 46 339 68 370 c 128,-1,90
 90 401 90 401 106.5 413 c 128,-1,91
 123 425 123 425 145 431 c 0,92,93
 149 432 149 432 153 433 c 1,94,95
 153 441 153 441 153 448 c 0,96,97
 153 501 153 501 153 538 c 2,98,-1
 153 575 l 2,99,100
 153 579 153 579 156.5 582 c 128,-1,101
 160 585 160 585 164 585 c 128,-1,102
 168 585 168 585 171 582 c 128,-1,103
 174 579 174 579 174 574 c 2,104,-1
 174 538 l 2,105,106
 174 501 174 501 174 448 c 2,107,108
 174 448 174 448 174 442.5 c 128,-1,109
 174 437 174 437 174 436 c 1,110,111
 182 437 182 437 191 437 c 0,112,113
 215 437 215 437 241 429 c 0,114,115
 246 427 246 427 250 426 c 1,116,117
 251 437 251 437 252 448 c 0,118,119
 259 503 259 503 265 530 c 2,120,-1
 271 556 l 2,121,0
 273 567 273 567 283 564.5 c 128,-1,1
245 65 m 1,122,123
 242 115 242 115 240 181 c 1,124,125
 239 250 239 250 242 322 c 0,126,127
 244 366 244 366 248 404 c 1,128,129
 241 407 241 407 235 409 c 0,130,131
 211 416 211 416 191 416 c 0,132,133
 182 416 182 416 174 415 c 1,134,135
 173 373 173 373 170 321 c 0,136,137
 165 249 165 249 163.5 191 c 128,-1,138
 162 133 162 133 161 68 c 1,139,140
 163 67 163 67 165 67 c 0,141,142
 192 58 192 58 215 60 c 0,143,144
 231 62 231 62 245 65 c 1,122,123
140 76 m 1,145,146
 142 139 142 139 143 192 c 0,147,148
 144 250 144 250 149 323 c 0,149,150
 152 371 152 371 153 411 c 1,151,152
 152 411 152 411 151 411 c 0,153,154
 132 406 132 406 118.5 396 c 128,-1,155
 105 386 105 386 85 358 c 128,-1,156
 65 330 65 330 56.5 304 c 128,-1,157
 48 278 48 278 48 252 c 0,158,159
 48 225 48 225 52.5 202 c 128,-1,160
 57 179 57 179 67 155 c 128,-1,161
 77 131 77 131 88 115 c 0,162,163
 98 100 98 100 117 88 c 0,164,165
 127 81 127 81 140 76 c 1,145,146
EndSplineSet
EndChar

StartChar: sterling
Encoding: 163 163 99
Width: 566
Flags: W
LayerCount: 2
Fore
SplineSet
68 309.5 m 128,-1,1
 67 320 67 320 77 321 c 2,2,-1
 83 322 l 1,3,4
 90 322 90 322 109 325 c 1,5,6
 129 327 129 327 171 331 c 0,7,8
 192 333 192 333 211 334 c 1,9,10
 209 347 209 347 207 359 c 0,11,12
 202 388 202 388 197 415 c 128,-1,13
 192 442 192 442 190.5 460.5 c 128,-1,14
 189 479 189 479 190 497 c 0,15,16
 192 516 192 516 197 534 c 1,17,18
 203 551 203 551 212 565 c 256,19,20
 221 579 221 579 236 592 c 1,21,22
 252 604 252 604 271 609 c 0,23,24
 290 615 290 615 308 614 c 256,25,26
 326 613 326 613 347.5 607.5 c 128,-1,27
 369 602 369 602 390 592 c 0,28,29
 411 581 411 581 423 571 c 0,30,31
 434 562 434 562 447 545 c 128,-1,32
 460 528 460 528 472 506 c 0,33,34
 482 486 482 486 491 475 c 2,35,-1
 500 463 l 2,36,37
 506 455 506 455 498 448.5 c 128,-1,38
 490 442 490 442 483 450 c 2,39,-1
 474 462 l 2,40,41
 464 474 464 474 453 496 c 0,42,43
 442 516 442 516 430.5 531.5 c 128,-1,44
 419 547 419 547 409 556 c 0,45,46
 400 564 400 564 381 573 c 256,47,48
 362 582 362 582 342.5 587 c 128,-1,49
 323 592 323 592 307 593 c 0,50,51
 293 593 293 593 277 589 c 256,52,53
 261 585 261 585 249 575 c 256,54,55
 237 565 237 565 229 554 c 1,56,57
 222 542 222 542 217 527 c 0,58,59
 213 512 213 512 211 496 c 1,60,61
 210 479 210 479 211 463 c 0,62,63
 213 445 213 445 218 419 c 0,64,65
 223 392 223 392 228 362 c 0,66,67
 230 349 230 349 232 336 c 1,68,69
 241 336 241 336 250 337 c 0,70,71
 286 339 286 339 313 340 c 0,72,73
 339 341 339 341 360 342 c 256,74,75
 381 343 381 343 394 345 c 2,76,-1
 408 347 l 2,77,78
 419 349 419 349 420.5 338.5 c 128,-1,79
 422 328 422 328 411 326 c 2,80,-1
 398 324 l 2,81,82
 383 322 383 322 361 321 c 256,83,84
 339 320 339 320 313 319 c 256,85,86
 287 318 287 318 251 316 c 0,87,88
 244 315 244 315 235 315 c 1,89,90
 236 307 236 307 238 299 c 0,91,92
 243 265 243 265 245 234 c 0,93,94
 248 201 248 201 245.5 174.5 c 128,-1,95
 243 148 243 148 237 128 c 0,96,97
 235 122 235 122 232 115 c 1,98,99
 236 113 236 113 239 111 c 0,100,101
 259 96 259 96 281 79 c 0,102,103
 301 64 301 64 325 52 c 0,104,105
 348 41 348 41 373.5 36.5 c 128,-1,106
 399 32 399 32 421 33 c 256,107,108
 443 34 443 34 458 39 c 0,109,110
 474 44 474 44 483 53 c 1,111,112
 494 61 494 61 500 69 c 0,113,114
 506 76 506 76 510 86 c 0,115,116
 514 97 514 97 516 107 c 256,117,118
 518 117 518 117 518 134 c 2,119,-1
 519 152 l 2,120,121
 519 156 519 156 522 159 c 128,-1,122
 525 162 525 162 529.5 162 c 128,-1,123
 534 162 534 162 537 158.5 c 128,-1,124
 540 155 540 155 540 151 c 2,125,-1
 539 134 l 1,126,127
 539 115 539 115 537 103 c 0,128,129
 534 91 534 91 530 78 c 1,130,131
 524 65 524 65 516 55 c 0,132,133
 509 46 509 46 497 36 c 0,134,135
 484 26 484 26 465 19 c 0,136,137
 447 13 447 13 422 12 c 1,138,139
 398 10 398 10 369.5 15.5 c 128,-1,140
 341 21 341 21 316 33 c 0,141,142
 290 46 290 46 268 63 c 0,143,144
 247 79 247 79 227 93 c 0,145,146
 225 94 225 94 224 96 c 1,147,148
 218 83 218 83 210 69 c 0,149,150
 189 32 189 32 170 9 c 0,151,152
 148 -16 148 -16 124 -21 c 0,153,154
 99 -27 99 -27 74 -12 c 0,155,156
 50 2 50 2 37 34 c 0,157,158
 25 64 25 64 28 84 c 0,159,160
 30 103 30 103 39 117 c 256,161,162
 48 131 48 131 76 145 c 1,163,164
 105 158 105 158 124 158 c 1,165,166
 142 157 142 157 160 151 c 256,167,168
 178 145 178 145 198 135 c 0,169,170
 206 131 206 131 214 126 c 1,171,172
 216 130 216 130 217 133 c 0,173,174
 222 152 222 152 224.5 176.5 c 128,-1,175
 227 201 227 201 225 232 c 0,176,177
 222 263 222 263 217 296 c 0,178,179
 216 305 216 305 214 313 c 1,180,181
 194 312 194 312 173 310 c 0,182,183
 131 306 131 306 111 304 c 1,184,185
 92 301 92 301 86 301 c 2,186,-1
 80 300 l 2,187,0
 69 299 69 299 68 309.5 c 128,-1,1
206 107 m 1,188,189
 197 112 197 112 189 116 c 0,190,191
 170 126 170 126 154 131 c 256,192,193
 138 136 138 136 123 137 c 0,194,195
 109 137 109 137 86 126 c 0,196,197
 62 114 62 114 57 105 c 0,198,199
 51 96 51 96 48 81 c 0,200,201
 46 67 46 67 56 42 c 256,202,203
 66 17 66 17 85 6 c 0,204,205
 103 -4 103 -4 120 -1 c 0,206,207
 137 3 137 3 154 23 c 0,208,209
 172 44 172 44 192 80 c 0,210,211
 200 94 200 94 206 107 c 1,188,189
EndSplineSet
EndChar

StartChar: yen
Encoding: 165 165 100
Width: 521
Flags: W
LayerCount: 2
Fore
SplineSet
61.5 152 m 128,-1,1
 62 156 62 156 65 159 c 128,-1,2
 68 162 68 162 72 162 c 2,3,-1
 80 162 l 2,4,5
 87 162 87 162 121 163.5 c 128,-1,6
 155 165 155 165 223 173 c 0,7,8
 230 173 230 173 238 174 c 1,9,10
 237 188 237 188 236 204 c 0,11,12
 233 246 233 246 233 276 c 1,13,14
 168 269 168 269 121 269 c 0,15,16
 71 268 71 268 56 271 c 2,17,-1
 42 274 l 2,18,19
 32 276 32 276 34 286.5 c 128,-1,20
 36 297 36 297 46 295 c 2,21,-1
 60 292 l 2,22,23
 73 289 73 289 121 290 c 0,24,25
 168 290 168 290 233 298 c 1,26,27
 233 314 233 314 233 321 c 2,28,-1
 233 328 l 1,29,30
 218 325 218 325 209 343 c 1,31,32
 201 356 201 356 186 383 c 0,33,34
 172 408 172 408 142 446 c 0,35,36
 111 484 111 484 83 514 c 0,37,38
 55 545 55 545 42 559 c 2,39,-1
 30 572 l 2,40,41
 23 580 23 580 30.5 587 c 128,-1,42
 38 594 38 594 45 587 c 2,43,-1
 58 573 l 2,44,45
 70 559 70 559 99 529 c 1,46,47
 127 498 127 498 158 459 c 256,48,49
 189 420 189 420 205 393 c 1,50,51
 219 366 219 366 227 353 c 0,52,53
 228 350 228 350 230 349 c 1,54,55
 237 354 237 354 250 376 c 0,56,57
 265 403 265 403 286.5 437.5 c 128,-1,58
 308 472 308 472 329 507 c 1,59,60
 351 541 351 541 368 567.5 c 128,-1,61
 385 594 385 594 394 606 c 2,62,-1
 403 618 l 2,63,64
 409 627 409 627 417.5 621 c 128,-1,65
 426 615 426 615 420 606 c 2,66,-1
 411 594 l 2,67,68
 402 582 402 582 385.5 556 c 128,-1,69
 369 530 369 530 347 496 c 1,70,71
 326 461 326 461 304.5 426.5 c 128,-1,72
 283 392 283 392 268 366 c 0,73,74
 257 348 257 348 251 340 c 1,75,76
 255 336 255 336 255 331 c 2,77,-1
 254 320 l 2,78,79
 254 314 254 314 254 300 c 1,80,81
 310 306 310 306 339 308 c 1,82,83
 370 309 370 309 397 312 c 2,84,-1
 424 314 l 2,85,86
 435 315 435 315 436 304.5 c 128,-1,87
 437 294 437 294 426 293 c 2,88,-1
 399 291 l 2,89,90
 372 289 372 289 340 287 c 0,91,92
 311 285 311 285 254 279 c 1,93,94
 254 248 254 248 257 206 c 0,95,96
 258 190 258 190 259 177 c 1,97,98
 308 182 308 182 354 187 c 0,99,100
 418 195 418 195 451 198 c 1,101,-1
 483 202 l 2,102,103
 494 204 494 204 495 193.5 c 128,-1,104
 496 183 496 183 486 181 c 1,105,-1
 453 178 l 2,106,107
 420 174 420 174 357 166 c 0,108,109
 310 161 310 161 261 156 c 1,110,111
 262 146 262 146 263 138 c 0,112,113
 265 113 265 113 267 90 c 128,-1,114
 269 67 269 67 270 50 c 256,115,116
 271 33 271 33 271 24 c 2,117,-1
 271 16 l 2,118,119
 271 11 271 11 268 8 c 128,-1,120
 265 5 265 5 261 5 c 128,-1,121
 257 5 257 5 253.5 8 c 128,-1,122
 250 11 250 11 250 16 c 2,123,-1
 250 24 l 2,124,125
 250 32 250 32 249 49 c 0,126,127
 248 65 248 65 246 88 c 128,-1,128
 244 111 244 111 242 136 c 0,129,130
 241 144 241 144 240 153 c 1,131,132
 232 153 232 153 225 152 c 0,133,134
 157 144 157 144 122 142.5 c 128,-1,135
 87 141 87 141 79 141 c 2,136,-1
 72 141 l 2,137,138
 67 141 67 141 64 144.5 c 128,-1,0
 61 148 61 148 61.5 152 c 128,-1,1
EndSplineSet
EndChar

StartChar: section
Encoding: 167 167 101
Width: 452
Flags: W
LayerCount: 2
Fore
SplineSet
259 59.5 m 128,-1,1
 261 70 261 70 271 68 c 2,2,-1
 283 66 l 2,3,4
 296 64 296 64 307 58 c 0,5,6
 318 53 318 53 329 45.5 c 128,-1,7
 340 38 340 38 351 27 c 256,8,9
 362 16 362 16 369 2 c 0,10,11
 375 -11 375 -11 379.5 -26 c 128,-1,12
 384 -41 384 -41 385 -58 c 0,13,14
 386 -76 386 -76 385 -86 c 1,15,16
 383 -95 383 -95 378 -107 c 0,17,18
 374 -119 374 -119 358 -135 c 0,19,20
 343 -151 343 -151 318 -165 c 0,21,22
 294 -179 294 -179 268 -187 c 0,23,24
 241 -195 241 -195 214 -191 c 0,25,26
 188 -188 188 -188 161 -178 c 256,27,28
 134 -168 134 -168 108.5 -150.5 c 128,-1,29
 83 -133 83 -133 65 -111 c 0,30,31
 47 -88 47 -88 39 -56 c 0,32,33
 31 -23 31 -23 41 9 c 2,34,-1
 50 39 l 2,35,36
 53 49 53 49 63 46 c 128,-1,37
 73 43 73 43 70 33 c 2,38,-1
 61 3 l 2,39,40
 53 -24 53 -24 59.5 -51 c 128,-1,41
 66 -78 66 -78 82 -98 c 256,42,43
 98 -118 98 -118 120 -133 c 0,44,45
 144 -149 144 -149 168 -158 c 0,46,47
 193 -167 193 -167 217 -171 c 0,48,49
 240 -174 240 -174 262 -167 c 0,50,51
 286 -160 286 -160 308 -147 c 256,52,53
 330 -134 330 -134 343 -121 c 256,54,55
 356 -108 356 -108 359 -99 c 0,56,57
 363 -90 363 -90 364 -82.5 c 128,-1,58
 365 -75 365 -75 364 -60 c 128,-1,59
 363 -45 363 -45 359 -32 c 0,60,61
 355 -18 355 -18 350 -7 c 0,62,63
 345 3 345 3 336 12 c 0,64,65
 326 22 326 22 317 28.5 c 128,-1,66
 308 35 308 35 298 39 c 1,67,68
 289 44 289 44 279 45 c 2,69,-1
 268 47 l 2,70,0
 257 49 257 49 259 59.5 c 128,-1,1
273 342 m 1,71,72
 274 343 274 343 274 344 c 0,73,74
 278 354 278 354 288 350 c 2,75,-1
 305 342 l 2,76,77
 324 334 324 334 348 320 c 0,78,79
 372 305 372 305 385 290 c 0,80,81
 397 275 397 275 406.5 255 c 128,-1,82
 416 235 416 235 420 213 c 0,83,84
 424 193 424 193 426 180 c 1,85,86
 427 166 427 166 423 150 c 0,87,88
 419 133 419 133 407 117 c 256,89,90
 395 101 395 101 366 87 c 0,91,92
 337 74 337 74 316 71 c 0,93,94
 296 69 296 69 265 71 c 0,95,96
 236 73 236 73 209 78 c 256,97,98
 182 83 182 83 156 96 c 256,99,100
 130 109 130 109 107 125 c 0,101,102
 84 142 84 142 68 162 c 256,103,104
 52 182 52 182 41 204 c 0,105,106
 29 228 29 228 28 245 c 1,107,108
 26 261 26 261 28 284 c 0,109,110
 30 308 30 308 37 325 c 128,-1,111
 44 342 44 342 54 352 c 1,112,113
 63 363 63 363 79 369 c 1,114,115
 93 376 93 376 116 378 c 0,116,117
 118 379 118 379 120 379 c 1,118,119
 109 389 109 389 97.5 405.5 c 128,-1,120
 86 422 86 422 77 444 c 256,121,122
 68 466 68 466 69 492 c 256,123,124
 70 518 70 518 79 534 c 1,125,126
 89 549 89 549 114 566 c 0,127,128
 138 582 138 582 168 592 c 1,129,130
 199 601 199 601 226 603 c 0,131,132
 254 605 254 605 279 599 c 0,133,134
 305 593 305 593 327 579 c 0,135,136
 348 565 348 565 368 545 c 128,-1,137
 388 525 388 525 398.5 510 c 128,-1,138
 409 495 409 495 414 484 c 0,139,140
 420 472 420 472 422 462 c 1,141,142
 422 453 422 453 422 446 c 2,143,-1
 422 440 l 2,144,145
 422 435 422 435 419 432 c 128,-1,146
 416 429 416 429 412 429 c 128,-1,147
 408 429 408 429 404.5 432 c 128,-1,148
 401 435 401 435 401 440 c 2,149,-1
 401 446 l 2,150,151
 401 452 401 452 401 460 c 1,152,153
 400 466 400 466 396 474 c 0,154,155
 391 484 391 484 381 497.5 c 128,-1,156
 371 511 371 511 353 529.5 c 128,-1,157
 335 548 335 548 315 561 c 1,158,159
 297 574 297 574 275 579 c 0,160,161
 252 584 252 584 228 582 c 0,162,163
 203 580 203 580 175 571 c 0,164,165
 147 563 147 563 125 548 c 0,166,167
 104 534 104 534 97 523 c 1,168,169
 91 511 91 511 90 491 c 0,170,171
 89 470 89 470 97 451 c 256,172,173
 105 432 105 432 115 417 c 128,-1,174
 125 402 125 402 134 394 c 256,175,176
 143 386 143 386 154 381 c 2,177,-1
 164 376 l 2,178,179
 167 375 167 375 171 375 c 0,180,181
 203 369 203 369 236 357 c 0,182,183
 255 350 255 350 273 342 c 1,71,72
377 265 m 1,184,185
 373 265 373 265 371 266 c 2,186,-1
 362 271 l 2,187,188
 354 275 354 275 336 286 c 0,189,190
 321 295 321 295 291 310 c 0,191,192
 262 325 262 325 229 337 c 0,193,194
 197 349 197 349 167 354 c 0,195,196
 165 354 165 354 163 355 c 0,197,198
 161 355 161 355 158 356 c 0,199,200
 134 359 134 359 118 357 c 0,201,202
 99 355 99 355 87 350 c 0,203,204
 76 345 76 345 69 338 c 0,205,206
 62 330 62 330 56.5 316.5 c 128,-1,207
 51 303 51 303 49 283 c 0,208,209
 47 261 47 261 49 247 c 0,210,211
 50 234 50 234 60 214 c 0,212,213
 70 193 70 193 84 175 c 0,214,215
 99 157 99 157 120 142 c 256,216,217
 141 127 141 127 165 115 c 256,218,219
 189 103 189 103 213 98 c 1,220,221
 238 94 238 94 267 92 c 0,222,223
 295 90 295 90 313 92 c 256,224,225
 331 94 331 94 357 106 c 0,226,227
 381 118 381 118 390 130 c 0,228,229
 400 142 400 142 403 154 c 0,230,231
 406 167 406 167 405 178 c 0,232,233
 404 190 404 190 400 209 c 256,234,235
 396 228 396 228 388 246 c 0,236,237
 383 256 383 256 377 265 c 1,184,185
EndSplineSet
EndChar

StartChar: copyright
Encoding: 169 169 102
Width: 585
Flags: W
LayerCount: 2
Fore
SplineSet
385 405.5 m 128,-1,1
 384 395 384 395 374 396 c 2,2,-1
 354 397 l 1,3,4
 336 399 336 399 314 392 c 256,5,6
 292 385 292 385 275 372 c 128,-1,7
 258 359 258 359 248 343 c 256,8,9
 238 327 238 327 234 309 c 1,10,11
 231 290 231 290 233 267.5 c 128,-1,12
 235 245 235 245 241 228 c 0,13,14
 246 212 246 212 257 201.5 c 128,-1,15
 268 191 268 191 284 185 c 0,16,17
 302 178 302 178 319 176 c 256,18,19
 336 174 336 174 345 174 c 1,20,21
 352 175 352 175 362 183 c 0,22,23
 375 192 375 192 383 201 c 2,24,-1
 393 212 l 2,25,26
 400 219 400 219 407.5 212 c 128,-1,27
 415 205 415 205 408 198 c 2,28,-1
 399 187 l 2,29,30
 389 176 389 176 375 166 c 0,31,32
 360 154 360 154 347 153 c 0,33,34
 336 153 336 153 316 155 c 0,35,36
 297 157 297 157 277 165 c 0,37,38
 256 173 256 173 242 187 c 128,-1,39
 228 201 228 201 221 221 c 0,40,41
 215 240 215 240 212.5 265.5 c 128,-1,42
 210 291 210 291 214 312 c 0,43,44
 218 335 218 335 230 354 c 0,45,46
 243 373 243 373 262.5 388 c 128,-1,47
 282 403 282 403 308 411.5 c 128,-1,48
 334 420 334 420 356 418 c 2,49,-1
 376 417 l 2,50,0
 386 416 386 416 385 405.5 c 128,-1,1
201 568 m 1,51,52
 200 567 200 567 199 567 c 0,53,54
 160 550 160 550 137.5 531.5 c 128,-1,55
 115 513 115 513 91 480 c 0,56,57
 68 448 68 448 58 410 c 0,58,59
 48 370 48 370 48 338 c 128,-1,60
 48 306 48 306 57 264.5 c 128,-1,61
 66 223 66 223 81 190 c 256,62,63
 96 157 96 157 116 127.5 c 128,-1,64
 136 98 136 98 169 67 c 0,65,66
 201 37 201 37 231 23 c 0,67,68
 260 9 260 9 292 8 c 0,69,70
 323 7 323 7 362 25 c 0,71,72
 403 44 403 44 434 74 c 0,73,74
 466 104 466 104 490 137 c 0,75,76
 513 170 513 170 524.5 203.5 c 128,-1,77
 536 237 536 237 537 291 c 0,78,79
 539 345 539 345 531 385 c 128,-1,80
 523 425 523 425 499 479 c 0,81,82
 475 532 475 532 454 550.5 c 128,-1,83
 433 569 433 569 400.5 578.5 c 128,-1,84
 368 588 368 588 329 584 c 0,85,86
 304 581 304 581 280 576 c 0,87,88
 266 573 266 573 253 569 c 2,89,-1
 215 559 l 2,90,91
 205 556 205 556 202 566 c 0,92,93
 202 567 202 567 201 568 c 1,51,52
358 606 m 1,94,95
 384 605 384 605 406 598 c 0,96,97
 444 587 444 587 468 566 c 128,-1,98
 492 545 492 545 518 488 c 0,99,100
 543 431 543 431 551.5 389 c 128,-1,101
 560 347 560 347 558 291 c 1,102,103
 557 234 557 234 544.5 197 c 128,-1,104
 532 160 532 160 507 125 c 256,105,106
 482 90 482 90 449 58 c 0,107,108
 415 26 415 26 371.5 6 c 128,-1,109
 328 -14 328 -14 291 -13 c 1,110,111
 255 -11 255 -11 222 4 c 128,-1,112
 189 19 189 19 154 52 c 0,113,114
 120 84 120 84 99 115 c 128,-1,115
 78 146 78 146 62 181 c 0,116,117
 46 217 46 217 36.5 260.5 c 128,-1,118
 27 304 27 304 27 339 c 0,119,120
 27 373 27 373 38 415 c 0,121,122
 48 457 48 457 74 492 c 0,123,124
 99 527 99 527 124 547.5 c 128,-1,125
 149 568 149 568 190 586 c 256,126,127
 231 604 231 604 266 612 c 0,128,129
 303 620 303 620 326 618 c 2,130,-1
 349 616 l 2,131,132
 359 615 359 615 358 606 c 1,94,95
EndSplineSet
EndChar

StartChar: registered
Encoding: 174 174 103
Width: 589
Flags: W
LayerCount: 2
Fore
SplineSet
309 635 m 1,0,1
 305 633 305 633 302 633 c 2,2,-1
 295 633 l 2,3,4
 289 633 289 633 258 624 c 0,5,6
 226 615 226 615 201.5 603.5 c 128,-1,7
 177 592 177 592 150 573 c 256,8,9
 123 554 123 554 109 535 c 0,10,11
 95 517 95 517 81 491 c 0,12,13
 68 466 68 466 62 439 c 0,14,15
 55 412 55 412 51.5 387 c 128,-1,16
 48 362 48 362 48 337 c 128,-1,17
 48 312 48 312 52 276 c 0,18,19
 57 240 57 240 67 210 c 0,20,21
 77 181 77 181 94 156 c 256,22,23
 111 131 111 131 129.5 113 c 128,-1,24
 148 95 148 95 168 82 c 256,25,26
 188 69 188 69 218.5 57.5 c 128,-1,27
 249 46 249 46 270 43 c 0,28,29
 290 41 290 41 323 44 c 0,30,31
 354 47 354 47 383 62 c 256,32,33
 412 77 412 77 438 99 c 128,-1,34
 464 121 464 121 486 150 c 0,35,36
 509 179 509 179 520 215 c 1,37,38
 533 251 533 251 538 286 c 0,39,40
 544 321 544 321 541 357 c 0,41,42
 538 392 538 392 529 421.5 c 128,-1,43
 520 451 520 451 506 479 c 0,44,45
 491 507 491 507 473 529 c 0,46,47
 454 551 454 551 432 574 c 0,48,49
 410 596 410 596 387 612 c 0,50,51
 364 627 364 627 345 633 c 1,52,53
 332 636 332 636 309 635 c 1,0,1
221 634 m 1,54,55
 219 645 219 645 229 646 c 2,56,-1
 277 653 l 1,57,58
 326 659 326 659 350 653 c 0,59,60
 373 647 373 647 399 629 c 0,61,62
 423 612 423 612 447 588 c 0,63,64
 469 565 469 565 489 542 c 256,65,66
 509 519 509 519 524 489 c 0,67,68
 540 459 540 459 549 427.5 c 128,-1,69
 558 396 558 396 562 358 c 0,70,71
 565 320 565 320 559 283 c 256,72,73
 553 246 553 246 540 208 c 0,74,75
 527 169 527 169 503 138 c 0,76,77
 479 106 479 106 451.5 83 c 128,-1,78
 424 60 424 60 392 43 c 0,79,80
 360 27 360 27 325 23 c 0,81,82
 290 20 290 20 267 23 c 256,83,84
 244 26 244 26 211.5 38 c 128,-1,85
 179 50 179 50 157 64 c 0,86,87
 135 79 135 79 115 98.5 c 128,-1,88
 95 118 95 118 76 144 c 1,89,90
 58 171 58 171 47 204 c 0,91,92
 36 236 36 236 31 273 c 0,93,94
 27 310 27 310 27 337 c 128,-1,95
 27 364 27 364 30.5 390 c 128,-1,96
 34 416 34 416 41 445 c 0,97,98
 49 474 49 474 63 501 c 0,99,100
 77 527 77 527 92 548 c 0,101,102
 108 569 108 569 138 590 c 0,103,104
 167 611 167 611 192 622 c 0,105,106
 205 628 205 628 221 634 c 1,54,55
212 473 m 0,107,108
 214 475 214 475 216 476 c 2,109,-1
 227 481 l 2,110,111
 238 486 238 486 259 492 c 0,112,113
 280 499 280 499 299 500 c 1,114,115
 320 500 320 500 331 491 c 256,116,117
 342 482 342 482 349 467 c 256,118,119
 356 452 356 452 358 438 c 0,120,121
 360 421 360 421 351 408 c 1,122,123
 344 396 344 396 323 384 c 0,124,125
 304 373 304 373 289 366 c 256,126,127
 274 359 274 359 261 353 c 0,128,129
 256 351 256 351 257 348 c 0,130,131
 258 340 258 340 264 335 c 0,132,133
 271 328 271 328 284 321 c 1,134,135
 297 312 297 312 316 298 c 0,136,137
 334 285 334 285 349 274.5 c 128,-1,138
 364 264 364 264 374 257 c 0,139,140
 385 249 385 249 393 242 c 2,141,-1
 400 235 l 2,142,143
 407 227 407 227 399.5 220 c 128,-1,144
 392 213 392 213 385 220 c 2,145,-1
 378 227 l 2,146,147
 372 233 372 233 362 239 c 1,148,149
 352 247 352 247 336.5 257.5 c 128,-1,150
 321 268 321 268 303 282 c 0,151,152
 286 295 286 295 273 303 c 0,153,154
 258 312 258 312 250 319 c 0,155,156
 239 329 239 329 236 343 c 0,157,158
 232 363 232 363 253 372 c 0,159,160
 265 378 265 378 280 385 c 0,161,162
 294 392 294 392 312 402 c 0,163,164
 329 411 329 411 334 419 c 0,165,166
 338 426 338 426 337 435 c 0,167,168
 336 446 336 446 330 458 c 0,169,170
 325 469 325 469 318 474 c 0,171,172
 312 479 312 479 299 479 c 0,173,174
 283 478 283 478 265 472 c 0,175,176
 246 466 246 466 236 462 c 2,177,-1
 227 458 l 1,178,-1
 227 451 l 2,179,180
 227 440 227 440 229 409 c 0,181,182
 231 377 231 377 234 333.5 c 128,-1,183
 237 290 237 290 238 259 c 256,184,185
 239 228 239 228 242 200 c 2,186,-1
 245 171 l 2,187,188
 246 160 246 160 235.5 159 c 128,-1,189
 225 158 225 158 224 169 c 2,190,-1
 221 198 l 2,191,192
 218 227 218 227 217 258 c 256,193,194
 216 289 216 289 213 332.5 c 128,-1,195
 210 376 210 376 208 407 c 0,196,197
 206 439 206 439 206 451 c 2,198,-1
 206 463 l 2,199,200
 206 470 206 470 212 473 c 0,107,108
EndSplineSet
EndChar

StartChar: degree
Encoding: 176 176 104
Width: 227
Flags: W
LayerCount: 2
Fore
SplineSet
114 615 m 1,0,1
 102 610 102 610 87 600 c 0,2,3
 69 588 69 588 58 571 c 0,4,5
 48 556 48 556 48 544 c 0,6,7
 48 531 48 531 57 517 c 0,8,9
 66 502 66 502 77 492 c 0,10,11
 89 482 89 482 107 471 c 1,12,13
 124 462 124 462 146 460 c 0,14,15
 166 458 166 458 170.5 461 c 128,-1,16
 175 464 175 464 177 474 c 0,17,18
 180 485 180 485 180 498 c 0,19,20
 179 511 179 511 178 522 c 0,21,22
 177 532 177 532 174.5 542 c 128,-1,23
 172 552 172 552 162 570 c 0,24,25
 154 586 154 586 136 599 c 2,26,-1
 117 613 l 2,27,28
 115 614 115 614 114 615 c 1,0,1
139 622 m 1,29,-1
 148 616 l 1,30,31
 170 600 170 600 181 579 c 0,32,33
 191 560 191 560 195 548 c 0,34,35
 198 537 198 537 199 524.5 c 128,-1,36
 200 512 200 512 201 498 c 1,37,38
 201 483 201 483 198 469 c 0,39,40
 194 452 194 452 182.5 444 c 128,-1,41
 171 436 171 436 144 439 c 0,42,43
 117 441 117 441 97 453 c 0,44,45
 77 464 77 464 64 476 c 0,46,47
 50 488 50 488 39 506 c 0,48,49
 27 525 27 525 27 544 c 0,50,51
 27 562 27 562 41 583 c 0,52,53
 54 603 54 603 75.5 617.5 c 128,-1,54
 97 632 97 632 115 637 c 2,55,-1
 131 642 l 2,56,57
 141 645 141 645 144 635 c 0,58,59
 146 627 146 627 139 622 c 1,29,-1
EndSplineSet
EndChar

StartChar: plusminus
Encoding: 177 177 105
Width: 403
Flags: W
LayerCount: 2
Fore
SplineSet
50.5 64 m 128,-1,1
 54 74 54 74 64 70 c 2,2,-1
 76 66 l 2,3,4
 86 62 86 62 124 63 c 1,5,6
 164 63 164 63 205.5 64 c 128,-1,7
 247 65 247 65 277 65 c 1,8,9
 306 66 306 66 326 68 c 0,10,11
 345 69 345 69 355 70 c 2,12,-1
 365 71 l 1,13,14
 376 71 376 71 376.5 60.5 c 128,-1,15
 377 50 377 50 367 50 c 2,16,-1
 357 49 l 2,17,18
 347 48 347 48 327 47 c 0,19,20
 307 45 307 45 277 44 c 0,21,22
 248 44 248 44 207 43 c 0,23,24
 167 42 167 42 125 41.5 c 128,-1,25
 83 41 83 41 69 46 c 2,26,-1
 57 50 l 2,27,0
 47 54 47 54 50.5 64 c 128,-1,1
27 364.5 m 128,-1,29
 28 375 28 375 38 374 c 2,30,-1
 70 371 l 2,31,32
 100 368 100 368 137 369 c 0,33,34
 171 370 171 370 198 370 c 1,35,36
 197 376 197 376 197 382 c 0,37,38
 196 426 196 426 198.5 472.5 c 128,-1,39
 201 519 201 519 202 529 c 1,40,-1
 202 539 l 1,41,42
 203 549 203 549 213.5 548 c 128,-1,43
 224 547 224 547 223 537 c 1,44,-1
 223 527 l 1,45,46
 222 518 222 518 219.5 471.5 c 128,-1,47
 217 425 217 425 218 383 c 0,48,49
 218 377 218 377 219 371 c 1,50,51
 250 372 250 372 269 372 c 0,52,53
 290 372 290 372 315 375 c 256,54,55
 340 378 340 378 351 379 c 2,56,-1
 362 380 l 2,57,58
 373 381 373 381 373.5 370.5 c 128,-1,59
 374 360 374 360 364 359 c 2,60,-1
 353 358 l 2,61,62
 342 357 342 357 317 354 c 256,63,64
 292 351 292 351 270 351 c 0,65,66
 250 351 250 351 219 350 c 1,67,68
 221 325 221 325 223 301 c 0,69,70
 227 262 227 262 230.5 237.5 c 128,-1,71
 234 213 234 213 236 204 c 1,72,73
 237 193 237 193 238 179 c 2,74,-1
 239 164 l 2,75,76
 240 154 240 154 229.5 153 c 128,-1,77
 219 152 219 152 218 163 c 2,78,-1
 217 177 l 2,79,80
 217 191 217 191 215 200 c 0,81,82
 213 210 213 210 210 235 c 0,83,84
 206 260 206 260 202 299 c 0,85,86
 200 324 200 324 198 349 c 1,87,88
 169 349 169 349 138 348 c 0,89,90
 100 347 100 347 68 350 c 2,91,-1
 37 353 l 2,92,28
 26 354 26 354 27 364.5 c 128,-1,29
EndSplineSet
EndChar

StartChar: uni00B2
Encoding: 178 178 106
Width: 308
Flags: W
LayerCount: 2
Fore
SplineSet
31 533 m 128,-1,1
 23 540 23 540 30 548 c 2,2,-1
 52 574 l 2,3,4
 76 602 76 602 110 619 c 1,5,6
 145 638 145 638 170 635 c 0,7,8
 197 631 197 631 212 609 c 0,9,10
 226 588 226 588 229 555 c 0,11,12
 231 522 231 522 219 487 c 0,13,14
 207 453 207 453 187 426 c 0,15,16
 167 400 167 400 151 383 c 0,17,18
 136 367 136 367 128 355 c 256,19,20
 120 343 120 343 112 329 c 0,21,22
 107 321 107 321 106 315 c 1,23,24
 110 315 110 315 114 315 c 0,25,26
 134 316 134 316 169 319 c 0,27,28
 204 323 204 323 221 325 c 256,29,30
 238 327 238 327 250 330 c 0,31,32
 258 332 258 332 265 332 c 2,33,-1
 271 332 l 2,34,35
 275 332 275 332 278 328.5 c 128,-1,36
 281 325 281 325 281 321 c 128,-1,37
 281 317 281 317 278 314 c 128,-1,38
 275 311 275 311 271 311 c 2,39,-1
 265 311 l 2,40,41
 260 311 260 311 252 309 c 0,42,43
 242 307 242 307 224 304 c 0,44,45
 206 302 206 302 171 298 c 0,46,47
 136 295 136 295 115 294 c 0,48,49
 83 293 83 293 84 313 c 0,50,51
 85 325 85 325 94 340 c 0,52,53
 102 354 102 354 111 367 c 0,54,55
 120 381 120 381 136 398 c 0,56,57
 151 414 151 414 170 439 c 0,58,59
 188 463 188 463 199 494 c 256,60,61
 210 525 210 525 208 553 c 256,62,63
 206 581 206 581 195 597 c 0,64,65
 185 611 185 611 168 614 c 1,66,67
 149 616 149 616 120 601 c 0,68,69
 90 585 90 585 68 560 c 2,70,-1
 45 534 l 2,71,0
 39 526 39 526 31 533 c 128,-1,1
EndSplineSet
EndChar

StartChar: uni00B3
Encoding: 179 179 107
Width: 239
Flags: W
LayerCount: 2
Fore
SplineSet
37 587 m 128,-1,1
 30 595 30 595 38 602 c 2,2,-1
 56 619 l 2,3,4
 76 637 76 637 102 651 c 0,5,6
 130 665 130 665 144 665 c 0,7,8
 159 664 159 664 173 650 c 0,9,10
 187 637 187 637 195 602 c 0,11,12
 203 568 203 568 199 532 c 0,13,14
 194 496 194 496 180 478 c 0,15,16
 173 468 173 468 164 460 c 1,17,18
 173 459 173 459 181 457 c 0,19,20
 198 452 198 452 207 438 c 256,21,22
 216 424 216 424 212 407 c 0,23,24
 209 390 209 390 186 366 c 256,25,26
 163 342 163 342 131 331 c 256,27,28
 99 320 99 320 76 326 c 0,29,30
 54 332 54 332 42 343 c 2,31,-1
 31 353 l 2,32,33
 23 360 23 360 30 368 c 128,-1,34
 37 376 37 376 44 369 c 2,35,-1
 55 359 l 2,36,37
 65 351 65 351 82 346 c 0,38,39
 98 342 98 342 124 351 c 0,40,41
 151 360 151 360 170 380 c 0,42,43
 189 401 189 401 191 411 c 0,44,45
 193 420 193 420 189 427 c 256,46,47
 185 434 185 434 175 437 c 0,48,49
 163 441 163 441 145 438 c 0,50,51
 144 437 144 437 142.5 437 c 128,-1,52
 141 437 141 437 137 436.5 c 128,-1,53
 133 436 133 436 130 436.5 c 128,-1,54
 127 437 127 437 124.5 440.5 c 128,-1,55
 122 444 122 444 123 449 c 0,56,57
 123 453 123 453 124.5 456 c 128,-1,58
 126 459 126 459 127.5 460 c 128,-1,59
 129 461 129 461 132 463 c 128,-1,60
 135 465 135 465 136 465 c 0,61,62
 151 475 151 475 163 490 c 0,63,64
 174 505 174 505 178 535 c 0,65,66
 182 567 182 567 175 597 c 0,67,68
 168 626 168 626 159 635 c 256,69,70
 150 644 150 644 143 644 c 0,71,72
 135 644 135 644 112 632 c 0,73,74
 88 620 88 620 71 604 c 2,75,-1
 52 586 l 2,76,0
 44 579 44 579 37 587 c 128,-1,1
EndSplineSet
EndChar

StartChar: uni00B5
Encoding: 181 181 108
Width: 498
Flags: W
LayerCount: 2
Fore
SplineSet
237.5 466 m 128,-1,1
 242 466 242 466 245 463 c 128,-1,2
 248 460 248 460 248 456 c 2,3,-1
 248 438 l 2,4,5
 248 421 248 421 249 405 c 0,6,7
 251 389 251 389 253.5 365.5 c 128,-1,8
 256 342 256 342 258 320 c 0,9,10
 260 300 260 300 267 273 c 256,11,12
 274 246 274 246 278 230 c 1,13,14
 283 215 283 215 294 192 c 1,15,16
 303 170 303 170 315 161 c 0,17,18
 325 153 325 153 334.5 155 c 128,-1,19
 344 157 344 157 356 180 c 0,20,21
 370 206 370 206 379 247 c 0,22,23
 388 289 388 289 394.5 324 c 128,-1,24
 401 359 401 359 404.5 384.5 c 128,-1,25
 408 410 408 410 410 423 c 1,26,27
 404 435 404 435 420 437 c 0,28,29
 429 438 429 438 432 432 c 128,-1,30
 435 426 435 426 434 420 c 2,31,-1
 432 413 l 1,32,33
 433 392 433 392 433 372 c 1,34,35
 434 353 434 353 437 313 c 128,-1,36
 440 273 440 273 444 243 c 1,37,38
 449 214 449 214 453 200 c 0,39,40
 457 187 457 187 463 177 c 2,41,-1
 470 167 l 2,42,43
 476 158 476 158 467 152 c 128,-1,44
 458 146 458 146 452 155 c 2,45,-1
 445 166 l 2,46,47
 438 178 438 178 433 194 c 0,48,49
 428 209 428 209 424 240 c 0,50,51
 419 271 419 271 416 311 c 0,52,53
 415 315 415 315 415 320 c 1,54,55
 408 284 408 284 400 243 c 1,56,57
 390 199 390 199 375 170 c 0,58,59
 358 139 358 139 339 134.5 c 128,-1,60
 320 130 320 130 302 144 c 0,61,62
 286 157 286 157 274 183 c 0,63,64
 263 208 263 208 258 224 c 1,65,66
 254 241 254 241 247 268 c 0,67,68
 240 296 240 296 237 318 c 0,69,70
 235 339 235 339 232 363 c 0,71,72
 230 385 230 385 229 401 c 1,73,74
 223 377 223 377 219 344 c 0,75,76
 215 305 215 305 210 261 c 1,77,78
 206 216 206 216 201 176.5 c 128,-1,79
 196 137 196 137 189 95 c 0,80,81
 183 53 183 53 170 3 c 256,82,83
 157 -47 157 -47 138 -87 c 0,84,85
 118 -128 118 -128 105 -142 c 0,86,87
 91 -157 91 -157 78 -161 c 0,88,89
 66 -165 66 -165 51 -166 c 2,90,-1
 38 -167 l 2,91,92
 28 -168 28 -168 27 -157.5 c 128,-1,93
 26 -147 26 -147 37 -146 c 2,94,-1
 50 -145 l 2,95,96
 62 -144 62 -144 71 -141 c 0,97,98
 79 -139 79 -139 90 -128 c 1,99,100
 100 -116 100 -116 119 -78 c 0,101,102
 137 -40 137 -40 149 8 c 0,103,104
 162 57 162 57 169 98 c 1,105,106
 175 140 175 140 180 179 c 128,-1,107
 185 218 185 218 189.5 263 c 128,-1,108
 194 308 194 308 198 346 c 0,109,110
 202 385 202 385 210 412 c 2,111,-1
 218 438 l 2,112,113
 220 445 220 445 227 445 c 1,114,-1
 227 456 l 2,115,116
 227 460 227 460 230 463 c 128,-1,0
 233 466 233 466 237.5 466 c 128,-1,1
EndSplineSet
EndChar

StartChar: periodcentered
Encoding: 183 183 109
Width: 77
Flags: W
LayerCount: 2
Fore
SplineSet
30 372.5 m 128,-1,1
 37 380 37 380 45 373 c 2,2,-1
 48 370 l 2,3,4
 55 362 55 362 48 354.5 c 128,-1,5
 41 347 41 347 33 355 c 2,6,-1
 30 358 l 2,7,0
 23 365 23 365 30 372.5 c 128,-1,1
EndSplineSet
EndChar

StartChar: onequarter
Encoding: 188 188 110
Width: 573
Flags: W
LayerCount: 2
Fore
SplineSet
449 323.5 m 128,-1,1
 459 321 459 321 457 310 c 1,2,-1
 455 303 l 2,3,4
 454 296 454 296 454 241 c 0,5,6
 454 185 454 185 456 128 c 1,7,8
 461 129 461 129 464 129 c 0,9,10
 475 130 475 130 488 136 c 0,11,12
 504 143 504 143 517 150 c 2,13,-1
 531 158 l 2,14,15
 540 163 540 163 545 153.5 c 128,-1,16
 550 144 550 144 541 139 c 2,17,-1
 527 132 l 2,18,19
 513 124 513 124 497 117 c 0,20,21
 480 109 480 109 466 108 c 0,22,23
 462 108 462 108 457 107 c 1,24,25
 458 62 458 62 458 36 c 2,26,-1
 459 6 l 2,27,28
 459 1 459 1 456 -2 c 128,-1,29
 453 -5 453 -5 448.5 -5 c 128,-1,30
 444 -5 444 -5 441 -2 c 128,-1,31
 438 1 438 1 438 5 c 2,32,-1
 437 36 l 2,33,34
 437 61 437 61 436 106 c 1,35,36
 428 106 428 106 420 106 c 0,37,38
 387 105 387 105 346 104 c 0,39,40
 305 104 305 104 293 107 c 1,41,42
 275 115 275 115 286 138 c 0,43,44
 293 153 293 153 321 197 c 256,45,46
 349 241 349 241 379 293 c 0,47,48
 410 345 410 345 417 356 c 2,49,-1
 424 367 l 2,50,51
 430 376 430 376 438.5 370 c 128,-1,52
 447 364 447 364 442 355 c 1,53,-1
 435 345 l 2,54,55
 428 334 428 334 397 282 c 0,56,57
 367 230 367 230 339 186 c 0,58,59
 311 143 311 143 305 130 c 0,60,61
 304 128 304 128 304 126 c 1,62,63
 315 125 315 125 346 125 c 0,64,65
 387 126 387 126 419 127 c 0,66,67
 428 127 428 127 435 127 c 1,68,69
 433 184 433 184 433 241 c 0,70,71
 433 300 433 300 435 308 c 2,72,-1
 436 315 l 1,73,0
 439 326 439 326 449 323.5 c 128,-1,1
343.5 581 m 128,-1,75
 353 577 353 577 349 567 c 2,76,-1
 346 561 l 2,77,78
 344 556 344 556 330 522 c 128,-1,79
 316 488 316 488 277 425 c 0,80,81
 239 362 239 362 177 269 c 256,82,83
 115 176 115 176 93 139 c 256,84,85
 71 102 71 102 67 94 c 2,86,-1
 63 84 l 2,87,88
 59 74 59 74 49.5 78 c 128,-1,89
 40 82 40 82 44 92 c 2,90,-1
 48 101 l 2,91,92
 52 112 52 112 75 150 c 0,93,94
 97 187 97 187 159 281 c 0,95,96
 221 374 221 374 260 436 c 0,97,98
 298 497 298 497 311 530 c 256,99,100
 324 563 324 563 327 569 c 2,101,-1
 330 575 l 2,102,74
 334 585 334 585 343.5 581 c 128,-1,75
36.5 637.5 m 128,-1,104
 47 638 47 638 48 627 c 2,105,-1
 49 606 l 2,106,107
 51 585 51 585 56 518 c 128,-1,108
 61 451 61 451 68 387 c 1,109,110
 74 322 74 322 75 303 c 2,111,-1
 76 284 l 2,112,113
 76 279 76 279 73 276 c 128,-1,114
 70 273 70 273 66 272.5 c 128,-1,115
 62 272 62 272 58.5 275 c 128,-1,116
 55 278 55 278 55 283 c 2,117,-1
 54 302 l 2,118,119
 53 321 53 321 47 385 c 256,120,121
 41 449 41 449 35.5 516.5 c 128,-1,122
 30 584 30 584 28 605 c 2,123,-1
 27 626 l 2,124,103
 26 637 26 637 36.5 637.5 c 128,-1,104
EndSplineSet
EndChar

StartChar: onehalf
Encoding: 189 189 111
Width: 632
Flags: W
LayerCount: 2
Fore
SplineSet
341.5 263.5 m 128,-1,1
 333 269 333 269 338 278 c 2,2,-1
 342 286 l 1,3,4
 348 294 348 294 386.5 331 c 128,-1,5
 425 368 425 368 461 387 c 0,6,7
 499 406 499 406 515 405 c 0,8,9
 535 404 535 404 542 380 c 0,10,11
 548 361 548 361 525 306 c 0,12,13
 504 254 504 254 472 200 c 0,14,15
 441 146 441 146 420 109.5 c 128,-1,16
 399 73 399 73 394 63 c 1,17,-1
 394 62 l 1,18,19
 404 59 404 59 436 58 c 0,20,21
 477 56 477 56 512 58 c 0,22,23
 548 60 548 60 571 63 c 2,24,-1
 594 66 l 2,25,26
 605 67 605 67 606 56.5 c 128,-1,27
 607 46 607 46 597 45 c 2,28,-1
 573 42 l 2,29,30
 550 39 550 39 514 37 c 0,31,32
 477 35 477 35 435 37 c 0,33,34
 391 39 391 39 382 44 c 0,35,36
 365 53 365 53 375 72 c 0,37,38
 381 83 381 83 402 120 c 128,-1,39
 423 157 423 157 454 210 c 256,40,41
 485 263 485 263 506 314 c 0,42,43
 525 362 525 362 522 375 c 0,44,45
 519 384 519 384 513 384 c 0,46,47
 503 385 503 385 471 368 c 0,48,49
 437 351 437 351 400.5 316 c 128,-1,50
 364 281 364 281 360 275 c 2,51,-1
 356 267 l 1,52,0
 350 258 350 258 341.5 263.5 c 128,-1,1
94 634.5 m 128,-1,54
 104 632 104 632 102 622 c 2,55,-1
 100 613 l 2,56,57
 98 606 98 606 97 555 c 2,58,-1
 95 451 l 2,59,60
 94 399 94 399 99 363 c 2,61,-1
 104 325 l 2,62,63
 105 315 105 315 95 313.5 c 128,-1,64
 85 312 85 312 83 322 c 2,65,-1
 78 360 l 2,66,67
 73 398 73 398 74 451 c 2,68,-1
 76 555 l 2,69,70
 77 609 77 609 79 618 c 2,71,-1
 81 627 l 2,72,53
 84 637 84 637 94 634.5 c 128,-1,54
405 594 m 128,-1,74
 414 588 414 588 408 579 c 2,75,-1
 391 554 l 2,76,77
 374 528 374 528 337 472 c 0,78,79
 300 415 300 415 261 356 c 128,-1,80
 222 297 222 297 179.5 233 c 128,-1,81
 137 169 137 169 110 130 c 128,-1,82
 83 91 83 91 64 66 c 1,83,-1
 46 40 l 2,84,85
 40 31 40 31 31.5 37 c 128,-1,86
 23 43 23 43 29 52 c 2,87,-1
 47 78 l 2,88,89
 65 103 65 103 92.5 142 c 128,-1,90
 120 181 120 181 162.5 245 c 128,-1,91
 205 309 205 309 244 368 c 128,-1,92
 283 427 283 427 320 483.5 c 128,-1,93
 357 540 357 540 374 566 c 2,94,-1
 391 591 l 2,95,73
 396 600 396 600 405 594 c 128,-1,74
EndSplineSet
EndChar

StartChar: multiply
Encoding: 215 215 112
Width: 392
Flags: W
LayerCount: 2
Fore
SplineSet
29 440.5 m 128,-1,1
 35 449 35 449 44 443 c 2,2,-1
 71 423 l 2,3,4
 99 403 99 403 138 368 c 0,5,6
 159 349 159 349 181 329 c 1,7,8
 181 329 181 329 182.5 331 c 128,-1,9
 184 333 184 333 184 334 c 0,10,11
 221 388 221 388 245.5 426 c 128,-1,12
 270 464 270 464 278 478 c 2,13,-1
 286 492 l 2,14,15
 292 501 292 501 301 495.5 c 128,-1,16
 310 490 310 490 305 481 c 2,17,-1
 296 467 l 2,18,19
 288 453 288 453 263 414.5 c 128,-1,20
 238 376 238 376 202 322 c 0,21,22
 201 320 201 320 199 317.5 c 128,-1,23
 197 315 197 315 196 314 c 1,24,25
 205 305 205 305 215 296 c 0,26,27
 253 257 253 257 278 230 c 0,28,29
 304 203 304 203 324 181 c 0,30,31
 343 161 343 161 352 154 c 2,32,-1
 361 147 l 2,33,34
 369 140 369 140 362.5 132 c 128,-1,35
 356 124 356 124 348 130 c 2,36,-1
 339 138 l 1,37,38
 329 145 329 145 309 167 c 0,39,40
 289 188 289 188 263 215 c 0,41,42
 238 242 238 242 199 281 c 0,43,44
 192 289 192 289 184 296 c 1,45,46
 159 259 159 259 140 231 c 0,47,48
 116 195 116 195 100 172.5 c 128,-1,49
 84 150 84 150 78 142 c 2,50,-1
 72 134 l 2,51,52
 65 125 65 125 57 131.5 c 128,-1,53
 49 138 49 138 55 146 c 2,54,-1
 61 154 l 2,55,56
 67 162 67 162 82.5 184.5 c 128,-1,57
 98 207 98 207 123 243 c 0,58,59
 143 272 143 272 169 311 c 1,60,61
 146 333 146 333 124 353 c 0,62,63
 86 386 86 386 59 406 c 2,64,-1
 31 426 l 2,65,0
 23 432 23 432 29 440.5 c 128,-1,1
EndSplineSet
EndChar

StartChar: divide
Encoding: 247 247 113
Width: 488
Flags: W
LayerCount: 2
Fore
SplineSet
27 318.5 m 128,-1,1
 27 323 27 323 30 326 c 128,-1,2
 33 329 33 329 37 329 c 2,3,-1
 76 330 l 2,4,5
 114 330 114 330 162 331 c 128,-1,6
 210 332 210 332 270.5 332.5 c 128,-1,7
 331 333 331 333 366 333 c 1,8,9
 400 332 400 332 425 333 c 2,10,-1
 451 334 l 2,11,12
 455 334 455 334 458.5 331 c 128,-1,13
 462 328 462 328 462 324 c 128,-1,14
 462 320 462 320 459 316.5 c 128,-1,15
 456 313 456 313 452 313 c 2,16,-1
 426 312 l 2,17,18
 400 311 400 311 365 312 c 0,19,20
 331 312 331 312 270.5 311.5 c 128,-1,21
 210 311 210 311 162.5 310 c 128,-1,22
 115 309 115 309 76 309 c 1,23,-1
 38 308 l 2,24,25
 33 308 33 308 30 311 c 128,-1,0
 27 314 27 314 27 318.5 c 128,-1,1
270.5 149.5 m 128,-1,27
 278 157 278 157 285 149 c 2,28,-1
 288 146 l 2,29,30
 296 139 296 139 288.5 131.5 c 128,-1,31
 281 124 281 124 273 132 c 2,32,-1
 270 135 l 2,33,26
 263 142 263 142 270.5 149.5 c 128,-1,27
238.5 519.5 m 128,-1,35
 246 527 246 527 253 520 c 2,36,-1
 256 517 l 2,37,38
 264 509 264 509 256.5 501.5 c 128,-1,39
 249 494 249 494 241 502 c 2,40,-1
 238 505 l 2,41,34
 231 512 231 512 238.5 519.5 c 128,-1,35
EndSplineSet
EndChar

StartChar: oslash
Encoding: 248 248 114
Width: 422
Flags: W
LayerCount: 2
Fore
SplineSet
391 633.5 m 128,-1,1
 400 628 400 628 394 619 c 2,2,-1
 377 590 l 2,3,4
 359 561 359 561 332 510 c 0,5,6
 317 481 317 481 297 440 c 1,7,8
 299 439 299 439 300 438 c 0,9,10
 328 424 328 424 345 391 c 0,11,12
 361 359 361 359 368 314 c 0,13,14
 374 271 374 271 368 213 c 0,15,16
 362 156 362 156 344 121 c 0,17,18
 326 85 326 85 269 52 c 256,19,20
 212 19 212 19 161 25 c 0,21,22
 150 26 150 26 139 29 c 1,23,24
 121 -39 121 -39 119 -49 c 2,25,-1
 116 -60 l 2,26,27
 113 -70 113 -70 103 -67 c 128,-1,28
 93 -64 93 -64 95 -54 c 2,29,-1
 98 -43 l 2,30,31
 101 -33 101 -33 119 37 c 1,32,33
 95 49 95 49 78 70 c 0,34,35
 47 108 47 108 34 162 c 0,36,37
 21 215 21 215 31 275.5 c 128,-1,38
 41 336 41 336 59.5 367 c 128,-1,39
 78 398 78 398 114 425.5 c 128,-1,40
 150 453 150 453 183 463 c 0,41,42
 217 474 217 474 243 471 c 0,43,44
 267 468 267 468 277 465 c 2,45,-1
 285 462 l 1,46,47
 301 495 301 495 314 520 c 0,48,49
 341 572 341 572 359 601 c 2,50,-1
 376 630 l 2,51,0
 382 639 382 639 391 633.5 c 128,-1,1
249 449 m 1,52,53
 245 449 245 449 240 450 c 0,54,55
 219 453 219 453 189 443 c 0,56,57
 159 434 159 434 126.5 409 c 128,-1,58
 94 384 94 384 77.5 356.5 c 128,-1,59
 61 329 61 329 52 272.5 c 128,-1,60
 43 216 43 216 55 166 c 0,61,62
 66 118 66 118 94 83 c 0,63,64
 108 67 108 67 124 58 c 1,65,66
 147 144 147 144 176 221 c 0,67,68
 206 298 206 298 247 383 c 0,69,70
 258 406 258 406 267 427 c 1,71,72
 254 429 254 429 237 427 c 2,73,-1
 200 422 l 2,74,75
 190 421 190 421 188.5 431 c 128,-1,76
 187 441 187 441 198 443 c 2,77,-1
 234 447 l 2,78,79
 242 448 242 448 249 449 c 1,52,53
288 421 m 0,80,81
 278 400 278 400 265 374 c 0,82,83
 225 290 225 290 195.5 213.5 c 128,-1,84
 166 137 166 137 144 50 c 1,85,86
 153 47 153 47 164 46 c 0,87,88
 207 41 207 41 259 71 c 0,89,90
 310 100 310 100 326 131 c 256,91,92
 342 162 342 162 347 215 c 0,93,94
 353 270 353 270 347 311 c 128,-1,95
 341 352 341 352 326 381 c 0,96,97
 312 409 312 409 291 420 c 0,98,99
 289 421 289 421 288 421 c 0,80,81
EndSplineSet
EndChar

StartChar: Delta
Encoding: 916 916 115
Width: 461
Flags: W
LayerCount: 2
Fore
SplineSet
227 599 m 2,0,1
 227 598 227 598 228 597 c 2,2,-1
 234 578 l 2,3,4
 239 559 239 559 249 536 c 0,5,6
 260 512 260 512 274.5 476.5 c 128,-1,7
 289 441 289 441 306.5 397 c 128,-1,8
 324 353 324 353 347 287 c 0,9,10
 370 222 370 222 395 171 c 0,11,12
 420 118 420 118 429 96 c 0,13,14
 442 62 442 62 423 57 c 0,15,16
 413 55 413 55 399 55 c 256,17,18
 385 55 385 55 350 53.5 c 128,-1,19
 315 52 315 52 288.5 50.5 c 128,-1,20
 262 49 262 49 207 42 c 0,21,22
 150 35 150 35 106 30 c 0,23,24
 60 24 60 24 45 28 c 0,25,26
 37 30 37 30 30.5 36.5 c 128,-1,27
 24 43 24 43 29 52 c 0,28,29
 32 59 32 59 38.5 72.5 c 128,-1,30
 45 86 45 86 50 102 c 0,31,32
 56 118 56 118 67.5 154 c 128,-1,33
 79 190 79 190 100 264 c 0,34,35
 120 338 120 338 142 403 c 0,36,37
 163 468 163 468 181 523 c 0,38,39
 188 546 188 546 193 561 c 0,40,41
 193 563 193 563 194 565 c 0,42,43
 201 586 201 586 204 595 c 2,44,-1
 209 613 l 1,45,46
 213 623 213 623 223 620 c 128,-1,47
 233 617 233 617 229 607 c 1,48,-1
 227 599 l 2,0,1
211 547 m 0,49,50
 206 534 206 534 201 517 c 0,51,52
 183 462 183 462 162 396 c 1,53,54
 140 331 140 331 120 258 c 0,55,56
 99 184 99 184 87 147.5 c 128,-1,57
 75 111 75 111 70 95 c 0,58,59
 64 78 64 78 58 64 c 0,60,61
 54 55 54 55 50 48 c 1,62,63
 63 46 63 46 104 51 c 0,64,65
 148 56 148 56 204 63 c 256,66,67
 260 70 260 70 287 71.5 c 128,-1,68
 314 73 314 73 349.5 74.5 c 128,-1,69
 385 76 385 76 399 76 c 0,70,71
 407 76 407 76 413 76 c 1,72,73
 412 81 412 81 409 88 c 0,74,75
 400 110 400 110 376 162 c 0,76,77
 351 214 351 214 327 280 c 0,78,79
 304 346 304 346 287 389.5 c 128,-1,80
 270 433 270 433 255.5 468.5 c 128,-1,81
 241 504 241 504 230 528 c 0,82,83
 222 547 222 547 216 564 c 1,84,85
 216 564 216 564 215.5 563.5 c 128,-1,86
 215 563 215 563 215 562 c 0,87,88
 220 555 220 555 214 549 c 0,89,90
 212 548 212 548 211 547 c 0,49,50
EndSplineSet
EndChar

StartChar: quoteleft
Encoding: 8216 8216 116
Width: 95
Flags: W
LayerCount: 2
Fore
SplineSet
68.5 618.5 m 128,-1,1
 69 608 69 608 59 607 c 1,2,-1
 54 607 l 1,3,4
 52 605 52 605 51 600 c 0,5,6
 48 588 48 588 48 536 c 2,7,-1
 48 482 l 1,8,9
 49 478 49 478 45.5 475 c 128,-1,10
 42 472 42 472 38 472 c 128,-1,11
 34 472 34 472 31 475 c 128,-1,12
 28 478 28 478 27 482 c 1,13,-1
 27 536 l 2,14,15
 27 591 27 591 31 606 c 0,16,17
 37 627 37 627 51 628 c 1,18,-1
 58 628 l 1,19,0
 68 629 68 629 68.5 618.5 c 128,-1,1
EndSplineSet
EndChar

StartChar: quoteright
Encoding: 8217 8217 117
Width: 78
Flags: W
LayerCount: 2
Fore
SplineSet
39 642 m 128,-1,1
 43 642 43 642 46.5 639 c 128,-1,2
 50 636 50 636 50 632 c 2,3,-1
 51 561 l 2,4,5
 52 490 52 490 50 479 c 2,6,-1
 48 469 l 2,7,8
 46 459 46 459 35.5 461 c 128,-1,9
 25 463 25 463 27 474 c 2,10,-1
 29 483 l 2,11,12
 31 492 31 492 30 561 c 2,13,-1
 29 632 l 2,14,15
 29 636 29 636 32 639 c 128,-1,0
 35 642 35 642 39 642 c 128,-1,1
EndSplineSet
EndChar

StartChar: quotedblleft
Encoding: 8220 8220 118
Width: 236
Flags: W
LayerCount: 2
Fore
SplineSet
208 611.5 m 128,-1,1
 213 602 213 602 204 597 c 1,2,-1
 197 594 l 2,3,4
 192 591 192 591 175 569 c 0,5,6
 159 548 159 548 153 515 c 2,7,-1
 147 478 l 2,8,9
 146 468 146 468 135.5 469.5 c 128,-1,10
 125 471 125 471 127 481 c 2,11,-1
 132 518 l 1,12,13
 139 556 139 556 158.5 581.5 c 128,-1,14
 178 607 178 607 187 612 c 2,15,-1
 194 616 l 2,16,0
 203 621 203 621 208 611.5 c 128,-1,1
102 648 m 128,-1,18
 109 640 109 640 101 633 c 2,19,-1
 87 621 l 2,20,21
 75 611 75 611 60 577 c 0,22,23
 46 543 46 543 48 518 c 2,24,-1
 51 491 l 2,25,26
 52 480 52 480 42 479 c 128,-1,27
 32 478 32 478 30 488 c 1,28,-1
 28 516 l 1,29,30
 24 547 24 547 41 585 c 256,31,32
 58 623 58 623 73 637 c 2,33,-1
 87 649 l 2,34,17
 95 656 95 656 102 648 c 128,-1,18
EndSplineSet
EndChar

StartChar: quotedblright
Encoding: 8221 8221 119
Width: 210
Flags: W
LayerCount: 2
Fore
SplineSet
172.5 614.5 m 128,-1,1
 177 615 177 615 180 611.5 c 128,-1,2
 183 608 183 608 183 604 c 2,3,-1
 183 543 l 1,4,5
 184 479 184 479 177 462 c 2,6,-1
 170 446 l 2,7,8
 166 436 166 436 156.5 440 c 128,-1,9
 147 444 147 444 151 453 c 2,10,-1
 157 469 l 2,11,12
 163 483 163 483 162 543 c 1,13,-1
 162 604 l 2,14,15
 162 608 162 608 165 611 c 128,-1,0
 168 614 168 614 172.5 614.5 c 128,-1,1
40 628.5 m 128,-1,17
 43 638 43 638 53 635 c 2,18,-1
 64 632 l 2,19,20
 79 627 79 627 93 601 c 0,21,22
 108 574 108 574 76 514 c 2,23,-1
 47 458 l 2,24,25
 42 449 42 449 32.5 454 c 128,-1,26
 23 459 23 459 28 468 c 2,27,-1
 58 524 l 2,28,29
 85 574 85 574 75 591 c 0,30,31
 65 609 65 609 58 612 c 1,32,-1
 47 615 l 1,33,16
 37 619 37 619 40 628.5 c 128,-1,17
EndSplineSet
EndChar
